<?xml version="1.0" encoding="utf-8"?>
<!-- Generator: Adobe Illustrator 27.5.0, SVG Export Plug-In . SVG Version: 6.00 Build 0)  -->
<svg version="1.1" xmlns="http://www.w3.org/2000/svg" xmlns:xlink="http://www.w3.org/1999/xlink" x="0px" y="0px"
	 viewBox="0 0 500 500" style="enable-background:new 0 0 500 500;" xml:space="preserve">
<g id="Floor">
	<path id="Floor_1_" style="fill:#F5F5F5;" d="M89.976,443.848C1.595,399.5,1.594,327.599,89.974,283.252
		c88.38-44.347,231.672-44.347,320.052,0c88.38,44.347,88.381,116.248,0.002,160.596
		C321.648,488.196,178.356,488.196,89.976,443.848z"/>
</g>
<g id="Shadows">
	<ellipse id="Shadow_12_" style="fill:#E6E6E6;" cx="369.429" cy="382.783" rx="61.172" ry="35.318"/>
	<path id="Shadow_37_" style="fill:#E6E6E6;" d="M282.095,365.437c6.623,3.824,6.623,10.023,0,13.847
		c-6.623,3.824-17.36,3.824-23.983,0c-6.623-3.824-6.623-10.023,0-13.847C264.734,361.613,275.472,361.613,282.095,365.437z"/>
	<g id="Shadow_3_">
		<polygon style="fill:#E0E0E0;" points="76.701,181.628 76.701,197.798 115.46,175.421 115.46,197.797 148.842,178.524 
			148.842,162.355 132.15,171.992 132.15,165.785 209.667,121.03 209.667,127.237 192.975,136.874 192.976,175.42 209.667,165.784 
			209.667,171.991 192.975,181.628 192.976,200.901 187.6,204.004 187.6,139.978 154.217,159.251 154.217,181.628 110.084,207.108 
			110.084,184.732 76.701,204.005 76.701,354.436 110.084,335.162 110.084,290.408 129.463,279.22 129.463,263.05 96.08,282.324 
			96.08,323.974 90.705,327.077 90.705,259.947 96.08,256.844 96.08,276.116 134.838,253.74 134.838,282.324 115.46,293.512 
			115.46,332.059 132.15,322.422 132.15,328.629 71.326,363.746 71.326,178.525 132.15,143.408 132.15,149.615 		"/>
		<polygon style="fill:#E0E0E0;" points="231.733,271.135 168.221,307.804 168.221,285.427 132.15,306.252 132.15,300.045 
			148.842,290.408 148.842,229.485 110.084,251.862 110.084,229.485 90.705,240.673 90.705,215.193 96.08,212.089 96.08,231.363 
			168.221,189.713 168.221,170.439 173.596,167.336 173.596,231.363 206.979,212.089 206.979,192.816 212.355,189.712 
			212.355,259.946 190.288,272.686 190.288,266.48 206.979,256.843 206.979,218.296 168.221,240.673 168.221,195.919 
			115.46,226.381 115.46,242.551 154.217,220.175 154.217,287.305 168.221,279.22 168.221,256.843 190.288,244.103 190.288,250.31 
			173.596,259.947 173.596,298.493 226.358,268.031 226.358,139.977 209.667,149.614 209.667,143.407 226.358,133.77 
			226.358,95.224 170.909,127.237 170.909,121.031 231.733,85.914 		"/>
	</g>
</g>
<g id="Labyrinth_1_">
	<g id="Labyrinth_2_">
		<g>
			<path style="fill:#d1dee6;" d="M133.708,144.308l-60.825,35.117l0,185.221l7.136,4.119l60.825-35.117v-6.207l-7.136-4.119
				l-9.555,5.517l0-30.308l19.378-11.188l0-28.584l-7.136-4.119l-31.622,18.257l0-11.034l-7.136-4.119l-5.375,3.104v67.13
				l7.136,4.119l5.375-3.103v-41.65l26.247-15.154l0,7.931l-19.379,11.188l0,44.754l-26.247,15.154V209.024l26.247-15.154v14.137
				l7.136,4.119l44.133-25.48l0-22.376l26.247-15.154l0,55.788l7.136,4.119l5.375-3.103l0-19.273l16.692-9.637l0-6.207l-7.136-4.119
				l-9.556,5.517l0-30.307l16.692-9.637v-6.207l-7.136-4.119l-77.517,44.754v6.207l7.136,4.119l9.556-5.517l0,7.931l-26.247,15.153
				l0-14.137l-7.136-4.119l-31.623,18.257v-7.931l55.449-32.014l0-6.207L133.708,144.308z"/>
			<path style="fill:#d1dee6;" d="M240.427,90.933l-7.136-4.119l-60.825,35.117l0,6.207l7.136,4.119l48.313-27.894v30.308
				l-16.691,9.637l0,6.207l7.136,4.119l9.555-5.517l0,119.816l-45.626,26.342l0-30.308l16.692-9.637l0-6.207l-7.136-4.119
				l-22.067,12.74l0,22.376l-6.868,3.965v-58.891l-7.136-4.119l-31.622,18.257v-7.931l45.626-26.342l0,36.515l7.136,4.119
				l31.623-18.257v30.308l-16.691,9.637v6.207l7.136,4.119l22.067-12.74v-70.234l-7.136-4.119l-5.375,3.103l0,19.273l-26.247,15.154
				l0-55.789l-7.136-4.119l-5.376,3.103v19.273l-65.005,37.531v-11.035l-7.136-4.119l-5.376,3.104v25.48l7.136,4.119l12.244-7.069
				l0,14.138l7.136,4.119l31.622-18.257l0,52.685l-16.692,9.637l0,6.207l7.136,4.119l28.935-16.705v14.138l7.136,4.119
				l63.512-36.669L240.427,90.933z"/>
		</g>
		<g style="opacity:0.1;">
			<polygon points="140.844,148.427 133.708,144.308 72.884,179.425 80.019,183.544 			"/>
			<polygon points="179.602,126.05 172.467,121.931 233.291,86.814 240.427,90.933 			"/>
			<polygon points="124.153,180.44 117.017,176.321 85.395,194.579 85.395,202.817 			"/>
			<polygon points="150.4,179.424 157.535,183.543 124.153,202.817 124.153,194.578 			"/>
			<polygon points="218.361,126.05 211.225,121.931 133.708,166.685 140.844,170.804 			"/>
			<polygon points="218.361,148.426 235.051,138.789 227.916,134.671 211.225,144.307 			"/>
			<polygon points="218.361,170.803 211.225,166.684 201.697,172.153 201.669,180.44 			"/>
			<polygon points="176.914,175.458 169.779,171.339 175.154,168.236 182.29,172.355 			"/>
			<polygon points="169.779,190.613 104.774,228.143 104.774,236.382 176.914,194.732 			"/>
			<polygon points="104.774,217.109 99.399,220.212 92.263,216.093 97.638,212.99 			"/>
			<polygon points="99.399,264.966 104.774,261.863 97.638,257.744 92.263,260.847 			"/>
			<polygon points="118.778,340.181 111.642,336.062 85.395,351.216 85.395,359.455 			"/>
			<polygon points="140.844,327.441 133.708,323.322 124.153,328.839 124.153,337.078 			"/>
			<polygon points="131.021,280.121 138.156,284.239 118.778,295.428 111.642,291.309 			"/>
			<polygon points="143.532,258.759 104.774,281.136 104.774,272.897 136.396,254.64 			"/>
			<polygon points="124.153,247.571 162.911,225.194 155.775,221.075 124.153,239.332 			"/>
			<polygon points="133.708,300.945 150.4,291.309 157.535,295.428 140.844,305.064 			"/>
			<polygon points="169.779,280.12 176.915,284.239 162.911,292.324 162.911,284.085 			"/>
			<polygon points="169.779,257.744 191.846,245.003 198.981,249.122 176.914,261.862 			"/>
			<polygon points="182.29,303.513 235.051,273.051 227.916,268.932 182.29,295.274 			"/>
			<polygon points="215.673,261.862 198.981,271.499 191.846,267.38 208.537,257.743 			"/>
			<polygon points="215.673,217.108 182.29,236.382 182.29,228.143 208.537,212.989 			"/>
		</g>
		<g style="opacity:0.2;">
			<polygon points="80.019,368.765 80.019,183.544 72.884,179.425 72.884,364.646 			"/>
			<polygon points="179.602,132.257 179.602,126.05 172.467,121.931 172.467,128.138 			"/>
			<polygon points="157.535,183.543 157.535,167.374 150.4,171.494 150.4,179.424 			"/>
			<polygon points="140.844,177.011 140.844,170.804 133.708,166.685 133.708,172.892 			"/>
			<polygon points="235.051,138.789 227.916,134.671 227.916,104.363 235.051,100.243 			"/>
			<polygon points="218.36,154.633 218.361,148.426 211.225,144.307 211.225,150.514 			"/>
			<polygon points="196.294,209.024 189.158,204.905 189.158,149.117 196.294,144.997 			"/>
			<polygon points="176.914,194.732 176.914,175.458 169.779,171.339 169.779,190.613 			"/>
			<polygon points="99.398,245.693 99.399,220.212 92.263,216.093 92.263,241.574 			"/>
			<polygon points="176.915,200.939 169.779,205.058 169.779,241.573 176.914,245.692 			"/>
			<polygon points="118.778,212.127 118.778,189.751 111.642,193.871 111.642,208.008 			"/>
			<polygon points="99.398,332.096 99.399,264.966 92.263,260.847 92.263,327.977 			"/>
			<polygon points="118.778,340.181 118.778,295.428 111.642,291.309 111.642,336.062 			"/>
			<polygon points="138.156,284.239 138.156,268.069 131.021,272.189 131.021,280.121 			"/>
			<polygon points="118.778,256.881 118.778,234.504 111.642,238.624 111.642,252.762 			"/>
			<polygon points="150.399,238.624 157.535,234.504 157.535,295.428 150.4,291.309 			"/>
			<polygon points="140.844,311.271 133.708,307.152 133.708,300.945 140.844,305.064 			"/>
			<polygon points="176.915,284.239 176.914,261.862 169.779,257.744 169.779,280.12 			"/>
			<polygon points="176.914,312.823 176.914,290.446 169.779,294.566 169.779,308.704 			"/>
			<polygon points="235.051,273.051 235.051,144.996 227.916,149.116 227.916,268.932 			"/>
			<polygon points="198.981,277.706 198.981,271.499 191.846,267.38 191.846,273.587 			"/>
			<polygon points="215.673,261.862 215.673,223.315 208.537,227.435 208.537,257.743 			"/>
			<polygon points="215.673,217.108 215.673,197.835 208.537,193.716 208.537,212.989 			"/>
		</g>
		<g>
			<polygon style="fill:#d1dee6;" points="85.395,186.648 85.395,202.817 124.153,180.44 124.153,202.817 157.535,183.543 
				157.535,167.374 140.844,177.011 140.844,170.804 218.361,126.05 218.361,132.257 201.669,141.894 201.669,180.44 
				218.361,170.803 218.361,177.01 201.669,186.647 201.669,205.92 196.294,209.024 196.294,144.997 162.911,164.271 
				162.911,186.647 118.778,212.127 118.778,189.751 85.395,209.024 85.395,359.455 118.778,340.181 118.778,295.428 
				138.156,284.239 138.156,268.069 104.774,287.343 104.774,328.993 99.398,332.096 99.399,264.966 104.774,261.863 
				104.774,281.136 143.532,258.759 143.532,287.343 124.153,298.531 124.153,337.078 140.844,327.441 140.844,333.648 
				80.019,368.765 80.019,183.544 140.844,148.427 140.844,154.634 			"/>
			<polygon style="fill:#d1dee6;" points="240.427,276.154 176.914,312.823 176.914,290.446 140.844,311.271 140.844,305.064 
				157.535,295.428 157.535,234.504 118.778,256.881 118.778,234.504 99.398,245.693 99.399,220.212 104.774,217.109 
				104.774,236.382 176.914,194.732 176.914,175.458 182.29,172.355 182.29,236.382 215.673,217.108 215.673,197.835 
				221.048,194.732 221.048,264.965 198.981,277.706 198.981,271.499 215.673,261.862 215.673,223.315 176.914,245.692 
				176.915,200.939 124.153,231.401 124.153,247.571 162.911,225.194 162.911,292.324 176.915,284.239 176.914,261.862 
				198.981,249.122 198.981,255.329 182.29,264.966 182.29,303.513 235.051,273.051 235.051,144.996 218.36,154.633 
				218.361,148.426 235.051,138.789 235.051,100.243 179.602,132.257 179.602,126.05 240.427,90.933 			"/>
		</g>
	</g>
</g>
<g id="Line_1_">
	<g id="Line">
		<g>
			
				<line style="fill:none;stroke:#455A64;stroke-width:2.3557;stroke-linecap:round;stroke-linejoin:round;" x1="156.517" y1="324.822" x2="156.517" y2="318.933"/>
			<polyline style="fill:none;stroke:#455A64;stroke-width:2.3557;stroke-linecap:round;stroke-linejoin:round;" points="
				156.517,312.133 156.517,306.244 151.417,309.189 			"/>
			
				<line style="fill:none;stroke:#455A64;stroke-width:2.3557;stroke-linecap:round;stroke-linejoin:round;stroke-dasharray:7.1836,7.1836;" x1="145.196" y1="312.781" x2="135.864" y2="318.168"/>
			<polyline style="fill:none;stroke:#455A64;stroke-width:2.3557;stroke-linecap:round;stroke-linejoin:round;" points="
				132.754,319.964 127.653,322.909 127.653,317.02 			"/>
			<polyline style="fill:none;stroke:#455A64;stroke-width:2.3557;stroke-linecap:round;stroke-linejoin:round;" points="
				127.653,306.206 127.653,300.316 132.754,297.372 			"/>
			<polyline style="fill:none;stroke:#455A64;stroke-width:2.3557;stroke-linecap:round;stroke-linejoin:round;" points="
				141.053,292.58 146.153,289.635 146.153,283.746 			"/>
			
				<line style="fill:none;stroke:#455A64;stroke-width:2.3557;stroke-linecap:round;stroke-linejoin:round;stroke-dasharray:10.8866,10.8866;" x1="146.153" y1="272.859" x2="146.153" y2="256.53"/>
			<polyline style="fill:none;stroke:#455A64;stroke-width:2.3557;stroke-linecap:round;stroke-linejoin:round;" points="
				146.153,251.086 146.153,245.197 141.053,248.142 			"/>
			
				<line style="fill:none;stroke:#455A64;stroke-width:2.3557;stroke-linecap:round;stroke-linejoin:round;stroke-dasharray:10.732,10.732;" x1="131.759" y1="253.508" x2="117.817" y2="261.557"/>
			<polyline style="fill:none;stroke:#455A64;stroke-width:2.3557;stroke-linecap:round;stroke-linejoin:round;" points="
				113.17,264.24 108.07,267.184 108.07,261.295 			"/>
			<polyline style="fill:none;stroke:#455A64;stroke-width:2.3557;stroke-linecap:round;stroke-linejoin:round;" points="
				108.07,250.382 108.07,244.492 102.97,247.437 			"/>
			<polyline style="fill:none;stroke:#455A64;stroke-width:2.3557;stroke-linecap:round;stroke-linejoin:round;" points="
				93.521,252.892 88.421,255.836 88.421,249.947 			"/>
			
				<line style="fill:none;stroke:#455A64;stroke-width:2.3557;stroke-linecap:round;stroke-linejoin:round;stroke-dasharray:10.9917,10.9917;" x1="88.421" y1="238.955" x2="88.421" y2="222.468"/>
			<polyline style="fill:none;stroke:#455A64;stroke-width:2.3557;stroke-linecap:round;stroke-linejoin:round;" points="
				88.421,216.972 88.421,211.083 93.522,208.138 			"/>
			<polyline style="fill:none;stroke:#455A64;stroke-width:2.3557;stroke-linecap:round;stroke-linejoin:round;" points="
				102.97,202.683 108.07,199.739 108.07,205.628 			"/>
			<polyline style="fill:none;stroke:#455A64;stroke-width:2.3557;stroke-linecap:round;stroke-linejoin:round;" points="
				108.07,216.226 108.07,222.115 113.17,219.171 			"/>
			
				<line style="fill:none;stroke:#455A64;stroke-width:2.3557;stroke-linecap:round;stroke-linejoin:round;stroke-dasharray:11.0062,11.0062;" x1="122.702" y1="213.668" x2="156.063" y2="194.407"/>
			<polyline style="fill:none;stroke:#455A64;stroke-width:2.3557;stroke-linecap:round;stroke-linejoin:round;" points="
				160.828,191.655 165.929,188.711 165.929,182.821 			"/>
			<polyline style="fill:none;stroke:#455A64;stroke-width:2.3557;stroke-linecap:round;stroke-linejoin:round;" points="
				165.929,172.223 165.929,166.334 171.029,163.389 			"/>
			<polyline style="fill:none;stroke:#455A64;stroke-width:2.3557;stroke-linecap:round;stroke-linejoin:round;" points="
				180.604,157.861 185.704,154.916 185.704,160.806 			"/>
			
				<line style="fill:none;stroke:#455A64;stroke-width:2.3557;stroke-linecap:round;stroke-linejoin:round;stroke-dasharray:11.0597,11.0597;" x1="185.704" y1="171.866" x2="185.704" y2="210.575"/>
			<polyline style="fill:none;stroke:#455A64;stroke-width:2.3557;stroke-linecap:round;stroke-linejoin:round;" points="
				185.704,216.104 185.704,221.994 190.805,219.049 			"/>
			<polyline style="fill:none;stroke:#455A64;stroke-width:2.3557;stroke-linecap:round;stroke-linejoin:round;" points="
				199.865,213.818 204.965,210.874 204.965,204.984 			"/>
			<polyline style="fill:none;stroke:#455A64;stroke-width:2.3557;stroke-linecap:round;stroke-linejoin:round;" points="
				204.965,194.439 204.965,188.55 210.065,185.605 			"/>
			<polyline style="fill:none;stroke:#455A64;stroke-width:2.3557;stroke-linecap:round;stroke-linejoin:round;" points="
				219.244,180.306 224.344,177.361 224.344,171.472 			"/>
			<polyline style="fill:none;stroke:#455A64;stroke-width:2.3557;stroke-linecap:round;stroke-linejoin:round;" points="
				224.344,160.874 224.344,154.984 219.244,157.929 			"/>
			<polyline style="fill:none;stroke:#455A64;stroke-width:2.3557;stroke-linecap:round;stroke-linejoin:round;" points="
				210.065,163.228 204.965,166.173 204.965,160.284 			"/>
			<polyline style="fill:none;stroke:#455A64;stroke-width:2.3557;stroke-linecap:round;stroke-linejoin:round;" points="
				204.965,149.686 204.965,143.796 210.065,140.852 			"/>
			<polyline style="fill:none;stroke:#455A64;stroke-width:2.3557;stroke-linecap:round;stroke-linejoin:round;" points="
				219.244,135.552 224.344,132.608 224.344,126.718 			"/>
			<polyline style="fill:none;stroke:#455A64;stroke-width:2.3557;stroke-linecap:round;stroke-linejoin:round;" points="
				224.344,116.445 224.344,110.556 219.244,113.501 			"/>
			
				<line style="fill:none;stroke:#455A64;stroke-width:2.3557;stroke-linecap:round;stroke-linejoin:round;stroke-dasharray:13.3081,13.3081;" x1="207.719" y1="120.155" x2="167.38" y2="143.444"/>
			<polyline style="fill:none;stroke:#455A64;stroke-width:2.3557;stroke-linecap:round;stroke-linejoin:round;" points="
				161.618,146.771 156.517,149.716 156.517,143.826 			"/>
			
				<line style="fill:none;stroke:#455A64;stroke-width:2.3557;stroke-linecap:round;stroke-linejoin:round;" x1="156.517" y1="132.974" x2="156.516" y2="127.085"/>
		</g>
	</g>
</g>
<g id="Icons">
	<g id="Idea_icon">
		<g>
			<path id="XMLID_402_" style="fill:#E0E0E0;" d="M150.819,78.845c-5.754,3.322-10.418,12.234-10.418,19.906
				c0,11.028,6.824,8.919,6.824,13.364c0,0.708,0.351,1.214,1.053,1.349c1.404,0.27,3.68-1.044,5.083-2.935
				c0.702-0.945,1.053-1.856,1.053-2.564l0,0c0-4.445,6.824-10.215,6.824-21.243C161.238,79.049,156.574,75.523,150.819,78.845z
				 M156.842,93.554c-0.496,1-1.348,1.915-2.397,2.323c-0.226,0.861-0.445,1.874-0.641,3.046c-0.92,5.52-0.864,9.815-0.863,9.857
				c0.005,0.314-0.184,0.685-0.421,0.829c-0.003,0.002-0.006,0.003-0.009,0.005c-0.234,0.135-0.425-0.003-0.43-0.313
				c-0.003-0.181-0.059-4.489,0.888-10.17c0.184-1.101,0.397-2.125,0.631-3.05c-0.353,0.036-0.721,0.013-1.1-0.082
				c-0.676-0.167-1.237-0.495-1.681-0.916c-0.443,0.932-1.005,1.908-1.681,2.856c-0.379,0.532-0.747,0.98-1.1,1.352
				c0.235,0.654,0.448,1.431,0.631,2.321c0.947,4.587,0.892,8.959,0.889,9.143c-0.005,0.32-0.191,0.65-0.439,0.815
				c-0.237,0.13-0.426-0.023-0.421-0.343c0.001-0.043,0.055-4.409-0.864-8.86c-0.196-0.945-0.415-1.705-0.641-2.305
				c-1.051,0.806-1.902,0.873-2.397,0.446c-0.496-0.426-0.57-1.334-0.185-2.26c0.292-0.702,0.715-1.187,1.17-1.329
				c0.678-0.212,1.338,0.335,1.905,1.522c0.315-0.323,0.65-0.725,0.999-1.214c0.676-0.95,1.208-1.899,1.604-2.767
				c-0.587-0.865-0.804-1.931-0.627-2.86c0.152-0.801,0.585-1.477,1.156-1.807c0.572-0.33,1.004-0.153,1.156,0.473
				c0.177,0.724-0.041,2.041-0.627,3.584c0.396,0.411,0.928,0.745,1.605,0.915c0.349,0.086,0.684,0.101,0.999,0.061
				c0.567-1.84,1.227-3.151,1.905-3.722c0.452-0.374,0.878-0.386,1.17-0.021C157.411,91.562,157.338,92.555,156.842,93.554z"/>
			<path id="XMLID_396_" style="fill:#E0E0E0;" d="M154.527,109.358v3.535c0,0.726-0.361,1.669-1.089,2.646
				c-1.442,1.945-3.796,3.304-5.238,3.025c-0.756-0.138-1.11-0.707-1.074-1.491v-3.176c0.085,0.592,0.445,1.006,1.074,1.133
				c1.442,0.28,3.796-1.079,5.238-3.024C154.167,111.027,154.527,110.093,154.527,109.358z"/>
		</g>
		<g>
			<g id="XMLID_9181_">
				<path style="fill:#407bff;" d="M156.003,110.256c0,0.735-0.361,1.669-1.089,2.646c-1.177,1.587-2.961,2.784-4.361,3.019
					l-1.952-1.127v3.176c-0.026,0.588,0.166,1.055,0.583,1.31c0.139,0.085,3.235,1.875,3.68,2.124
					c0.13,0.073,0.281,0.126,0.452,0.158c1.442,0.28,3.796-1.08,5.238-3.025c0.728-0.976,1.089-1.92,1.089-2.646v-3.535
					L156.003,110.256z"/>
				<path style="fill:#455A64;" d="M149.183,119.28c0.139,0.085,3.235,1.875,3.68,2.124c0.13,0.073,0.281,0.126,0.452,0.158
					c0.148,0.029,0.31,0.029,0.475,0.025l-1.549-1.516v-3.176l-1.687-0.974c0,0-0.001,0-0.001,0l-1.952-1.127v3.176
					C148.574,118.558,148.767,119.025,149.183,119.28z"/>
				<g id="XMLID_9195_">
					<path style="fill:#455A64;" d="M159.108,79.195c-1.826-1.055-4.208-0.957-6.814,0.548
						c-5.754,3.322-10.419,12.234-10.419,19.906c0,11.028,6.824,8.919,6.824,13.364c0,0.529,0.196,0.944,0.586,1.177
						c0.133,0.079,3.251,1.872,3.646,2.104c0.132,0.077,0.285,0.134,0.46,0.168c1.404,0.27,3.68-1.044,5.083-2.935
						c0.702-0.945,1.053-1.856,1.053-2.564c0-4.445,6.824-10.215,6.824-21.243c0-4.194-1.395-7.147-3.6-8.421
						C162.143,80.946,159.721,79.549,159.108,79.195z"/>
				</g>
			</g>
			<g id="XMLID_361_">
				<g id="XMLID_376_">
					<path id="XMLID_9196_" style="fill:#d1dee6;" d="M161.052,95.284c-0.286,0.24-0.729,1.026-1.187,2.412
						c0.609-0.306,1.098-0.848,1.375-1.406c0.081-0.164,0.33-0.718,0.12-0.98C161.24,95.159,161.139,95.21,161.052,95.284z"/>
					<path id="XMLID_9197_" style="fill:#d1dee6;" d="M155.848,94.091c-0.218,0.126-0.289,0.29-0.329,0.498
						c-0.091,0.477,0.013,1.102,0.329,1.688c0.315-0.95,0.42-1.696,0.329-2.068C156.137,94.047,156.066,93.965,155.848,94.091z"/>
					<path id="XMLID_9198_" style="fill:#d1dee6;" d="M150.644,101.292c-0.02,0.006-0.04,0.014-0.062,0.027
						c-0.073,0.042-0.154,0.132-0.247,0.356c-0.209,0.504,0.039,0.77,0.12,0.841c0.276,0.238,0.762,0.219,1.375-0.183
						C151.373,101.476,150.93,101.203,150.644,101.292z"/>
					<path id="XMLID_9201_" style="fill:#d1dee6;" d="M155.935,81.844c-5.754,3.322-10.419,12.234-10.419,19.906
						c0,11.028,6.824,8.919,6.824,13.364c0,0.708,0.351,1.214,1.053,1.349c1.404,0.27,3.68-1.044,5.083-2.935
						c0.702-0.945,1.053-1.856,1.053-2.564l0,0c0-4.445,6.824-10.215,6.824-21.243C166.353,82.048,161.689,78.522,155.935,81.844z
						 M161.957,96.553c-0.496,1-1.348,1.915-2.398,2.323c-0.226,0.861-0.445,1.874-0.641,3.046c-0.92,5.52-0.864,9.815-0.863,9.857
						c0.005,0.314-0.184,0.685-0.421,0.829c-0.003,0.002-0.006,0.003-0.009,0.005c-0.234,0.135-0.425-0.003-0.43-0.313
						c-0.003-0.181-0.059-4.489,0.889-10.17c0.184-1.101,0.396-2.125,0.631-3.05c-0.353,0.036-0.721,0.013-1.1-0.082
						c-0.676-0.167-1.238-0.495-1.68-0.916c-0.443,0.932-1.005,1.908-1.681,2.856c-0.379,0.532-0.747,0.98-1.1,1.352
						c0.235,0.654,0.448,1.431,0.631,2.321c0.947,4.587,0.892,8.959,0.889,9.144c-0.005,0.32-0.191,0.65-0.439,0.815
						c-0.237,0.13-0.426-0.023-0.421-0.343c0.001-0.043,0.055-4.409-0.864-8.86c-0.196-0.945-0.415-1.705-0.641-2.305
						c-1.051,0.806-1.902,0.873-2.397,0.446c-0.496-0.426-0.57-1.334-0.185-2.26c0.292-0.702,0.715-1.187,1.17-1.329
						c0.678-0.212,1.338,0.335,1.905,1.522c0.315-0.323,0.65-0.725,0.999-1.214c0.676-0.95,1.209-1.899,1.605-2.767
						c-0.587-0.865-0.804-1.931-0.627-2.86c0.153-0.801,0.585-1.477,1.156-1.807c0.572-0.33,1.004-0.153,1.156,0.473
						c0.176,0.725-0.041,2.041-0.627,3.584c0.396,0.411,0.928,0.745,1.605,0.915c0.349,0.086,0.684,0.101,0.999,0.061
						c0.567-1.84,1.227-3.151,1.905-3.722c0.452-0.374,0.878-0.386,1.17-0.021C162.527,94.561,162.453,95.554,161.957,96.553z"/>
				</g>
				<path id="XMLID_9136_" style="fill:#d1dee6;" d="M159.643,112.357v3.535c0,0.726-0.361,1.669-1.089,2.646
					c-1.442,1.945-3.796,3.304-5.238,3.025c-0.756-0.138-1.11-0.707-1.074-1.491v-3.176c0.085,0.592,0.445,1.006,1.074,1.133
					c1.442,0.28,3.796-1.079,5.238-3.024C159.282,114.026,159.643,113.092,159.643,112.357z"/>
			</g>
			<path style="fill:#407bff;" d="M152.888,116.263c-0.541-0.316-3.478-1.995-3.597-2.073c-0.394-0.232-0.59-0.646-0.59-1.18
				c0-4.441-6.822-2.333-6.822-13.364c0-2.501,0.506-5.136,1.377-7.673c1.258,0.731,2.888,1.672,3.633,2.101
				c-0.871,2.529-1.37,5.171-1.37,7.673c0,11.031,6.822,8.923,6.822,13.364C152.34,115.623,152.522,116.024,152.888,116.263z"/>
			<path style="fill:#407bff;" d="M153.394,116.46c-0.176-0.028-0.33-0.091-0.464-0.169
				C153.063,116.368,153.218,116.424,153.394,116.46z"/>
		</g>
		<g>
			<path id="XMLID_9174_" style="fill:#F0F0F0;" d="M152.832,73.982c-0.49,0.283-0.887-0.017-0.887-0.67v-6.814
				c0-0.654,0.397-1.412,0.887-1.695c0.49-0.283,0.887,0.017,0.887,0.671v6.814C153.719,72.942,153.322,73.7,152.832,73.982z"/>
			<path id="XMLID_9172_" style="fill:#F0F0F0;" d="M144.767,81.52c-0.424,0.572-0.967,0.691-1.212,0.267L141,77.361
				c-0.245-0.424-0.1-1.232,0.325-1.803c0.424-0.571,0.967-0.691,1.212-0.267l2.555,4.426
				C145.337,80.142,145.191,80.949,144.767,81.52z"/>
			<path id="XMLID_9170_" style="fill:#F0F0F0;" d="M138.863,92.8c-0.245,0.707-0.787,1.214-1.212,1.132l-4.426-0.852
				c-0.425-0.082-0.57-0.721-0.325-1.428c0.245-0.707,0.787-1.214,1.212-1.133l4.426,0.852
				C138.963,91.454,139.108,92.093,138.863,92.8z"/>
			<path id="XMLID_9168_" style="fill:#F0F0F0;" d="M136.702,104.801c0,0.653-0.397,1.412-0.887,1.695l-5.111,2.951
				c-0.49,0.283-0.887-0.018-0.887-0.671c0-0.653,0.397-1.412,0.887-1.695l5.111-2.95
				C136.305,103.847,136.702,104.148,136.702,104.801z"/>
			<path id="XMLID_9153_" style="fill:#F0F0F0;" d="M138.863,114.306c0.245,0.424,0.1,1.231-0.325,1.803l-4.426,5.962
				c-0.425,0.572-0.967,0.691-1.212,0.267c-0.245-0.424-0.1-1.231,0.325-1.803l4.426-5.962
				C138.076,114.001,138.618,113.882,138.863,114.306z"/>
			<path id="XMLID_9151_" style="fill:#F0F0F0;" d="M166.801,98.177c0.245-0.707,0.787-1.214,1.212-1.133l4.426,0.852
				c0.424,0.082,0.57,0.721,0.325,1.428c-0.245,0.707-0.787,1.214-1.212,1.132l-4.426-0.852
				C166.701,99.523,166.556,98.884,166.801,98.177z"/>
			<path id="XMLID_9149_" style="fill:#F0F0F0;" d="M168.961,86.176c0-0.653,0.397-1.412,0.887-1.695l5.111-2.95
				c0.49-0.283,0.887,0.017,0.887,0.671c0,0.653-0.397,1.412-0.887,1.695l-5.111,2.95C169.358,87.13,168.961,86.83,168.961,86.176z"
				/>
			<path id="XMLID_9147_" style="fill:#F0F0F0;" d="M166.801,76.671c-0.245-0.424-0.1-1.231,0.325-1.803l4.426-5.962
				c0.425-0.572,0.967-0.691,1.212-0.267s0.1,1.231-0.325,1.803l-4.426,5.962C167.588,76.976,167.046,77.095,166.801,76.671z"/>
			<path id="XMLID_9145_" style="fill:#F0F0F0;" d="M160.897,72.208c-0.424-0.082-0.57-0.721-0.325-1.428l2.556-7.377
				c0.245-0.708,0.788-1.214,1.212-1.133s0.57,0.72,0.325,1.428l-2.555,7.377C161.863,71.783,161.321,72.289,160.897,72.208z"/>
		</g>
	</g>
	<g id="Question_Icon_2_">
		<g>
			<path style="fill:#E0E0E0;" d="M154.128,361.153c0.921-0.532,1.707-0.565,2.357-0.099c0.65,0.467,0.975,1.297,0.975,2.491
				c0,1.195-0.322,2.403-0.965,3.624c-0.644,1.221-1.42,2.094-2.328,2.619c-0.909,0.525-1.682,0.546-2.319,0.064
				s-0.956-1.32-0.956-2.515c0-1.194,0.315-2.394,0.947-3.6C152.469,362.532,153.232,361.67,154.128,361.153z"/>
			<path style="fill:#E0E0E0;" d="M150.513,343.63l-4.959,2.863c-0.025-3.225,0.807-6.384,2.499-9.475
				c1.691-3.091,3.918-5.435,6.682-7.031c1.779-1.027,3.294-1.464,4.543-1.31c1.249,0.154,2.249,0.838,3,2.054
				c0.751,1.216,1.126,2.732,1.126,4.549c0,0.993-0.12,2.038-0.36,3.135c-0.24,1.098-0.618,2.3-1.136,3.609
				c-0.303,0.764-1.029,2.176-2.177,4.235c-1.098,1.963-1.786,3.299-2.063,4.005c-0.278,0.707-0.511,1.57-0.7,2.587
				c-0.189,1.018-0.309,2.349-0.36,3.993l-5.13,2.962l-0.019-1.125c0-2.254,0.309-4.481,0.927-6.681
				c0.618-2.199,1.621-4.507,3.01-6.924c1.337-2.337,2.145-3.88,2.423-4.629c0.277-0.749,0.416-1.519,0.416-2.31
				c0-1.077-0.338-1.794-1.013-2.154c-0.675-0.359-1.581-0.211-2.716,0.445c-1.161,0.67-2.114,1.677-2.858,3.019
				C150.904,340.789,150.526,342.184,150.513,343.63z"/>
		</g>
		<g>
			<g>
				<path style="fill:#d1dee6;" d="M159.963,364.082c0.921-0.532,1.707-0.565,2.357-0.099c0.65,0.466,0.975,1.297,0.975,2.491
					c0,1.195-0.322,2.403-0.965,3.624c-0.644,1.221-1.42,2.094-2.328,2.619c-0.909,0.525-1.682,0.546-2.319,0.064
					c-0.637-0.481-0.956-1.32-0.956-2.515c0-1.194,0.315-2.394,0.946-3.6C158.304,365.46,159.067,364.599,159.963,364.082z"/>
				<path style="fill:#455A64;" d="M157.904,372.907c-0.005-0.002-0.011-0.004-0.016-0.007c-0.067-0.038-3.061-1.773-3.658-2.112
					c-0.068-0.038-0.135-0.083-0.202-0.132c-0.637-0.482-0.956-1.32-0.956-2.514c0-1.196,0.316-2.395,0.947-3.6
					c0.043-0.085,0.088-0.168,0.135-0.247l3.663,2.116c-0.045,0.079-0.09,0.162-0.133,0.245c-0.631,1.207-0.947,2.406-0.947,3.6
					c0,1.196,0.317,2.033,0.956,2.514C157.761,372.823,157.832,372.868,157.904,372.907z"/>
				<path style="fill:#407bff;" d="M162.184,363.88c-0.62-0.364-1.358-0.301-2.211,0.191c-0.833,0.482-1.553,1.263-2.155,2.339
					l-3.663-2.116c0.566-1.012,1.236-1.757,2.006-2.242c0.049-0.031,0.099-0.067,0.15-0.096c0.352-0.204,0.684-0.33,0.996-0.386
					c0.44-0.081,0.841-0.022,1.203,0.186c0.009,0.004,0.099,0.058,0.245,0.142c0.736,0.424,2.9,1.676,3.414,1.97
					C162.173,363.872,162.179,363.876,162.184,363.88z"/>
			</g>
			<g>
				<path style="fill:#d1dee6;" d="M156.348,346.559l-4.959,2.863c-0.025-3.225,0.807-6.384,2.499-9.475
					c1.691-3.091,3.918-5.435,6.682-7.031c1.779-1.027,3.294-1.464,4.543-1.31c1.249,0.154,2.249,0.838,3,2.054
					c0.751,1.216,1.126,2.732,1.126,4.549c0,0.993-0.12,2.038-0.36,3.135c-0.24,1.098-0.618,2.3-1.136,3.609
					c-0.303,0.764-1.029,2.176-2.177,4.235c-1.098,1.963-1.786,3.299-2.063,4.005c-0.278,0.707-0.511,1.57-0.7,2.587
					c-0.189,1.018-0.309,2.349-0.36,3.993l-5.13,2.962l-0.019-1.125c0-2.254,0.309-4.481,0.927-6.681
					c0.618-2.199,1.621-4.507,3.01-6.924c1.337-2.337,2.145-3.88,2.423-4.629c0.277-0.749,0.416-1.519,0.416-2.31
					c0-1.077-0.338-1.794-1.013-2.154c-0.675-0.359-1.581-0.211-2.716,0.445c-1.161,0.67-2.114,1.677-2.858,3.018
					C156.739,343.718,156.36,345.112,156.348,346.559z"/>
				<path style="fill:#455A64;" d="M166.526,332.065c-0.429-0.24-0.9-0.395-1.414-0.46c-1.248-0.153-2.763,0.283-4.542,1.311
					c-2.763,1.595-4.991,3.939-6.683,7.031c-0.07,0.128-0.139,0.258-0.206,0.386l-3.663-2.116c0.067-0.128,0.135-0.258,0.206-0.386
					c1.69-3.092,3.918-5.435,6.681-7.031c1.78-1.026,3.294-1.463,4.544-1.31c0.536,0.067,1.026,0.229,1.472,0.492
					C163.51,330.332,166.096,331.822,166.526,332.065z"/>
				<path style="fill:#455A64;" d="M163.295,344.192c-0.413,0.86-1.102,2.13-2.064,3.813c-1.389,2.417-2.392,4.724-3.01,6.924
					c-0.615,2.19-0.924,4.407-0.927,6.65v0.029l0.02,1.126l-1.165-0.671l-2.5-1.443l-0.018-1.126c0-2.255,0.308-4.48,0.927-6.681
					c0.619-2.199,1.622-4.508,3.009-6.925c0.963-1.681,1.652-2.951,2.067-3.811L163.295,344.192z"/>
				<path style="fill:#407bff;" d="M153.681,340.334c-1.553,2.969-2.316,5.997-2.293,9.089l-3.663-2.116
					c-0.023-3.092,0.738-6.12,2.293-9.089L153.681,340.334z"/>
				<path style="fill:#407bff;" d="M164.071,341.066c0,0.79-0.139,1.56-0.417,2.309c-0.078,0.211-0.198,0.483-0.359,0.817
					l-3.662-2.114c0.161-0.334,0.28-0.606,0.357-0.817c0.233-0.63,0.366-1.273,0.404-1.934c1.111-0.63,1.999-0.768,2.664-0.415
					C163.733,339.271,164.071,339.989,164.071,341.066z"/>
			</g>
		</g>
	</g>
</g>
<g id="Character">
	<g id="Character_2_">
		<path id="Line_2_" style="fill:#455A64;" d="M181.249,378.634c1.045,1.429,2.311,2.618,3.742,3.654
			c1.491,1.08,3.033,2.049,4.675,2.884c3.174,1.614,6.397,3.23,9.839,4.191c3.436,0.96,7.186,1.477,10.711,0.698
			c1.724-0.381,3.366-1.063,4.743-2.181c1.48-1.201,2.243-2.84,2.543-4.697c0.289-1.784,0.168-3.668,0.875-5.364
			c0.54-1.295,1.571-2.303,2.771-2.998c2.963-1.715,6.449-1.387,9.573-0.319c1.881,0.643,3.679,1.509,5.489,2.324
			c1.861,0.838,3.745,1.625,5.659,2.335c3.983,1.478,8.099,2.617,12.313,3.195c3.722,0.51,7.795,0.715,11.326-0.79
			c2.92-1.245,5.477-4.239,5.291-7.561c-0.052-0.922-0.288-1.759-0.727-2.574c-0.184-0.342-0.55-0.684-0.97-0.617
			c-0.387,0.061-0.54,0.454-0.441,0.813c0.859,3.132-1.227,6.392-3.998,7.739c-3.269,1.588-7.083,1.322-10.587,0.88
			c-3.957-0.498-7.827-1.551-11.576-2.894c-1.836-0.658-3.646-1.388-5.433-2.168c-1.755-0.766-3.49-1.583-5.293-2.232
			c-3.259-1.172-6.811-1.857-10.171-0.67c-1.402,0.496-2.698,1.248-3.729,2.332c-1.162,1.222-1.731,2.763-1.968,4.408
			c-0.247,1.715-0.119,3.534-0.775,5.167c-0.599,1.492-1.878,2.548-3.293,3.24c-3.046,1.492-6.681,1.408-9.946,0.84
			c-3.335-0.58-6.435-1.789-9.525-3.128c-3.204-1.389-6.56-2.773-9.212-5.098c-0.606-0.532-1.192-1.077-1.732-1.677
			C181.299,378.224,181.17,378.527,181.249,378.634L181.249,378.634z"/>
		<g id="Bottom_1_">
			<g>
				<path style="fill:#263238;" d="M408.841,374.579c1.055,2.113,1.289,4.086,1.195,5.857c-0.095,1.771-1.158,4.059-0.676,8.058
					c0.483,3.998,1.389,5.249,1.814,8.072c0.425,2.822,0.089,4.815-1.559,7.501c-1.648,2.685-5.3,4.815-12.494,4.557
					c-5.817-0.209-8.163-3.191-8.291-6.616L408.841,374.579z"/>
				<path id="XMLID_51_" style="fill:#407bff;" d="M407.153,366.295c0.217,0.393,0.163,1.302,0.349,2.26
					c0.216,1.346,0.619,2.635,0.94,3.957c0.085,0.349,0.165,0.7,0.239,1.052c0.562,2.668-0.007,5.431,0.036,8.157
					c0.051,3.226,0.957,6.366,1.683,9.509c1.305,5.649,1.515,9.433-3.431,13.35c-2.607,2.065-5.461,2.139-8.768,2.226
					c-2.508,0.066-5.796-0.669-7.282-1.763c-2.119-1.56-2.093-2.871-2.109-3.374c-0.194-6.009,1.97-12.992,2.41-18.988
					c0.114-1.558,0.267-3.318,0.11-4.863c-0.202-1.988-0.895-3.957-1.112-5.968c-0.081-0.75-0.126-1.563,0.278-2.199
					c0.541-0.853,1.668-1.074,2.67-1.205c2.631-0.345,5.272-0.61,7.918-0.796c0.628-0.044,1.33-0.059,1.798,0.361
					c0.514,0.462,0.528,1.241,0.662,1.918c0.135,0.677,0.638,1.444,1.316,1.316c0.447-0.085,0.734-0.547,0.803-0.997
					c0.069-0.45,0.255-3.923,0.241-4.378C405.904,365.87,406.836,365.719,407.153,366.295z"/>
			</g>
			<g>
				<path id="XMLID_50_" style="fill:#263238;" d="M319.718,386.222c-0.421,0.795-0.37,2.32,0.051,3.303
					c0.421,0.983,5.343,4.027,12.155,3.845c6.812-0.183,11.589-2.731,14.249-4.341c2.66-1.61,5.369-1.821,8.742-1.877
					c3.372-0.056,7.311-1.267,8.461-2.803c0.773-1.937-0.034-4.54-0.034-4.54L319.718,386.222z"/>
				<path id="XMLID_49_" style="fill:#407bff;" d="M344.339,366.107c-0.283,0.466-0.482,0.994-0.708,1.495
					c-0.827,1.839-2.128,3.462-3.741,4.671c-2.26,1.694-4.962,2.916-7.521,4.056c-1.672,0.744-3.427,0.957-5.121,1.551
					c-1.843,0.646-3.837,1.387-5.511,2.419c-2.739,1.689-3.266,6.19-0.301,8.096c2.558,1.644,9.385,3.59,16.699,1.836
					c3.984-0.957,8.528-4.988,13.714-5.183c3.299-0.124,9.553-0.796,11.772-3.207c0.816-3.603-0.075-4.628-0.81-7.693
					c-0.413-1.725-0.582-3.499-0.619-5.269c-0.02-0.934,0.616-3.612-1.34-3.936l-0.201,2.005c0,0-0.368,0.68-2.404,1.039
					c-0.658,0.116-1.177,0.979-1.535,1.771c-0.276,0.609-0.564,1.387-1.232,1.373c-0.455-0.01-0.829-0.384-1.019-0.797
					c-0.191-0.413-0.247-0.874-0.38-1.309c-0.439-1.429-1.698-2.491-3.082-3.055c-1.173-0.478-2.377-0.565-3.612-0.757
					c-0.94-0.146-1.703-0.547-2.535,0.246C344.648,365.65,344.483,365.87,344.339,366.107z"/>
			</g>
			<g>
				<path id="XMLID_48_" style="fill:#d1dee6;" d="M396.083,212.181c2.513,24.593,3.52,36.278,6.742,85.337
					c0,0,4.063,13.626,4.92,28.202c0.7,11.906,2.391,47.802,2.391,47.802s-9.598,7.882-20.715,4.235c0,0-10.056-52.74-13.561-69.198
					c-3.363-15.795-6.768-35.65-6.768-35.65l-1.582,24.609c0,0,0.448,9.797,0.138,24.433c-0.166,7.832-3.938,50.185-3.938,50.185
					s-13.466,6.121-22.557-1.736c0,0-0.664-68.69-0.799-75.775c-0.155-8.077,1.24-89.381,1.24-89.381L396.083,212.181z"/>
				<path id="XMLID_47_" style="opacity:0.15;" d="M396.083,212.181c2.513,24.593,3.52,36.278,6.742,85.337
					c0,0,4.063,13.626,4.92,28.202c0.7,11.906,2.391,47.802,2.391,47.802s-9.598,7.882-20.715,4.235c0,0-10.056-52.74-13.561-69.198
					c-3.363-15.795-6.768-35.65-6.768-35.65l-1.582,24.609c0,0,0.448,9.797,0.138,24.433c-0.166,7.832-3.938,50.185-3.938,50.185
					s-13.466,6.121-22.557-1.736c0,0-0.664-68.69-0.799-75.775c-0.155-8.077,1.24-89.381,1.24-89.381L396.083,212.181z"/>
				<path style="opacity:0.25;" d="M369.093,272.909l-6.055-33.485c0,0-10.641-0.93-16.517-6.863c0,0,1.047,5.816,14.424,9.305
					l5.423,27.948l1.145,27.703L369.093,272.909z"/>
				<path style="opacity:0.25;" d="M409.829,367.038c-4.969,4.207-10.093,5.322-14.766,5.322c0,0,9.174-1.363,14.665-7.419
					L409.829,367.038z"/>
				<path style="opacity:0.25;" d="M364.151,367.145c0,0-9.378,3.275-17.305,0.772c0,0,6.116,4.111,17.173,0.734L364.151,367.145z"
					/>
			</g>
		</g>
		<g id="Arm_2_">
			<path style="fill:#e4897b;" d="M339.961,143.402c-3.935,5.633-15.864,27.882-18.934,34.465l-20.876-16.666
				c-1.722-2.193-1.71-6.773-4.66-11.112c-3.262-4.798-1.94-9.522-4.277-8.883c-1.298,0.355-2.068,2.008-2.055,3.422
				c0.026,2.774,1.319,6.254,0.234,6.037c-1.629-0.577-2.853-2.428-5.021-5.194c-0.899-1.147-3.038-5.74-4.17-7.783
				c-0.728-1.313-2.565-1.529-3.2-0.207c-0.304,0.634-0.509,2.101-0.806,2.704c-0.198,0.403-0.892,0.945-1.24,1.255
				c-0.453,0.403-0.952,0.679-1.288,1.204c-0.895,1.398-0.062,2.922-0.397,4.417c-0.685,3.062,0.321,6.164,1.787,8.84
				c0.658,1.202,1.301,2.458,1.991,3.613c1.449,2.424,3.637,4.502,5.79,6.303c1.972,1.65,4.339,2.556,6.254,4.306
				c2.034,1.858,7.36,8.106,11.492,12.606c6.83,7.438,12.854,14.338,15.011,15.734c5.333,3.451,10.252,3.987,16.096-2.835
				c7.028-8.205,20.064-29.095,20.064-29.095l2.801-28.81C354.558,137.725,344.662,136.672,339.961,143.402z"/>
			<path style="fill:#263238;" d="M355.253,137.664c-6.189-0.943-11.421,0.226-15.292,4.653
				c-3.871,4.427-14.493,26.027-16.076,27.952c-1.583,1.924-3.033,2.742-3.193,4.399c-0.16,1.657,0.735,2.358,0.735,2.358
				c2.903,0.458,12.059,15.26,8.698,20.282l-1.563,1.361c0,0,1.816,1.622,3.92,0c2.104-1.622,4.608-6.383,7.479-10.502
				c2.871-4.119,15.292-21.07,15.292-21.07V137.664z"/>
			<path style="fill:#407bff;" d="M321.426,177.026l-1.114,0.271c0,0,3.855,4.213,4.959,12.538c0.607,4.578-0.077,9.87-1.41,11.114
				c0,0,1.363,0.512,3.602-1.058c2.239-1.57,3.445-2.776,3.445-2.776s1.67-4.864-1.213-11.008
				C326.797,179.927,323.722,177.699,321.426,177.026z"/>
		</g>
		<g id="Pencil_1_">
			<g id="XMLID_37_">
				<g id="XMLID_38_">
					<path id="XMLID_46_" style="fill:#FFA8A7;" d="M293.844,326.602l-22.701,46.26c-0.66,1.345-2.65,1.087-2.945-0.383
						l-10.185-50.818L293.844,326.602z"/>
					<path id="XMLID_45_" style="fill:#455A64;" d="M268.198,372.48c0.294,1.469,2.284,1.728,2.945,0.382l4.432-9.032l0,0
						c-3.037,1.165-6.471,0.535-8.896-1.632l-0.659-0.589L268.198,372.48z"/>
					<path id="XMLID_44_" style="fill:#d1dee6;" d="M285.958,106.092l-0.61,4.73l-0.76,5.705L258.01,321.658
						c3.242,4.816,8.581,7.728,14.208,9.024c8.562,2.001,17.819,0.285,21.603-4.084l26.557-205.008l1.412-10.91
						C320.483,117.692,284.744,113.144,285.958,106.092z"/>
					<path id="XMLID_43_" style="opacity:0.5;fill:#bbc8fc;" d="M285.958,106.092l-0.61,4.73l-0.76,5.705L258.01,321.658
						c3.242,4.816,8.581,7.728,14.208,9.024c8.562,2.001,17.819,0.285,21.603-4.084l26.557-205.008l1.412-10.91
						C320.483,117.692,284.744,113.144,285.958,106.092z"/>
					<path id="XMLID_42_" style="fill:#EBEBEB;" d="M283.568,124.091l-1.35,10.565c-0.493,3.05,5.781,5.854,13.226,7.501
						c9.883,2.214,22.002,0.996,22.662-3.044l1.009-7.786l0.312-2.79c-0.66,4.04-12.782,5.266-22.665,3.052
						c-7.131-1.588-13.21-4.263-13.208-7.165l0.003-0.032C283.534,124.296,283.543,124.201,283.568,124.091z"/>
					<path id="XMLID_41_" style="fill:#d1dee6;" d="M283.255,126.731c-1.159,7.08,34.706,11.532,35.865,4.452l1.385-10.571
						c-1.159,7.08-37.02,2.628-35.861-4.452L283.255,126.731z"/>
					<path id="XMLID_40_" style="fill:#EBEBEB;" d="M285.958,106.092l-1.37,10.436c-1.188,6.943,33.383,11.531,35.789,5.062
						c0.057-0.107,0.086-0.248,0.114-0.389l1.298-10.522C320.483,117.692,284.744,113.144,285.958,106.092z"/>
					<path id="XMLID_39_" style="opacity:0.1;" d="M320.377,121.59l1.412-10.91c-0.59,3.169-8.21,4.619-16.363,3.885
						l-28.069,216.938l-6.215,41.36l22.701-46.26l-0.025-0.003c0,0,0.001-0.001,0.001-0.001L320.377,121.59z"/>
					<path style="fill:#ffa1a1;" d="M327.646,65.504c0.026-0.119,0.069-0.233,0.085-0.355c0.581-4.59-6.972-9.327-16.872-10.581
						c-9.885-1.252-18.369,1.443-18.973,6.02c-0.002,0.005-0.005,0.009-0.006,0.014l-5.927,45.492
						c-0.514,3.018,5.68,5.826,13.056,7.504c9.874,2.246,22.036,1.097,22.775-2.921c0.023-0.008,0.023-0.008,0.027-0.04
						l5.783-44.438c0.026-0.204,0.04-0.4,0.055-0.605C327.65,65.562,327.646,65.534,327.646,65.504z"/>
					<path style="opacity:0.1;" d="M312.979,54.901l-7.558,59.666c8.076,0.663,15.781-0.719,16.364-3.891
						c0.023-0.008,0.023-0.008,0.027-0.04l5.783-44.438c0.026-0.204,0.04-0.4,0.055-0.605c0.001-0.03-0.003-0.059-0.003-0.089
						c0.026-0.119,0.069-0.233,0.085-0.355C328.27,60.894,321.812,56.517,312.979,54.901z"/>
					<path style="fill:#FFA8A7;" d="M327.731,65.149c-0.581,4.59-9.078,7.294-18.978,6.04c-9.9-1.254-17.453-5.991-16.872-10.581
						c0.582-4.59,9.078-7.294,18.978-6.04C320.758,55.822,328.312,60.559,327.731,65.149z"/>
				</g>
			</g>
		</g>
		<g id="Chest_1_">
			<g>
				<path style="fill:#263238;" d="M397.276,216.943c0,0,0.579,4.44-0.153,5.577c-0.732,1.136-14.353,4.749-32.058,2.994
					c-17.705-1.755-23.061-6.396-23.686-7.43c-0.625-1.034-0.51-3.436,0-6.055L397.276,216.943z"/>
			</g>
			<path id="XMLID_36_" style="fill:#407bff;" d="M340.923,159.728c0.953-16.325,8.111-22.26,15.396-22.087l19.127-1.283
				c4.091,1.065,16.872,4.134,22.441,5.799c5.568,1.665,5.627,14.163,4.329,22.429c-1.298,8.267-4.032,14.568-4.788,28.477
				c0.22,13.17,3.571,20.108,0.323,23.598c-11.901,7.546-44.047,5.052-56.62-2.522c-2.657-1.311,0.078-11.315-0.178-19.422
				C340.514,180.819,340.617,164.966,340.923,159.728z"/>
			<path style="fill:#263238;" d="M398.328,142.317c6.723,0.715,8.236,1.919,10.214,5.016c1.979,3.097,5.737,15.318,6.439,22.026
				c-3.944,11.181-19.859,6.041-19.859,6.041L398.328,142.317z"/>
			<path style="fill:#FAFAFA;" d="M360.869,137.219c0,0-6.571,5.956-4.382,11.534c2.189,5.578,11.686,6.549,19.092,1.258
				c7.405-5.291,6.76-11.476,6.76-11.476l-2.789-0.868c0,0-0.369,2.376-1.534,3.779c-1.165,1.404-15.93,7.312-16.227,8.999
				c0,0-1.835-4.251-1.949-5.899c-0.184-2.644,0.949-6.169,0.949-6.169L360.869,137.219z"/>
		</g>
		<g id="Head_1_">
			<g id="XMLID_34_">
				<path style="fill:#263238;" d="M347.613,98.566c-0.179,3.156,0.192,5.44,2.506,7.623c4.116,3.884,8.441,7.587,13.203,10.663
					c2.389,1.543,4.885,2.925,7.491,4.065c2.763,1.209,5.248,1.504,8.206,1.939l-0.784,7.088c0,0,0.945-1.838,2.217-4.021
					c1.096-1.88,5.772-11.491,5.772-11.491c1.841-3.782,4.078-7.714,4.131-12.045c0.035-2.848-1.224-5.898-3.773-7.169
					c0.109-5.929-5.061-10.707-9.78-12.456c-3.987-1.478-8.512-2.033-12.757-1.509c-4.402,0.543-8.369,2.188-11.633,5.225
					C350.663,88.105,348.023,91.321,347.613,98.566z"/>
				<path style="fill:#e4897b;" d="M374.709,97.054c0.359,2.446,1.518,5.497,4.093,8.01c-0.556,2.838-1.114,5.743-0.69,8.604
					c0.091,0.613,0.231,1.232,0.552,1.763c0.32,0.531,0.847,0.966,1.462,1.047c0.827,0.108,1.199-0.378,1.492-1.015
					c0.378-0.822,0.916-1.579,1.402-2.349c0.234-0.372,0.499-0.603,0.791-0.891c1.331-1.097,5.16-2.311,6.67,1.773
					c1.563,4.23-2.058,9.508-5.123,10.178c-5.283,1.155-6.212-2.448-6.212-2.448l-2.046,18.504
					c-2.988,2.792-12.037,6.899-15.31,10.216c-1.247-2.455-4.189-7.043-1-12.069l0.095-6.099c0,0-4.957-0.025-8.373-0.89
					c-2.667-0.675-4.451-3.241-5.428-7.394c-1.906-8.106,0.086-18.946,1.362-23.807c0.98-3.734,2.898-6.431,4.411-7.747
					c0.463-0.403,1.161-0.3,1.454,0.238c0.697,1.279,2.597,3.05,5.516,3.647c3.207,0.657,8.484,0.179,12.522-0.822
					C373.451,95.23,374.544,95.929,374.709,97.054z"/>
				<path id="XMLID_35_" style="fill:#7d4f4f;" d="M360.883,132.278c4.829-0.163,8.298-0.631,11.081-1.903
					c2.042-0.933,3.856-2.547,4.438-3.671c0,0-0.348,1.901-3.06,4.287c-3.059,2.691-12.487,3.027-12.487,3.027L360.883,132.278z"/>
			</g>
			<g id="XMLID_27_">
				<path id="XMLID_33_" style="fill:#263238;" d="M365.808,111.162c-0.085,0.949,0.587,1.782,1.5,1.86
					c0.913,0.079,1.722-0.626,1.807-1.575c0.085-0.949-0.587-1.781-1.5-1.86C366.702,109.509,365.893,110.213,365.808,111.162z"/>
				<path id="XMLID_32_" style="fill:#263238;" d="M367.774,104.078c1.694,0.712,3.083,1.736,4.2,3.039
					c0.823-1.212,0.55-2.876-0.61-3.715C370.204,102.562,368.596,102.865,367.774,104.078z"/>
				<g>
					<path id="XMLID_31_" style="fill:#7d4f4f;" d="M364.732,121.318l-6.032,1.271c0.315,1.722,1.921,2.833,3.587,2.482
						C363.953,124.72,365.048,123.039,364.732,121.318z"/>
					<path style="fill:#ffa1a1;" d="M364.062,122.64c-1.428,0-2.561,1.081-2.743,2.46c0.315,0.038,0.639,0.041,0.968-0.028
						c1.186-0.25,2.071-1.178,2.375-2.31C364.463,122.716,364.275,122.64,364.062,122.64z"/>
				</g>
				<path id="XMLID_30_" style="fill:#263238;" d="M351.762,103.988c1.754,0.463,3.14,1.422,4.198,2.825
					c0.791-1.122,0.492-2.663-0.666-3.443C354.134,102.589,352.553,102.866,351.762,103.988z"/>
				<path id="XMLID_29_" style="fill:#263238;" d="M351.222,109.23c-0.085,0.955,0.591,1.793,1.511,1.872
					c0.919,0.079,1.733-0.63,1.819-1.585c0.085-0.955-0.591-1.793-1.51-1.873C352.121,107.565,351.307,108.274,351.222,109.23z"/>
				<polygon id="XMLID_28_" style="fill:#7d4f4f;" points="360.788,107.18 359.382,119.281 353.37,116.5 				"/>
			</g>
			<g>
				<path style="fill:#EBEBEB;" d="M361.788,150.445c2.188-1.16,4.641-4.42,6.547-1.633c1.963,2.87,3.219,5.96,4.774,5.602
					c1.556-0.358,6.909-4.786,9.089-8.776c1.758-3.217,1.955-7,1.955-7s-1.67-2.128-3.067-3.787
					c-1.543-1.833-1.788-2.312-3.118-2.489l-0.498,4.568c0,0-0.444,2.719-3.113,4.378
					C370.462,143.731,364.886,144.663,361.788,150.445z"/>
				<path style="fill:#EBEBEB;" d="M361.788,150.445c-1.181-1.223-4.73-4.9-6.817-4.441c-2.082,0.458-4.348,4.357-4.34,3.256
					c0.008-1.102,2.465-7.656,4.161-9.881c1.697-2.225,4.667-4.376,6.051-4.528l-0.055,3.526c0,0-1.092,3.147-1.073,5.026
					C359.744,146.334,361.642,148.629,361.788,150.445z"/>
			</g>
		</g>
		<g id="Hand_1_">
			<g>
				<g>
					<path style="fill:#e4897b;" d="M396.965,136.127c-1.268-2.749-2.586-5.57-2.812-9.361c-0.227-3.791-2.468-7.654-3.185-9.208
						c-0.717-1.554-2.443-3.96-3.686-6.183s-1.616-2.846-3.846-3.663c-3.064-1.122-5.454-2.082-6.762-1.934
						c-1.309,0.148-1.424,0.967-0.551,2.263c0.846,1.257,3.088,1.982,3.755,2.327c0.666,0.345,2.082,1.301,2.082,1.301l2.126,4.857
						c0,0-5.139-0.004-6.21,0.345c-1.071,0.349-2.372,2.714-2.203,4.182c0,0-2.051,0.897-1.67,2.823c0,0-1.383,1.244-0.841,2.576
						c0.542,1.331,1.837,3.198,2.347,3.832c0.51,0.635,2.877,1.21,2.877,1.21s1.469,3.464,2.938,5.043
						c1.47,1.58,2.601,1.706,3.979,4.694L396.965,136.127z"/>
					<path style="fill:#7d4f4f;" d="M381.768,116.558c-1.079-0.724-1.193-1.569-2.383-1.354c-1.19,0.215-0.998,1.563-0.998,1.563
						L381.768,116.558z"/>
					<path style="fill:#7d4f4f;" d="M375.687,121.172c0,0,1.066-0.659,2.705-1.112c0.887-0.245,2.694-0.529,2.694-0.529
						s-2.01-0.214-3.599,0.176c-1.527,0.375-1.76,0.503-1.776,0.513c-0.051,0.295-0.068,0.578-0.039,0.834L375.687,121.172z"/>
					<path style="fill:#7d4f4f;" d="M375.217,122.815c-0.509,0.109-0.937,0.247-1.247,0.363c-0.023,0.216-0.008,0.585,0.042,0.835
						c0.821-0.803,3.483-1.365,3.483-1.365S376.289,122.585,375.217,122.815z"/>
					<path style="fill:#7d4f4f;" d="M378.715,132.223c-0.329-1.149-1.133-3.402-1.702-4.356c-0.568-0.955-1.983-1.091-2.384-0.676
						c-0.401,0.415,1.222,0.653,1.654,0.947C376.715,128.432,378.135,130.766,378.715,132.223z"/>
					<path style="fill:#7d4f4f;" d="M385.471,116.653c0,0-0.672-1.453-1.921-3.797c-1.249-2.344-1.204-2.028-2.727-2.636
						c-1.423-0.568-4.418-1.689-5.055-2.791c0.09,0.19,0.206,0.394,0.354,0.612c0.846,1.257,3.088,1.982,3.755,2.327
						c0.666,0.345,2.082,1.301,2.082,1.301l2.188,4.998L385.471,116.653z"/>
				</g>
				<path style="fill:#e4897b;" d="M396.965,136.127c4.123,7.392,15.573,25.452,17.746,32.197c1.503,4.664,0.245,14.63-2.753,17.778
					c-2.998,3.149-9.402,0.403-13.928-5.35c-3.906-4.965-5.965-15.549-8.052-23.197c-2.086-7.647-4.674-16.324-4.674-16.324
					L396.965,136.127z"/>
			</g>
			<g>
				<path style="fill:#7d4f4f;" d="M396.965,136.127c-0.877-1.86-1.75-3.74-2.277-5.74c-0.268-0.997-0.461-2.015-0.558-3.044
					c-0.074-1.032-0.201-2.042-0.473-3.034c-0.51-1.988-1.369-3.866-2.297-5.7c-0.837-1.889-1.998-3.578-3.092-5.33
					c-0.552-0.869-1.066-1.774-1.572-2.664c-0.505-0.889-1.097-1.734-2.002-2.194c-0.885-0.472-1.888-0.762-2.847-1.133
					c-0.967-0.351-1.934-0.704-2.914-0.994c-0.958-0.257-2.038-0.579-2.884-0.165c-0.411,0.2-0.368,0.712-0.16,1.151
					c0.211,0.446,0.479,0.87,0.85,1.187c0.744,0.657,1.694,1.071,2.633,1.472c0.99,0.397,1.819,1.026,2.687,1.583l0.042,0.027
					l0.021,0.049l2.113,4.863l0.099,0.227l-0.249,0.002c-1.858,0.012-3.733,0.013-5.568,0.208c-0.949-0.002-1.536,0.793-2,1.565
					c-0.44,0.786-0.778,1.692-0.712,2.576l0.007,0.095l-0.086,0.042c-0.501,0.242-0.972,0.615-1.284,1.079
					c-0.32,0.465-0.423,1.045-0.318,1.599l0.012,0.066l-0.051,0.049c-0.591,0.572-1.081,1.411-0.885,2.226
					c0.268,0.794,0.737,1.564,1.19,2.301c0.233,0.369,0.475,0.734,0.727,1.09c0.271,0.35,0.47,0.742,0.85,0.931
					c0.748,0.415,1.603,0.663,2.441,0.888l0.046,0.012l0.018,0.042c0.397,0.92,0.831,1.828,1.314,2.708
					c0.489,0.874,1.009,1.743,1.7,2.469c0.681,0.737,1.534,1.297,2.217,2.046c0.688,0.744,1.183,1.638,1.601,2.551
					c-0.432-0.907-0.941-1.791-1.636-2.518c-0.688-0.732-1.55-1.278-2.251-2.012c-0.712-0.726-1.25-1.594-1.756-2.465
					c-0.498-0.879-0.953-1.779-1.361-2.706l0.064,0.055c-0.854-0.225-1.706-0.463-2.499-0.896c-0.427-0.215-0.657-0.65-0.918-0.984
					c-0.257-0.359-0.502-0.724-0.74-1.096c-0.465-0.753-0.932-1.491-1.231-2.361c-0.221-0.952,0.314-1.843,0.945-2.465l-0.038,0.115
					c-0.121-0.606-0.007-1.272,0.346-1.787c0.348-0.517,0.834-0.907,1.391-1.181l-0.078,0.137c-0.076-0.991,0.279-1.916,0.732-2.745
					c0.236-0.413,0.514-0.807,0.867-1.145c0.184-0.161,0.374-0.324,0.624-0.417c0.242-0.092,0.481-0.122,0.715-0.157
					c1.874-0.21,3.737-0.218,5.607-0.241l-0.15,0.229l-2.14-4.851l0.063,0.076c-0.862-0.55-1.702-1.169-2.633-1.538
					c-0.943-0.411-1.918-0.833-2.724-1.55c-0.412-0.36-0.706-0.826-0.929-1.31c-0.105-0.249-0.2-0.521-0.179-0.828
					c0.011-0.308,0.219-0.622,0.486-0.753c0.524-0.274,1.088-0.264,1.613-0.2c0.527,0.069,1.031,0.205,1.529,0.35
					c0.994,0.3,1.962,0.659,2.928,1.016c0.957,0.377,1.947,0.664,2.882,1.167c0.962,0.494,1.6,1.419,2.096,2.309
					c0.507,0.903,1.005,1.793,1.553,2.666c1.076,1.743,2.249,3.474,3.074,5.366c0.919,1.842,1.777,3.739,2.279,5.752
					c0.259,1.002,0.371,2.044,0.43,3.067c0.081,1.023,0.258,2.038,0.51,3.034C395.271,132.363,396.115,134.254,396.965,136.127z"/>
			</g>
		</g>
	</g>
	<g id="Idea_2_">
		<g id="Idea_3_">
			<g id="Light_2_">
				<g id="XMLID_7_">
					<g id="XMLID_8_">
						<g id="XMLID_25_">
							<path id="XMLID_26_" style="fill:#407bff;" d="M396.093,88.911c-0.505,1.104-1.81,1.59-2.915,1.085
								c-1.104-0.505-1.59-1.81-1.085-2.915c0.505-1.104,1.81-1.59,2.914-1.085C396.112,86.502,396.598,87.807,396.093,88.911z"/>
						</g>
						<g id="XMLID_23_">
							<path id="XMLID_24_" style="fill:#455A64;" d="M391.635,87.031c-0.974-1.37-0.407-2.61,1.267-2.769
								c1.674-0.159,3.821,0.823,4.795,2.194c0.974,1.37,0.407,2.61-1.266,2.769S392.61,88.401,391.635,87.031z"/>
						</g>
						<g id="XMLID_21_">
							<path id="XMLID_22_" style="fill:#407bff;" d="M391.892,86.274c-1.004-1.412-0.42-2.69,1.305-2.854
								c1.725-0.163,3.938,0.849,4.942,2.261c1.004,1.412,0.42,2.69-1.306,2.854C395.109,88.699,392.896,87.687,391.892,86.274z"/>
						</g>
						<g id="XMLID_19_">
							<path id="XMLID_20_" style="fill:#455A64;" d="M392.157,85.496c-1.035-1.456-0.433-2.773,1.346-2.941
								c1.778-0.169,4.059,0.875,5.094,2.331c1.035,1.456,0.433,2.772-1.346,2.941C395.472,87.995,393.192,86.952,392.157,85.496z"
								/>
						</g>
						<g id="XMLID_17_">
							<path id="XMLID_18_" style="fill:#407bff;" d="M392.429,84.693c-1.067-1.5-0.446-2.858,1.387-3.031
								c1.833-0.174,4.184,0.902,5.251,2.402c1.067,1.501,0.446,2.858-1.387,3.032S393.496,86.194,392.429,84.693z"/>
						</g>
						<g id="XMLID_15_">
							<path id="XMLID_16_" style="fill:#455A64;" d="M392.744,83.864c-1.089-1.531-0.455-2.916,1.415-3.093
								c1.87-0.177,4.269,0.92,5.358,2.451s0.455,2.916-1.415,3.093C396.231,86.492,393.833,85.395,392.744,83.864z"/>
						</g>
						<g id="XMLID_13_">
							<path id="XMLID_14_" style="fill:#d1dee6;" d="M406.077,61.801c-5.26-2.407-11.476-0.093-13.883,5.167
								c-3.459,7.561,2.205,11.671,0.811,14.719c-0.222,0.486-0.124,1.118,0.349,1.782c0.944,1.328,3.025,2.28,4.647,2.126
								c0.811-0.077,1.354-0.416,1.576-0.901h0c1.394-3.048,8.208-1.449,11.667-9.01C413.651,70.423,411.338,64.208,406.077,61.801z
								"/>
						</g>
						<g id="XMLID_11_" style="opacity:0.6;">
							<path id="XMLID_12_" style="fill:#bbc8fc;" d="M406.077,61.801c-5.26-2.407-11.476-0.093-13.883,5.167
								c-3.459,7.561,2.205,11.671,0.811,14.719c-0.222,0.486-0.124,1.118,0.349,1.782c0.944,1.328,3.025,2.28,4.647,2.126
								c0.811-0.077,1.354-0.416,1.576-0.901h0c1.394-3.048,8.208-1.449,11.667-9.01C413.651,70.423,411.338,64.208,406.077,61.801z
								"/>
						</g>
						<g id="XMLID_9_">
							<path id="XMLID_10_" style="fill:#d1dee6;" d="M394.119,83.32c-0.71-0.999-0.297-1.902,0.923-2.018
								c1.22-0.116,2.785,0.6,3.495,1.599c0.71,0.999,0.297,1.902-0.923,2.018C396.394,85.035,394.829,84.319,394.119,83.32z"/>
						</g>
					</g>
				</g>
				<g id="XMLID_1_">
					<path id="XMLID_2_" style="fill:#bbc8fc;" d="M397.707,83.455c-0.175-0.08-0.255-0.286-0.178-0.464
						c0.045-0.104,1.122-2.569,3.158-5.137c0.395-0.498,0.787-0.932,1.167-1.297c-0.222-0.216-0.438-0.475-0.642-0.782
						c-0.364-0.547-0.618-1.107-0.777-1.641c-0.507,0.229-1.098,0.403-1.749,0.485c-0.366,0.046-0.703,0.052-1.012,0.026
						c-0.027,0.526-0.099,1.107-0.218,1.731c-0.612,3.219-1.773,5.646-1.822,5.748c-0.086,0.177-0.282,0.239-0.475,0.165
						c-0.176-0.085-0.251-0.298-0.165-0.475c0.012-0.024,1.17-2.448,1.764-5.572c0.126-0.664,0.19-1.239,0.208-1.728
						c-0.841-0.249-1.371-0.781-1.56-1.353c-0.189-0.572,0.001-1.133,0.471-1.397c0.357-0.2,0.737-0.19,1.048,0.034
						c0.463,0.334,0.72,1.084,0.756,2.133c0.273,0.029,0.578,0.026,0.915-0.016c0.653-0.083,1.218-0.262,1.681-0.486
						c-0.13-0.88,0.014-1.626,0.359-2.032c0.298-0.35,0.733-0.442,1.163-0.245c0.429,0.196,0.644,0.585,0.575,1.04
						c-0.081,0.526-0.551,1.123-1.302,1.6c0.133,0.497,0.367,1.041,0.731,1.589c0.188,0.282,0.386,0.515,0.586,0.702
						c0.816-0.658,1.552-0.955,2.108-0.823c0.369,0.092,0.629,0.37,0.711,0.771c0.108,0.529-0.193,1.039-0.749,1.27
						c-0.556,0.232-1.306,0.177-2.044-0.295c-0.358,0.334-0.751,0.758-1.172,1.288c-1.978,2.496-3.052,4.954-3.062,4.978
						c-0.078,0.18-0.287,0.263-0.468,0.185C397.711,83.457,397.709,83.456,397.707,83.455z M396.466,72.349
						c-0.055-0.025-0.127-0.028-0.241,0.036c-0.256,0.144-0.175,0.46-0.144,0.555c0.105,0.319,0.403,0.633,0.876,0.817
						c-0.055-0.79-0.252-1.241-0.447-1.381C396.497,72.365,396.482,72.356,396.466,72.349z M402.994,76.519
						c0.446,0.235,0.88,0.257,1.191,0.128c0.091-0.038,0.384-0.184,0.325-0.472c-0.033-0.166-0.108-0.205-0.179-0.222
						C404.098,75.898,403.628,76.044,402.994,76.519z M401.503,71.799c-0.164-0.075-0.249-0.03-0.327,0.061
						c-0.178,0.208-0.276,0.63-0.237,1.171c0.435-0.325,0.69-0.675,0.731-0.945C401.689,71.968,401.667,71.874,401.503,71.799z"/>
				</g>
			</g>
			<g>
				<g>
					<path style="fill:#E0E0E0;" d="M407.795,58.199c-0.06-0.009-0.118-0.027-0.175-0.053c-0.345-0.155-0.498-0.56-0.343-0.905
						l1.464-3.253c0.155-0.346,0.561-0.499,0.905-0.343c0.345,0.155,0.498,0.56,0.343,0.904l-1.464,3.253
						C408.395,58.09,408.092,58.245,407.795,58.199z"/>
				</g>
				<g>
					<path style="fill:#E0E0E0;" d="M400.017,56.937c-0.3-0.047-0.542-0.291-0.574-0.607l-0.36-3.549
						c-0.038-0.376,0.236-0.711,0.612-0.75c0.376-0.038,0.711,0.235,0.75,0.612l0.36,3.549c0.038,0.376-0.236,0.711-0.612,0.75
						C400.132,56.947,400.074,56.946,400.017,56.937z"/>
				</g>
				<g>
					<path style="fill:#E0E0E0;" d="M392.651,59.732c-0.174-0.027-0.338-0.122-0.449-0.275l-2.086-2.894
						c-0.221-0.307-0.152-0.734,0.155-0.955c0.307-0.221,0.735-0.151,0.955,0.154l2.086,2.894c0.221,0.307,0.152,0.734-0.155,0.955
						C393.005,59.721,392.822,59.759,392.651,59.732z"/>
				</g>
				<g>
					<path style="fill:#E0E0E0;" d="M387.669,65.837c-0.06-0.009-0.118-0.027-0.175-0.053l-3.253-1.463
						c-0.345-0.155-0.498-0.56-0.343-0.905c0.155-0.345,0.561-0.5,0.905-0.343l3.253,1.463c0.345,0.155,0.498,0.56,0.343,0.905
						C388.269,65.729,387.966,65.884,387.669,65.837z"/>
				</g>
				<g>
					<path style="fill:#E0E0E0;" d="M412.537,87.323c-0.174-0.027-0.338-0.122-0.449-0.275l-2.086-2.894
						c-0.221-0.307-0.152-0.734,0.154-0.955c0.307-0.221,0.735-0.151,0.955,0.154l2.086,2.894c0.221,0.307,0.152,0.734-0.155,0.955
						C412.891,87.311,412.709,87.349,412.537,87.323z"/>
				</g>
				<g>
					<path style="fill:#E0E0E0;" d="M418.687,79.788c-0.06-0.009-0.118-0.027-0.176-0.053l-3.253-1.463
						c-0.345-0.155-0.498-0.56-0.343-0.904c0.155-0.345,0.561-0.5,0.905-0.343l3.253,1.463c0.345,0.155,0.498,0.56,0.343,0.904
						C419.287,79.68,418.984,79.835,418.687,79.788z"/>
				</g>
				<g>
					<path style="fill:#E0E0E0;" d="M416.694,70.547c-0.3-0.047-0.543-0.291-0.574-0.607c-0.038-0.376,0.236-0.712,0.612-0.75
						l3.549-0.359c0.377-0.037,0.712,0.236,0.75,0.612c0.038,0.376-0.236,0.712-0.612,0.75l-3.549,0.359
						C416.81,70.558,416.751,70.556,416.694,70.547z"/>
				</g>
				<g>
					<path style="fill:#E0E0E0;" d="M413.9,63.18c-0.174-0.027-0.338-0.121-0.449-0.275c-0.221-0.307-0.152-0.734,0.154-0.955
						l2.894-2.086c0.307-0.221,0.735-0.151,0.955,0.154c0.221,0.307,0.152,0.734-0.154,0.955l-2.894,2.086
						C414.253,63.169,414.071,63.207,413.9,63.18z"/>
				</g>
			</g>
		</g>
		<g id="Shine_4_">
			<g>
				<path style="fill:#d1dee6;" d="M403.521,103.802c-0.214-0.108-0.309-0.362-0.217-0.584l0.169-0.412
					c0.443-1.073,0.043-2.288-0.95-2.889l-0.381-0.23c-0.206-0.123-0.281-0.385-0.173-0.599c0.108-0.214,0.363-0.309,0.585-0.218
					l0.412,0.17l0,0c1.073,0.443,2.288,0.043,2.888-0.951l0.23-0.38c0.124-0.205,0.385-0.28,0.599-0.172c0,0,0,0,0.001,0
					c0.214,0.108,0.308,0.363,0.216,0.584l-0.17,0.411c-0.442,1.074-0.043,2.288,0.951,2.888l0.381,0.231
					c0.205,0.124,0.28,0.385,0.172,0.6c-0.108,0.214-0.363,0.308-0.584,0.216l-0.412-0.17c-1.073-0.442-2.287-0.042-2.888,0.951
					l-0.23,0.381C403.997,103.834,403.735,103.91,403.521,103.802C403.521,103.802,403.521,103.802,403.521,103.802z
					 M404.042,100.134c0.313,0.477,0.494,1.027,0.525,1.596c0.477-0.313,1.027-0.494,1.596-0.525
					c-0.313-0.476-0.494-1.027-0.525-1.596C405.161,99.922,404.611,100.103,404.042,100.134z"/>
			</g>
			<g>
				<path style="fill:#d1dee6;" d="M416.297,102.251c-1.448-0.731-2.031-2.504-1.3-3.952c0.731-1.448,2.504-2.031,3.952-1.3
					c1.448,0.731,2.031,2.504,1.3,3.952C419.518,102.399,417.745,102.982,416.297,102.251z M418.536,97.817
					c-0.996-0.503-2.217-0.101-2.72,0.895c-0.503,0.997-0.102,2.217,0.895,2.72s2.217,0.101,2.72-0.896
					C419.934,99.54,419.532,98.32,418.536,97.817z"/>
			</g>
			<g>
				<g>
					<path style="fill:#d1dee6;" d="M414.829,110.589c-0.227-0.114-0.317-0.39-0.203-0.616l0.69-1.367
						c0.114-0.226,0.39-0.317,0.616-0.203c0.226,0.114,0.317,0.389,0.203,0.616l-0.69,1.367
						C415.331,110.613,415.055,110.704,414.829,110.589z"/>
				</g>
				<g>
					<path style="fill:#d1dee6;" d="M413.6,110.994l-1.367-0.69c-0.226-0.114-0.317-0.39-0.203-0.616
						c0.114-0.227,0.39-0.317,0.616-0.203l1.367,0.69c0.226,0.114,0.317,0.39,0.203,0.616
						C414.101,111.018,413.826,111.109,413.6,110.994z"/>
				</g>
				<g>
					<path style="fill:#d1dee6;" d="M413.273,113.671c-0.227-0.114-0.317-0.39-0.203-0.616l0.69-1.367
						c0.114-0.227,0.389-0.317,0.616-0.203c0.227,0.114,0.317,0.39,0.203,0.616l-0.69,1.367
						C413.775,113.694,413.5,113.785,413.273,113.671z"/>
				</g>
				<g>
					<path style="fill:#d1dee6;" d="M416.681,112.55l-1.367-0.69c-0.226-0.114-0.317-0.389-0.203-0.616
						c0.114-0.227,0.39-0.317,0.616-0.203l1.367,0.69c0.227,0.114,0.317,0.39,0.203,0.616
						C417.182,112.573,416.907,112.664,416.681,112.55z"/>
				</g>
			</g>
		</g>
		<g id="Shine_3_">
			<g>
				<path style="fill:#d1dee6;" d="M375.336,62.28c-0.227,0.079-0.476-0.03-0.571-0.251l-0.177-0.408
					c-0.463-1.064-1.614-1.621-2.737-1.326l-0.43,0.114c-0.232,0.062-0.472-0.066-0.55-0.292c-0.079-0.227,0.03-0.476,0.25-0.571
					l0.408-0.178l0,0c1.065-0.463,1.622-1.613,1.327-2.737l-0.113-0.429c-0.062-0.232,0.066-0.472,0.293-0.551
					s0.476,0.03,0.571,0.251l0.177,0.408c0.464,1.065,1.614,1.622,2.737,1.326l0.431-0.113c0.232-0.061,0.472,0.067,0.55,0.294
					c0.078,0.226-0.031,0.475-0.251,0.57l-0.408,0.177c-1.064,0.463-1.621,1.614-1.326,2.737l0.114,0.43
					C375.691,61.961,375.563,62.201,375.336,62.28z M373.063,59.354c0.56,0.107,1.082,0.359,1.512,0.733
					c0.107-0.56,0.359-1.082,0.733-1.512c-0.56-0.106-1.082-0.359-1.512-0.733C373.689,58.402,373.437,58.924,373.063,59.354z"/>
			</g>
			<g>
				<path style="fill:#d1dee6;" d="M373.501,73.871c-1.532,0.532-3.212-0.282-3.743-1.815c-0.532-1.533,0.282-3.212,1.814-3.744
					c1.533-0.532,3.212,0.282,3.744,1.815C375.848,71.659,375.034,73.339,373.501,73.871z M371.872,69.178
					c-1.054,0.366-1.615,1.522-1.249,2.577c0.366,1.054,1.522,1.615,2.576,1.249c1.055-0.366,1.616-1.522,1.25-2.577
					C374.083,69.373,372.927,68.812,371.872,69.178z"/>
			</g>
			<g>
				<g>
					<path style="fill:#d1dee6;" d="M360.705,64.884c-0.24,0.083-0.5-0.043-0.584-0.283l-0.502-1.446
						c-0.083-0.24,0.043-0.5,0.283-0.584c0.24-0.083,0.5,0.043,0.584,0.283l0.502,1.446
						C361.071,64.54,360.945,64.801,360.705,64.884z"/>
				</g>
				<g>
					<path style="fill:#d1dee6;" d="M360.141,66.048l-1.447,0.502c-0.24,0.083-0.5-0.043-0.583-0.283
						c-0.083-0.24,0.043-0.5,0.283-0.584l1.447-0.502c0.239-0.083,0.5,0.043,0.584,0.283
						C360.507,65.704,360.38,65.965,360.141,66.048z"/>
				</g>
				<g>
					<path style="fill:#d1dee6;" d="M361.836,68.145c-0.24,0.083-0.5-0.043-0.584-0.283l-0.502-1.446
						c-0.083-0.24,0.043-0.5,0.283-0.584c0.24-0.083,0.5,0.043,0.584,0.283l0.502,1.446
						C362.203,67.801,362.076,68.061,361.836,68.145z"/>
				</g>
				<g>
					<path style="fill:#d1dee6;" d="M363.401,64.917l-1.446,0.502c-0.24,0.083-0.5-0.043-0.584-0.283
						c-0.083-0.24,0.043-0.5,0.283-0.584l1.446-0.502c0.24-0.083,0.5,0.043,0.584,0.283
						C363.767,64.573,363.641,64.834,363.401,64.917z"/>
				</g>
			</g>
		</g>
	</g>
</g>
</svg>
