<?xml version="1.0" encoding="utf-8"?>
<!-- Generator: Adobe Illustrator 27.5.0, SVG Export Plug-In . SVG Version: 6.00 Build 0)  -->
<svg version="1.1" xmlns="http://www.w3.org/2000/svg" xmlns:xlink="http://www.w3.org/1999/xlink" x="0px" y="0px"
	 viewBox="0 0 500 500" style="enable-background:new 0 0 500 500;" xml:space="preserve">
<g id="Background_Complete">
	<g>
		<rect y="382.398" style="fill:#EBEBEB;" width="500" height="0.25"/>
		<rect x="416.779" y="398.494" style="fill:#EBEBEB;" width="33.122" height="0.25"/>
		<rect x="322.527" y="401.208" style="fill:#EBEBEB;" width="8.693" height="0.25"/>
		<rect x="396.586" y="389.208" style="fill:#EBEBEB;" width="19.192" height="0.25"/>
		<rect x="52.459" y="390.888" style="fill:#EBEBEB;" width="43.193" height="0.25"/>
		<rect x="104.556" y="390.888" style="fill:#EBEBEB;" width="6.333" height="0.25"/>
		<rect x="131.471" y="395.111" style="fill:#EBEBEB;" width="93.676" height="0.25"/>
		<path style="fill:#EBEBEB;" d="M237.014,337.8H43.915c-3.147,0-5.708-2.561-5.708-5.708V60.66c0-3.147,2.561-5.708,5.708-5.708
			h193.099c3.146,0,5.707,2.561,5.707,5.708v271.432C242.721,335.239,240.16,337.8,237.014,337.8z M43.915,55.203
			c-3.01,0-5.458,2.448-5.458,5.458v271.432c0,3.01,2.448,5.458,5.458,5.458h193.099c3.009,0,5.457-2.448,5.457-5.458V60.66
			c0-3.009-2.448-5.458-5.457-5.458H43.915z"/>
		<path style="fill:#EBEBEB;" d="M453.31,337.8H260.212c-3.147,0-5.707-2.561-5.707-5.708V60.66c0-3.147,2.561-5.708,5.707-5.708
			H453.31c3.148,0,5.708,2.561,5.708,5.708v271.432C459.019,335.239,456.458,337.8,453.31,337.8z M260.212,55.203
			c-3.009,0-5.457,2.448-5.457,5.458v271.432c0,3.01,2.448,5.458,5.457,5.458H453.31c3.01,0,5.458-2.448,5.458-5.458V60.66
			c0-3.009-2.448-5.458-5.458-5.458H260.212z"/>
	</g>
	<g>
		<path style="fill:#F0F0F0;" d="M156.066,304.361l-13.846,11.581l19.73,28.674l15.764-8.795
			c8.325,7.969,18.152,14.485,29.185,18.984l-1.596,17.93l34.224,6.323l4.916-17.315c11.912-0.258,23.418-2.836,34.039-7.303
			l11.583,13.847l28.671-19.73l-8.793-15.764c7.969-8.326,14.485-18.151,18.983-29.184l17.929,1.595l6.324-34.224l-17.316-4.917
			c-0.259-11.912-2.834-23.419-7.301-34.042l13.846-11.58l-19.728-28.673l-15.764,8.792c-8.326-7.965-18.151-14.485-29.185-18.982
			l1.596-17.93l-34.224-6.325l-4.918,17.317c-11.91,0.26-23.419,2.836-34.04,7.301l-11.581-13.844l-28.673,19.73l8.792,15.766
			c-7.967,8.323-14.483,18.148-18.984,29.183l-17.929-1.596l-6.324,34.223l17.318,4.918
			C149.023,282.233,151.599,293.738,156.066,304.361z M195.981,259.632c4.728-25.588,29.304-42.499,54.891-37.771
			c25.59,4.728,42.5,29.304,37.773,54.892c-4.728,25.588-29.304,42.499-54.894,37.772
			C208.165,309.796,191.253,285.219,195.981,259.632z"/>
		<path style="fill:#F0F0F0;" d="M384.886,318.829l10.819,1.999l1.553-5.473c3.766-0.082,7.403-0.897,10.761-2.309l3.661,4.378
			l9.063-6.238l-2.78-4.983c2.519-2.631,4.579-5.738,6.001-9.225l5.667,0.505l1.999-10.818l-5.473-1.554
			c-0.082-3.766-0.896-7.404-2.309-10.76l4.377-3.661l-6.237-9.064l-4.983,2.779c-2.632-2.517-5.737-4.579-9.226-6.001l0.505-5.666
			l-10.819-2l-1.553,5.474c-3.766,0.083-7.403,0.897-10.761,2.308l-3.661-4.376l-9.064,6.238l2.78,4.984
			c-2.518,2.631-4.579,5.736-6.001,9.224l-5.668-0.505l-1.999,10.819l5.474,1.554c0.081,3.765,0.896,7.403,2.307,10.76l-4.376,3.661
			l6.236,9.064l4.983-2.781c2.632,2.518,5.739,4.579,9.227,6.001L384.886,318.829z M381.94,283.076
			c1.495-8.088,9.263-13.433,17.351-11.939c8.09,1.495,13.434,9.263,11.941,17.351c-1.495,8.089-9.263,13.434-17.353,11.94
			C385.791,298.933,380.446,291.164,381.94,283.076z"/>
		<path style="fill:#F0F0F0;" d="M83.251,317.483l8.241,1.522l1.183-4.169c2.869-0.063,5.639-0.683,8.197-1.759l2.789,3.335
			l6.904-4.752l-2.117-3.796c1.919-2.004,3.488-4.371,4.571-7.027l4.316,0.384l1.523-8.241l-4.169-1.184
			c-0.063-2.869-0.683-5.64-1.759-8.197l3.335-2.789l-4.751-6.905l-3.796,2.117c-2.005-1.918-4.37-3.488-7.028-4.571l0.385-4.316
			l-8.241-1.524l-1.183,4.17c-2.869,0.063-5.639,0.683-8.197,1.758l-2.789-3.334l-6.904,4.751l2.117,3.796
			c-1.918,2.004-3.488,4.37-4.571,7.027l-4.317-0.384l-1.523,8.241l4.17,1.184c0.062,2.868,0.682,5.639,1.757,8.197l-3.334,2.789
			l4.75,6.905l3.796-2.118c2.005,1.918,4.372,3.488,7.029,4.571L83.251,317.483z M81.007,290.248
			c1.138-6.161,7.056-10.233,13.217-9.095c6.162,1.139,10.234,7.056,9.096,13.217c-1.139,6.162-7.056,10.234-13.218,9.095
			C83.941,302.328,79.869,296.41,81.007,290.248z"/>
		<path style="fill:#F0F0F0;" d="M230.403,133.856l6.235,1.152l0.895-3.155c2.17-0.047,4.267-0.517,6.202-1.331l2.11,2.523
			l5.224-3.595l-1.602-2.872c1.452-1.517,2.639-3.307,3.459-5.317l3.266,0.291l1.152-6.235l-3.154-0.896
			c-0.047-2.171-0.516-4.267-1.331-6.202l2.523-2.11l-3.595-5.224l-2.872,1.602c-1.517-1.451-3.307-2.639-5.317-3.459l0.291-3.266
			l-6.235-1.153l-0.895,3.155c-2.171,0.048-4.267,0.517-6.202,1.33l-2.11-2.522l-5.224,3.595l1.602,2.872
			c-1.451,1.516-2.639,3.306-3.458,5.317l-3.266-0.291l-1.152,6.235l3.155,0.895c0.047,2.17,0.516,4.267,1.33,6.202l-2.522,2.11
			l3.594,5.224l2.872-1.603c1.517,1.451,3.308,2.639,5.318,3.458L230.403,133.856z M228.705,113.25
			c0.861-4.662,5.339-7.742,10-6.881c4.662,0.861,7.743,5.338,6.882,10c-0.862,4.662-5.339,7.743-10.001,6.881
			C230.925,122.389,227.844,117.912,228.705,113.25z"/>
		<path style="fill:#F0F0F0;" d="M384.083,197.495l4.159,0.768l0.597-2.104c1.448-0.031,2.846-0.345,4.136-0.887l1.407,1.683
			l3.484-2.398l-1.068-1.915c0.968-1.011,1.76-2.206,2.307-3.546l2.178,0.194l0.768-4.158l-2.104-0.597
			c-0.031-1.448-0.344-2.846-0.888-4.136l1.683-1.407l-2.397-3.484l-1.915,1.068c-1.012-0.968-2.205-1.76-3.546-2.307l0.194-2.178
			l-4.159-0.769l-0.597,2.104c-1.448,0.032-2.846,0.345-4.136,0.887l-1.407-1.682l-3.484,2.398l1.068,1.916
			c-0.968,1.011-1.76,2.205-2.306,3.546l-2.179-0.194l-0.768,4.158l2.104,0.597c0.031,1.447,0.344,2.846,0.887,4.136l-1.682,1.407
			l2.397,3.484l1.915-1.069c1.012,0.968,2.206,1.76,3.547,2.306L384.083,197.495z M382.951,183.752
			c0.574-3.109,3.561-5.163,6.669-4.589c3.109,0.574,5.164,3.56,4.59,6.669c-0.575,3.109-3.561,5.164-6.67,4.589
			C384.431,189.848,382.376,186.861,382.951,183.752z"/>
		<path style="fill:#F0F0F0;" d="M333.351,335.352c0.055,2.526,0.601,4.966,1.548,7.218l-2.937,2.456l4.184,6.079l3.343-1.865
			c1.766,1.689,3.849,3.072,6.188,4.025l-0.338,3.802l7.257,1.341l1.042-3.671c2.526-0.055,4.965-0.602,7.218-1.549l2.455,2.936
			l6.08-4.183l-1.864-3.343c1.689-1.765,3.071-3.848,4.025-6.188l3.801,0.339l1.341-7.257l-3.671-1.042
			c-0.055-2.526-0.601-4.966-1.548-7.218l2.936-2.456l-4.184-6.079l-3.342,1.864c-1.765-1.689-3.848-3.071-6.188-4.025l0.338-3.801
			l-7.257-1.341l-1.042,3.672c-2.526,0.055-4.965,0.601-7.219,1.548l-2.455-2.935l-6.079,4.183l1.865,3.343
			c-1.689,1.765-3.072,3.849-4.025,6.188l-3.802-0.339l-1.34,7.257L333.351,335.352z M343.362,333.086
			c1.003-5.425,6.214-9.011,11.64-8.008c5.425,1.002,9.011,6.214,8.009,11.639c-1.003,5.426-6.213,9.011-11.639,8.009
			C345.946,343.722,342.36,338.511,343.362,333.086z"/>
		<g>
			<path style="fill:#E0E0E0;" d="M152.11,202.705c0.911,4.509-4.537,9.413-12.167,10.954c-7.63,1.541-14.554-0.865-15.464-5.373
				c-0.911-4.509,4.537-9.413,12.167-10.954C144.276,195.791,151.2,198.197,152.11,202.705z"/>
			<path style="fill:#EBEBEB;" d="M155.056,186.535c0.619-1.002,0.889-1.997,0.698-2.944c-0.894-4.427-11.033-6.114-22.645-3.769
				c-11.612,2.345-20.3,7.835-19.406,12.262c0.191,0.946,0.826,1.758,1.786,2.442c-0.131,0.504-0.168,1.001-0.07,1.485
				c0.189,0.936,0.83,1.735,1.802,2.402c-0.151,0.518-0.187,1.029-0.087,1.524c0.188,0.93,0.839,1.721,1.832,2.372
				c-0.17,0.528-0.218,1.049-0.116,1.554c0.187,0.926,0.848,1.71,1.868,2.347c-0.19,0.537-0.256,1.067-0.153,1.579
				c0.743,3.681,9.172,5.084,18.826,3.134c9.654-1.949,16.877-6.514,16.134-10.194c-0.104-0.513-0.37-0.976-0.754-1.397
				c0.693-0.982,0.998-1.962,0.811-2.888c-0.102-0.505-0.348-0.967-0.71-1.387c0.662-0.986,0.956-1.967,0.768-2.897
				c-0.1-0.496-0.331-0.953-0.671-1.372c0.637-0.992,0.917-1.978,0.729-2.913C155.6,187.393,155.373,186.949,155.056,186.535z"/>
			<path style="fill:#F5F5F5;" d="M164.545,143.724c-4.326-21.422-25.903-34.96-47.343-29.069
				c-18.498,5.083-30.388,23.611-27.352,42.553c1.974,12.311,9.588,22.185,19.703,27.555c1.835,0.975,3.112,2.762,3.323,4.829
				c0.01,0.101,0.026,0.201,0.046,0.301c0.908,4.495,11.203,6.209,22.995,3.827c11.792-2.381,20.615-7.956,19.707-12.452
				c-0.02-0.097-0.044-0.192-0.072-0.286c-0.609-2.012-0.1-4.166,1.226-5.797C163.683,166.69,166.882,155.294,164.545,143.724z"/>
			<g>
				<path style="fill:#E0E0E0;" d="M141.189,186.327c-0.029,0.007-0.057,0.012-0.087,0.014c-0.251,0.014-0.466-0.177-0.481-0.428
					c-0.043-0.741-0.929-17.463,6.273-25.475l-5.521,1.115c-0.18,0.037-0.363-0.038-0.466-0.188l-2.734-3.981l-2.424,9.611
					c-0.043,0.169-0.19,0.298-0.351,0.335c-0.172,0.036-0.349-0.032-0.454-0.172l-6.035-8.009l-2.641,8.59
					c-0.049,0.158-0.168,0.299-0.345,0.312c-0.164,0.034-0.333-0.026-0.44-0.153l-5.734-6.854l-0.987,4.793
					c-0.036,0.179-0.17,0.328-0.356,0.354l-5.942,1.201c3.016,2.146,12.606,9.759,14.928,21.258c0.05,0.246-0.109,0.492-0.356,0.536
					c-0.247,0.05-0.487-0.109-0.536-0.356c-2.675-13.244-15.299-21.205-15.426-21.284c-0.159-0.099-0.242-0.284-0.209-0.468
					c0.033-0.183,0.174-0.342,0.358-0.365l6.708-1.355l1.116-5.422c0.035-0.171,0.165-0.306,0.333-0.35c0.001,0,0.001,0,0.002,0
					c0.17-0.043,0.349,0.015,0.461,0.149l5.802,6.934l2.657-8.642c0.051-0.163,0.177-0.287,0.357-0.315
					c0.169-0.03,0.339,0.039,0.442,0.175l5.999,7.962l2.438-9.666c0.044-0.173,0.179-0.298,0.362-0.337
					c0.176-0.031,0.354,0.043,0.455,0.191l3.133,4.564l6.707-1.354c0.202-0.041,0.406,0.058,0.498,0.243
					c0.092,0.184,0.049,0.407-0.105,0.543c-8.047,7.169-7.069,25.641-7.058,25.827C141.542,186.081,141.395,186.274,141.189,186.327
					z"/>
			</g>
		</g>
	</g>
</g>
<g id="Background_Simple" style="display:none;">
	<g style="display:inline;">
		<path style="fill:#407BFF;" d="M85.4,120.73c27.919-59.449,127.059-51.062,165.317-9.255
			c38.258,41.806,50.696,68.599,85.208,52.983c34.512-15.616,78.518-11.44,81.043,38.164s-37.913,108.263-102.09,125.615
			c-64.177,17.352-64.161,78.759-149.1,66.368c-46.31-6.756-47.365-56.86-40.825-98.301S53.022,189.673,85.4,120.73z"/>
		<path style="opacity:0.9;fill:#FFFFFF;" d="M85.4,120.73c27.919-59.449,127.059-51.062,165.317-9.255
			c38.258,41.806,50.696,68.599,85.208,52.983c34.512-15.616,78.518-11.44,81.043,38.164s-37.913,108.263-102.09,125.615
			c-64.177,17.352-64.161,78.759-149.1,66.368c-46.31-6.756-47.365-56.86-40.825-98.301S53.022,189.673,85.4,120.73z"/>
	</g>
</g>
<g id="Shadow_1_">
	<ellipse id="_x3C_Path_x3E__359_" style="fill:#F5F5F5;" cx="250" cy="416.238" rx="193.889" ry="11.323"/>
</g>
<g id="Speech_bubble">
	<g>
		<path style="fill:#407BFF;" d="M369.384,150.555c0-5.856-3.059-11.148-7.984-14.949c0.16-0.763,0.247-1.546,0.247-2.345
			c0-7.803-7.929-14.144-17.795-14.324c-2.982-7.542-11.926-13.018-22.497-13.018c-8.427,0-15.817,3.483-19.979,8.716
			c-1.035-0.144-2.098-0.223-3.185-0.223c-10.065,0-18.224,6.417-18.224,14.333c0,1.367,0.248,2.687,0.703,3.939
			c-6.411,3.367-10.636,9.108-10.636,15.626c0,6.279,3.922,11.833,9.94,15.243c-0.001,0.067-0.006,0.133-0.006,0.201
			c0,7.683,7.687,13.953,17.342,14.315c5.324,5.199,13.481,8.529,22.63,8.529c6.423,0,12.356-1.643,17.165-4.419
			c0.81,0.087,1.636,0.135,2.476,0.135c10.065,0,18.224-6.417,18.224-14.333c0-0.049-0.004-0.098-0.005-0.147
			C364.793,164.061,369.384,157.73,369.384,150.555z"/>
		<path style="fill:#407BFF;" d="M269.191,192.66c0,1.309-1.518,2.37-3.391,2.37c-1.873,0-3.391-1.061-3.391-2.37
			c0-1.309,1.518-2.37,3.391-2.37C267.673,190.29,269.191,191.351,269.191,192.66z"/>
		<path style="fill:#407BFF;" d="M292.667,187.025c0,3.789-4.409,6.86-9.848,6.86s-9.848-3.071-9.848-6.86
			c0-3.789,4.409-6.86,9.848-6.86S292.667,183.236,292.667,187.025z"/>
		<path style="opacity:0.7;fill:#FFFFFF;enable-background:new    ;" d="M369.384,150.555c0-5.856-3.059-11.148-7.984-14.949
			c0.16-0.763,0.247-1.546,0.247-2.345c0-7.803-7.929-14.144-17.795-14.324c-2.982-7.542-11.926-13.018-22.497-13.018
			c-8.427,0-15.817,3.483-19.979,8.716c-1.035-0.144-2.098-0.223-3.185-0.223c-10.065,0-18.224,6.417-18.224,14.333
			c0,1.367,0.248,2.687,0.703,3.939c-6.411,3.367-10.636,9.108-10.636,15.626c0,6.279,3.922,11.833,9.94,15.243
			c-0.001,0.067-0.006,0.133-0.006,0.201c0,7.683,7.687,13.953,17.342,14.315c5.324,5.199,13.481,8.529,22.63,8.529
			c6.423,0,12.356-1.643,17.165-4.419c0.81,0.087,1.636,0.135,2.476,0.135c10.065,0,18.224-6.417,18.224-14.333
			c0-0.049-0.004-0.098-0.005-0.147C364.793,164.061,369.384,157.73,369.384,150.555z"/>
		<path style="opacity:0.7;fill:#FFFFFF;enable-background:new    ;" d="M269.191,192.66c0,1.309-1.518,2.37-3.391,2.37
			c-1.873,0-3.391-1.061-3.391-2.37c0-1.309,1.518-2.37,3.391-2.37C267.673,190.29,269.191,191.351,269.191,192.66z"/>
		<path style="opacity:0.7;fill:#FFFFFF;enable-background:new    ;" d="M292.667,187.025c0,3.789-4.409,6.86-9.848,6.86
			s-9.848-3.071-9.848-6.86c0-3.789,4.409-6.86,9.848-6.86S292.667,183.236,292.667,187.025z"/>
	</g>
</g>
<g id="Symbol">
	<g>
		<path style="fill:#407BFF;" d="M320.18,120.416c9.726,0,15.752,4.572,15.752,12.702c0,10.961-11.18,12.415-11.18,20.906h-9.652
			c0-11.177,8.928-11.83,8.928-18.799c0-3.05-1.888-4.43-5.08-4.43c-3.558,0-5.447,2.107-5.518,6.463h-9.944
			C303.556,126.587,309.801,120.416,320.18,120.416z M325.987,165.786c0,3.7-2.612,6.315-6.242,6.315
			c-3.629,0-6.171-2.615-6.171-6.315c0-3.703,2.542-6.245,6.171-6.245C323.374,159.541,325.987,162.083,325.987,165.786z"/>
	</g>
</g>
<g id="Plant">
	<g>
		<g>
			<path style="fill:#407BFF;" d="M102.152,353.581c0,0-6.528-7.77-10.706-4.146c-4.178,3.624-2.065,11.311,2.754,11.558
				c4.819,0.248,7.952-2.43,7.952-2.43V353.581z"/>
			<path style="opacity:0.2;fill:#FFFFFF;enable-background:new    ;" d="M102.152,353.581c0,0-6.528-7.77-10.706-4.146
				c-4.178,3.624-2.065,11.311,2.754,11.558c4.819,0.248,7.952-2.43,7.952-2.43V353.581z"/>
			<path style="fill:#407BFF;" d="M128.787,333.875c0,0,5.484-5.744,8.878-4.77c3.395,0.974,3.041,14.697-7.488,9.141
				L128.787,333.875z"/>
			<path style="opacity:0.3;fill:#FFFFFF;enable-background:new    ;" d="M128.787,333.875c0,0,5.484-5.744,8.878-4.77
				c3.395,0.974,3.041,14.697-7.488,9.141L128.787,333.875z"/>
			<path style="fill:#407BFF;" d="M109.202,376.728c0,0-18.018-24.649-3.395-29.643c14.623-4.994,17.235,19.832,13.056,26.743
				C114.686,380.739,109.202,376.728,109.202,376.728z"/>
			<path style="fill:#407BFF;" d="M117.558,326.262c0,0,11.177-25.951-5.379-26.735c-16.556-0.783-18.359,25.732,0.691,29.578
				L117.558,326.262z"/>
			<path style="opacity:0.3;fill:#FFFFFF;enable-background:new    ;" d="M109.202,376.728c0,0-18.018-24.649-3.395-29.643
				c14.623-4.994,17.235,19.832,13.056,26.743C114.686,380.739,109.202,376.728,109.202,376.728z"/>
			<path style="opacity:0.3;fill:#FFFFFF;enable-background:new    ;" d="M117.558,326.262c0,0,11.177-25.951-5.379-26.735
				c-16.556-0.783-18.359,25.732,0.691,29.578L117.558,326.262z"/>
			<path style="fill:#407BFF;" d="M113.593,347.51c0,0-5.435-22.914,5.01-24.742c10.445-1.828,20.756,18.875-0.851,29.284
				C117.752,352.051,114.046,349.752,113.593,347.51z"/>
			<path style="opacity:0.2;fill:#FFFFFF;enable-background:new    ;" d="M113.593,347.51c0,0-5.435-22.914,5.01-24.742
				c10.445-1.828,20.756,18.875-0.851,29.284C117.752,352.051,114.046,349.752,113.593,347.51z"/>
		</g>
		<path style="fill:#407BFF;" d="M111.967,324.408c-6.235-4.555-10.549-13.358-6.877-20.775c-0.146,0.69-0.332,1.44-0.499,2.125
			C103.361,312.794,107.21,319.498,111.967,324.408L111.967,324.408z"/>
		<path style="fill:#407BFF;" d="M108.001,302.137c7.126,1.392,10.385,9.145,9.524,15.793c-0.164,0.944-0.3,1.885-0.489,2.814
			c0.041-1.891,0.124-3.765-0.064-5.64C116.523,309.57,113.478,304.168,108.001,302.137L108.001,302.137z"/>
		<path style="fill:#407BFF;" d="M120.662,324.408c4.376,1.552,6.896,6.542,6.533,11.052c-0.366,3.283-2.204,6.228-4.241,8.692
			c-1.656,1.981-3.532,3.764-5.598,5.283c0.92-0.892,1.82-1.796,2.659-2.756c2.479-2.795,4.927-5.88,5.988-9.504
			C127.461,332.458,125.099,326.685,120.662,324.408L120.662,324.408z"/>
		<path style="fill:#407BFF;" d="M117.558,326.262c1.078,3.352,2.034,7.366,0.28,10.666c-1.461,2.139-1.613,4.937-1.645,7.491
			c-0.022,0.886,0.016,1.773,0.059,2.666c-0.432-1.737-0.624-3.533-0.582-5.344c0.02-1.808,0.429-3.754,1.454-5.26
			C118.739,333.392,117.966,329.606,117.558,326.262L117.558,326.262z"/>
		<path style="fill:#407BFF;" d="M110.208,349.435c4.226,2.282,5.888,16.597,5.742,21.273c-0.133-0.929-0.274-1.851-0.45-2.77
			c-0.801-4.58-1.632-9.175-2.842-13.662C112.088,352.589,111.726,350.538,110.208,349.435L110.208,349.435z"/>
		<path style="fill:#407BFF;" d="M105.09,350.231c-2.022,6.672-0.547,14.066,4.113,19.293c-0.641-0.588-1.316-1.166-1.896-1.83
			C103.126,363.029,102.305,355.805,105.09,350.231L105.09,350.231z"/>
		<path style="fill:#407BFF;" d="M133.04,336.674c1.917-0.517,3.549-0.985,4.952-2.393
			C137.645,336.425,134.921,337.436,133.04,336.674L133.04,336.674z"/>
		<path style="fill:#407BFF;" d="M131.921,332.887c0.902-1.836,3.978-2.979,5.288-0.979
			C135.366,331.104,133.573,332.11,131.921,332.887L131.921,332.887z"/>
		<path style="fill:#407BFF;" d="M99.169,354.741c-2.102-1.485-4.28-4.008-7.006-2.69C94.376,349.422,98.119,352.383,99.169,354.741
			L99.169,354.741z"/>
		<path style="fill:#407BFF;" d="M99.169,358.564c-2.767,1.01-8.204,1.098-8.586-2.763
			C92.159,358.941,96.176,358.251,99.169,358.564L99.169,358.564z"/>
		<g>
			<polygon style="fill:#263238;" points="86.896,366.558 142.868,366.558 138.194,402.37 91.57,402.37 			"/>
		</g>
		<g style="opacity:0.2;">
			<polygon style="fill:#FAFAFA;" points="142.87,366.561 141.23,379.081 141.13,379.871 140.2,386.991 139.96,388.841 
				139.27,394.111 138.72,398.331 138.19,402.371 91.57,402.371 91.04,398.331 90.49,394.111 89.81,388.841 89.56,386.991 
				88.64,379.871 88.53,379.081 86.9,366.561 			"/>
		</g>
		<polygon style="opacity:0.2;fill:#FAFAFA;" points="139.27,394.111 138.72,398.331 91.04,398.331 90.49,394.111 		"/>
		<polygon style="opacity:0.2;fill:#FAFAFA;" points="140.2,386.991 139.96,388.841 89.81,388.841 89.56,386.991 		"/>
		<polygon style="opacity:0.2;fill:#FAFAFA;" points="141.23,379.081 141.13,379.871 88.64,379.871 88.53,379.081 		"/>
	</g>
</g>
<g id="Lamp">
	<g>
		<rect x="371.428" y="348.868" style="fill:#263238;" width="11.67" height="23.934"/>
		<path style="fill:#263238;" d="M410.268,386.99c0-8.317-6.365-15.6-15.895-19.623v-5.049h-34.22v5.052
			c-9.529,4.023-15.895,11.305-15.895,19.62c0,3.86,1.38,7.5,3.81,10.7c0,0,0,0,0,0v4.24h4.14h50.12h4.13v-4.23
			C408.888,394.5,410.268,390.86,410.268,386.99z"/>
		<path style="opacity:0.6;fill:#FAFAFA;" d="M410.268,386.99c0-8.317-6.365-15.6-15.895-19.623v-5.049h-34.22v5.052
			c-9.529,4.023-15.895,11.305-15.895,19.62c0,3.86,1.38,7.5,3.81,10.7c0,0,0,0,0,0v4.24h4.14h50.12h4.13v-4.23
			C408.888,394.5,410.268,390.86,410.268,386.99z"/>
		<path style="fill:#263238;" d="M395.233,367.17h-35.939c-1.131,0-2.052-0.921-2.052-2.052v-55.612h1v55.612
			c0,0.58,0.472,1.052,1.052,1.052h35.939c0.58,0,1.052-0.472,1.052-1.052v-55.612h1v55.612
			C397.285,366.249,396.364,367.17,395.233,367.17z"/>
		<polygon style="fill:#407BFF;" points="412.246,355.801 342.281,355.801 357.628,296.381 396.899,296.381 		"/>
		<rect x="348.068" y="397.69" style="opacity:0.2;" width="58.39" height="4.24"/>
		<rect x="360.154" y="362.319" style="opacity:0.2;" width="34.22" height="5.049"/>
		<polygon style="opacity:0.6;fill:#FAFAFA;" points="412.246,355.801 342.281,355.801 357.628,296.381 396.899,296.381 		"/>
	</g>
</g>
<g id="Character">
	<g>
		<g>
			<path style="fill:#DC897C;" d="M268.939,269.805c8.866,11.506,18.309,23.592,29.749,32.343c2.52,1.837,4.657,3.022,6.775,3.65
				c0.171,0.057-0.033,0.142-0.206,0.283c-0.105,0.121-0.113,0.12-0.112,0.196c-0.087,0.063-0.316,0.28-0.398,0.357
				c-0.961,0.931-1.768,2.398-1.782,3.677c0.005,0.278,0.059,0.258,0.059,0.076c-0.613-4.592-3.399-9.128-5.764-13.415
				c-9.545-16.132-21.562-31.199-33.092-46.198c0,0,9.03-8.826,9.03-8.826c10.216,8.676,19.603,17.831,28.603,27.766
				c6.878,7.699,13.606,15.778,18.819,25.069c5.192,8.884,8.291,21.497-0.944,29.326c-3.86,3.401-9.681,5.404-14.594,5.305
				c-17.5-0.238-33.497-16.733-44.227-28.593c-4.555-5.225-8.871-10.681-12.794-16.39L268.939,269.805L268.939,269.805z"/>
			<path style="fill:#E4897B;" d="M243.503,231.383l10.545-0.51c1.174-0.057,2.337,0.257,3.323,0.896l16.34,10.587l-2.682,11.389
				c-10.179,6.425-18.87,0.524-21.529-1.667c-0.618-0.509-1.333-0.874-2.107-1.081l-5.786-1.545
				c-2.662-0.711-4.415-3.25-4.136-5.992l0.717-7.039C238.471,233.659,240.729,231.518,243.503,231.383z"/>
			<path style="fill:#407BFF;" d="M299.917,302.129l-10.575,33.709c0,0-1.189-0.628-3.129-1.716
				c-5.114-2.871-15.453-8.893-23.09-14.859c-4.441-3.465-7.962-6.908-9.016-9.7c-3.544-9.409,17.584-42.737,17.584-42.737
				c6.639,1.66,14.702,13.704,14.702,13.704S297.371,296.028,299.917,302.129z"/>
			<path style="opacity:0.2;" d="M286.213,334.122c-5.114-2.871-15.453-8.893-23.09-14.859c-0.19-4.463,0.112-9.218,1.088-14.186
				C264.212,305.078,281.19,314.7,286.213,334.122z"/>
		</g>
		<g>
			<path style="fill:#263238;" d="M271.692,266.838c0,0,20.476,52.766,0.668,150.892c-28.134-0.068-79.683-0.193-93.373-0.226
				c-0.609-14.335,5.882-81.433-7.779-149.002c0,0,3.831-4.678,33.952-6.672c11.919-0.789,29.206-0.885,39.692,0.098
				C258.676,263.223,271.692,266.838,271.692,266.838z"/>
			<path style="opacity:0.6;fill:#FAFAFA;" d="M280.786,348.6c-0.124,3.566-0.303,7.244-0.549,11.034
				c-0.202,3.061-0.438,6.213-0.718,9.431c-0.347,3.846-0.751,7.794-1.245,11.842c-0.381,3.308-0.819,6.684-1.301,10.126
				c-0.594,4.149-1.256,8.388-2.007,12.739c-0.774,4.542-1.638,9.195-2.602,13.961c-28.136-0.067-79.687-0.191-93.379-0.224
				c-0.135-3.117,0.067-8.736,0.325-16.305c0.112-3.028,0.224-6.381,0.325-10.003c0.079-2.635,0.146-5.428,0.202-8.343
				c0.067-3.241,0.123-6.65,0.146-10.216c0.022-2.77,0.022-5.629,0.011-8.579c-0.011-3.409-0.056-6.93-0.134-10.541
				c-0.045-2.68-0.124-5.405-0.213-8.175c-0.325-9.846-0.92-20.275-1.895-31.063c-1.346-14.814-3.42-30.289-6.549-45.787
				c0,0,3.835-4.676,33.956-6.672c11.92-0.785,29.201-0.886,39.697,0.101c13.815,1.301,26.835,4.912,26.835,4.912
				S282.647,295.053,280.786,348.6z"/>
			<path style="opacity:0.2;" d="M189.381,309.979c0,0-0.83,22.282-9.734,35.369c-0.325-9.846-0.92-20.275-1.895-31.063
				C181.396,311.515,185.366,309.855,189.381,309.979z"/>
			<g style="opacity:0.6;">
				<path style="fill:#FAFAFA;" d="M280.786,348.6c-0.124,3.566-0.303,7.244-0.549,11.034l-9.801,11.539l-14.074-16.563
					l-14.062,16.563l-14.074-16.563l-14.062,16.563L200.09,354.61l-14.062,16.563l-6.033-7.11c-0.011-3.409-0.056-6.93-0.134-10.541
					l6.168,7.256l14.062-16.563l14.073,16.563l14.062-16.563l14.074,16.563l14.062-16.563l14.074,16.563L280.786,348.6z"/>
			</g>
			<g style="opacity:0.6;">
				<path style="fill:#FAFAFA;" d="M279.519,369.065c-0.347,3.846-0.751,7.794-1.245,11.842l-7.839,9.24l-14.074-16.563
					l-14.062,16.563l-14.074-16.563l-14.062,16.563l-14.073-16.563l-14.062,16.563l-6.19-7.289c0.067-3.241,0.123-6.65,0.146-10.216
					l6.044,7.11l14.062-16.563l14.073,16.563l14.062-16.563l14.074,16.563l14.062-16.563l14.074,16.563L279.519,369.065z"/>
			</g>
			<g style="opacity:0.6;">
				<path style="fill:#FAFAFA;" d="M276.973,391.033c-0.594,4.149-1.256,8.388-2.007,12.739l-4.531,5.338l-14.074-16.552
					l-14.062,16.552l-14.074-16.552l-14.062,16.552l-14.073-16.552l-14.062,16.552l-6.717-7.906
					c0.112-3.028,0.224-6.381,0.325-10.003l6.392,7.525l14.062-16.563l14.073,16.563l14.062-16.563l14.074,16.563l14.062-16.563
					l14.074,16.563L276.973,391.033z"/>
			</g>
		</g>
		<g>
			<path style="fill:#E4897B;" d="M203.958,220.644c3.684,12.482,8.355,35.547,0.253,44.865
				c12.668,4.036,21.787,6.704,32.991,15.022c2.942-8.155,6.528-18.724,6.528-18.724c-14.497-2.057-15.116-12.612-13.572-22.723
				L203.958,220.644z"/>
			<path style="opacity:0.2;" d="M214.64,228.17l15.506,10.906c-0.374,2.394-0.612,4.808-0.561,7.129
				c-5.49-0.275-13.489-5.525-14.595-11.142C214.439,232.26,214.303,229.53,214.64,228.17z"/>
		</g>
		<g>
			<polygon style="fill:#407BFF;" points="193.355,262.784 202.299,254.367 226.276,262.603 236.756,278.71 240.673,262.385 
				246.085,257.492 255.578,263.298 254.112,273.654 247.245,270.292 238.961,283.861 220.428,272.983 215.259,277.937 			"/>
			<polygon style="opacity:0.2;" points="238.961,283.861 243.799,266.901 254.112,273.654 247.245,270.292 			"/>
			<polygon style="opacity:0.2;" points="238.961,283.861 222.625,267.859 215.259,277.937 220.428,272.983 			"/>
		</g>
		<g>
			<path style="fill:#DC897C;" d="M199.456,295.497c5.968,7.234,14.204,17.272,20.285,24.17
				c7.253,8.063,14.462,16.621,23.225,22.802c0.344,0.215-0.05-0.001-0.214-0.029c-0.126-0.046-0.269-0.06-0.288-0.057
				c-0.084,0.007-0.011,0.02-0.012,0.049c3.94,0.868,8.373-0.055,12.577-0.623c12.834-2.159,25.453-5.79,38.299-9.097
				c0,0,5.052,11.572,5.052,11.572c-4.865,2.965-9.724,5.543-14.762,8.017c-12.611,5.931-35.63,16.621-49.559,11.381
				c-5.39-2.325-9.963-5.71-14.27-9.161c-6.729-5.499-12.929-11.594-18.796-17.798c-5.771-6.136-11.233-12.405-16.494-18.938
				c-1.767-2.182-3.425-4.327-5.19-6.667L199.456,295.497L199.456,295.497z"/>
			<path style="fill:#407BFF;" d="M162.939,280.06c-10.231,32.416,35.733,64.163,35.733,64.163l24.556-27.922
				c0,0-10.821-20.024-23.075-37.778C187.315,259.921,168.327,262.988,162.939,280.06z"/>
			<g>
				<path style="fill:#E4897B;" d="M291.33,334.236l17.279-17.935l13.066,17.416c0,0-10.316,14.235-24.345,10.564L291.33,334.236z"
					/>
				<polygon style="fill:#E4897B;" points="325.46,310.803 332.091,326.116 321.674,333.718 308.608,316.301 				"/>
			</g>
		</g>
		<g>
			<path style="fill:#263238;" d="M237.347,174.253c8.897,3.486,14.994,27.732,4.193,33.566
				C230.739,213.652,220.496,167.65,237.347,174.253z"/>
			<path style="fill:#E4897B;" d="M199.025,202.78c4.609,16.963,6.44,27.094,16.973,34.403c15.843,10.994,35.505-0.5,36.077-18.317
				c0.515-16.037-7.108-41.082-25.402-45.016C208.65,169.974,194.417,185.817,199.025,202.78z"/>
			<path style="fill:#263238;" d="M214.182,180.925l-1.883-14.949c-3.934,1.96-8.147,2.933-12.053,2.261
				c-17.966-3.09-30.848,9.103-22.007,18.54c-8.139,4.131-2.823,15.309,3.217,22.277c8.391,9.683,16.962,13.969,22.404,9.028
				c4.963-2.815,4.725-20.568,2.631-27.025C203.336,181.325,214.182,180.925,214.182,180.925z"/>
			<path style="fill:#E4897B;" d="M195.989,220.883c3.255,3.529,7.589,5.487,11.217,5.917c5.457,0.646,6.418-4.428,3.421-9.128
				c-2.697-4.231-8.787-9.665-13.552-8.139C192.381,211.036,192.267,216.848,195.989,220.883z"/>
			<path style="fill:#263238;" d="M225.055,203.095c0.289,1.396,1.267,2.4,2.185,2.243c0.918-0.157,1.428-1.416,1.139-2.812
				c-0.289-1.396-1.268-2.4-2.185-2.243C225.275,200.441,224.766,201.699,225.055,203.095z"/>
			<path style="fill:#263238;" d="M240.927,200.379c0.289,1.396,1.267,2.4,2.185,2.243c0.918-0.157,1.428-1.416,1.139-2.812
				c-0.289-1.396-1.268-2.4-2.186-2.243C241.148,197.725,240.638,198.983,240.927,200.379z"/>
			<path style="fill:#DE5753;" d="M237.146,201.937c0,0,4.861,7.507,9.18,10.791c-2.007,2.73-6.449,2.4-6.449,2.4L237.146,201.937z"
				/>
			<path style="fill:#263238;" d="M230.144,195.776c0.126,0.054,0.241,0.139,0.332,0.255c0.284,0.364,0.22,0.891-0.144,1.175
				c-3.604,2.814-7.262,1.515-7.415,1.458c-0.423-0.11-0.657-0.639-0.496-1.074c0.16-0.434,0.639-0.655,1.073-0.497
				c0.152,0.053,2.978,1.005,5.809-1.206C229.55,195.692,229.873,195.661,230.144,195.776z"/>
			<path style="fill:#263238;" d="M245.506,192.775c-0.259,0.065-0.545,0.006-0.76-0.185c-2.848-2.523-5.88-1.814-5.91-1.807
				c-0.449,0.111-0.903-0.163-1.013-0.612c-0.111-0.447,0.162-0.899,0.607-1.012c0.001,0,0.003-0.001,0.005-0.001
				c0.159-0.039,3.923-0.921,7.419,2.179c0.346,0.306,0.378,0.836,0.072,1.181C245.811,192.65,245.663,192.735,245.506,192.775z"/>
			<path style="fill:#263238;" d="M199.297,170.209c0,0,12.425-23.972,35.546-19.094c0,0-4.425,0.984-6.304,2.673
				c0,0,20.183-1.755,26.474,12.418l-3.865-2.262c0,0,5.145,11.743-0.874,19.486l-1.131-3.893c0,0-8.259,10.257-20.591,7.346
				l4.257-2.167c0,0-21.237-0.65-26.504-6.061C201.038,173.243,199.297,170.209,199.297,170.209z"/>
			<path style="fill:#263238;" d="M241.968,222.463c-0.181,0-0.361-0.072-0.494-0.215c-3.136-3.386-8.623-2.091-8.678-2.078
				c-0.359,0.086-0.725-0.132-0.814-0.493c-0.089-0.36,0.131-0.725,0.491-0.814c0.256-0.064,6.305-1.504,9.987,2.469
				c0.253,0.273,0.236,0.698-0.036,0.951C242.296,222.404,242.132,222.463,241.968,222.463z"/>
		</g>
	</g>
	<g>
		<rect x="76.802" y="401.931" style="fill:#407BFF;" width="338.976" height="15.803"/>
		<rect x="76.802" y="401.931" style="opacity:0.2;fill:#FAFAFA;" width="338.976" height="15.803"/>
		<path style="fill:#407BFF;" d="M420.847,401.931H72.699c-2.182,0-3.951,1.769-3.951,3.951l0,0c0,2.182,1.769,3.951,3.951,3.951
			h348.148c2.182,0,3.951-1.769,3.951-3.951l0,0C424.797,403.7,423.029,401.931,420.847,401.931z"/>
		<path style="opacity:0.4;fill:#FAFAFA;" d="M420.847,401.931H72.699c-2.182,0-3.951,1.769-3.951,3.951l0,0
			c0,2.182,1.769,3.951,3.951,3.951h348.148c2.182,0,3.951-1.769,3.951-3.951l0,0C424.797,403.7,423.029,401.931,420.847,401.931z"
			/>
	</g>
</g>
</svg>
