<svg xmlns="http://www.w3.org/2000/svg" xmlns:xlink="http://www.w3.org/1999/xlink" version="1.1" x="0px" y="0px" viewBox="0 0 500 500" style="enable-background:new 0 0 500 500;" xml:space="preserve">
	<g id="Background_Complete">
		<g>
			<g>
				<path style="fill:#E0E0E0;" d="M444.847,156.54c-12.913,6.686-22.815,18.196-29.935,30.871     c-7.12,12.674-11.709,26.581-16.254,40.389l-3.977,71.208c15.025-25.549,27.085-55.583,30.344-85.039     c-3.333-0.297-6.666-0.593-9.999-0.89c6.704-1.023,12.332-5.878,15.912-11.635c3.58-5.757,5.423-12.395,7.222-18.931     c-4.066,0.604-8.133,1.208-12.199,1.813C435.512,177.953,442.438,167.764,444.847,156.54z"/>
			</g>
			<g>
				<path style="fill:#EBEBEB;" d="M392.455,315.692c0,0-32.613-39.015-32.236-76.261h13.174c0,0-14.31-9.405-13.177-14.672     c1.132-5.267,1.509-25.206,1.509-25.206l12.045,3.01c0,0-9.034-4.515-10.163-11.663c-1.129-7.148,2.635-40.255,2.635-40.255     s14.68,15.425,19.197,31.226c4.517,15.801,16.373,34.236,12.892,82.391C394.848,312.417,392.455,315.692,392.455,315.692z"/>
			</g>
			<g>
				<path style="fill:#EBEBEB;" d="M408.989,319.375c0,0,35.333-23.526,43.183-53.552l-10.592-2.881c0,0,13.564-4.432,13.806-8.915     c0.243-4.482,4.305-20.595,4.305-20.595l-10.343-0.214c0,0,8.251-1.654,10.724-7.154c2.473-5.5,6.693-32.94,6.693-32.94     s-15.179,9.191-22.269,20.907c-7.09,11.716-20.658,23.944-28.4,63.421C408.355,316.929,408.989,319.375,408.989,319.375z"/>
			</g>
			<g>
				<g>
					<path style="fill:#E0E0E0;" d="M375.15,184.662c0.009-0.002,0.047,0.135,0.113,0.406c0.069,0.294,0.161,0.693,0.28,1.202      c0.241,1.086,0.585,2.641,1.026,4.632c0.449,2.01,0.973,4.476,1.541,7.346c0.578,2.869,1.252,6.132,1.912,9.756      c1.393,7.234,2.863,15.883,4.378,25.505c1.468,9.629,2.935,20.238,4.24,31.403c1.279,11.172,2.272,21.838,3.041,31.549      c0.721,9.715,1.264,18.471,1.56,25.832c0.185,3.679,0.273,7.01,0.366,9.934c0.102,2.924,0.156,5.444,0.177,7.503      c0.025,2.038,0.044,3.631,0.058,4.743c0.001,0.522,0.001,0.931,0.002,1.233c-0.003,0.278-0.008,0.42-0.017,0.42      c-0.009,0-0.021-0.142-0.036-0.42c-0.013-0.302-0.031-0.71-0.054-1.232c-0.036-1.111-0.089-2.703-0.156-4.74      c-0.053-2.058-0.135-4.576-0.265-7.498c-0.12-2.922-0.234-6.251-0.442-9.927c-0.343-7.355-0.923-16.105-1.67-25.812      c-0.795-9.704-1.802-20.362-3.08-31.527c-1.304-11.158-2.756-21.762-4.197-31.39c-1.488-9.62-2.92-18.271-4.266-25.51      c-0.636-3.626-1.285-6.893-1.835-9.766c-0.541-2.875-1.035-5.345-1.453-7.362c-0.4-1.999-0.712-3.561-0.931-4.651      c-0.097-0.514-0.173-0.915-0.229-1.212C375.162,184.805,375.141,184.664,375.15,184.662z"/>
				</g>
			</g>
			<g>
				<path style="fill:#EBEBEB;" d="M387.931,339.584c0,0-29.845-33.846-39.112-54.306l6.996-2.987     c-5.071,0.836-10.266-1.342-14.198-4.65s-6.819-7.659-9.65-11.946l9.216-1.556c-8.38-2.35-15.764-8.067-20.136-15.59     c10.875,1.787,20.714,7.758,28.821,15.22c6.566,6.043,12.125,13.058,17.464,20.225c2.605,3.496,4.884,7.221,6.783,11.146     C379.13,305.502,387.949,327.154,387.931,339.584z"/>
			</g>
			<g>
				<g>
					<path style="fill:#E0E0E0;" d="M452.641,212.824c0.008,0.004-0.04,0.12-0.142,0.343c-0.115,0.245-0.268,0.57-0.463,0.982      c-0.43,0.885-1.042,2.144-1.824,3.751c-0.802,1.624-1.778,3.613-2.878,5.939c-1.105,2.323-2.394,4.953-3.744,7.897      c-2.756,5.86-5.924,12.89-9.329,20.745c-3.376,7.867-6.97,16.567-10.545,25.777c-3.555,9.221-6.752,18.077-9.55,26.169      c-2.769,8.102-5.156,15.435-7.061,21.624c-0.982,3.085-1.799,5.898-2.545,8.36c-0.751,2.461-1.368,4.588-1.868,6.329      c-0.504,1.715-0.898,3.057-1.175,4.002c-0.134,0.436-0.239,0.779-0.318,1.037c-0.075,0.233-0.117,0.351-0.126,0.349      c-0.009-0.002,0.017-0.125,0.074-0.363c0.067-0.262,0.156-0.61,0.269-1.051c0.255-0.951,0.618-2.302,1.081-4.029      c0.47-1.75,1.059-3.886,1.783-6.356c0.72-2.471,1.512-5.292,2.472-8.386c1.861-6.206,4.214-13.555,6.96-21.671      c2.775-8.106,5.961-16.974,9.518-26.202c3.578-9.216,7.189-17.917,10.591-25.779c3.431-7.85,6.636-14.869,9.436-20.712      c1.372-2.935,2.685-5.555,3.815-7.867c1.126-2.314,2.128-4.291,2.959-5.901c0.819-1.589,1.461-2.833,1.912-3.708      c0.214-0.402,0.382-0.719,0.509-0.958C452.569,212.928,452.633,212.82,452.641,212.824z"/>
				</g>
			</g>
			<g>
				<g>
					<path style="fill:#E0E0E0;" d="M390.463,354.087c-0.018,0.002-0.063-0.213-0.134-0.623c-0.073-0.465-0.167-1.061-0.283-1.798      c-0.112-0.782-0.255-1.737-0.46-2.84c-0.199-1.104-0.39-2.367-0.689-3.746c-0.532-2.772-1.297-6.046-2.272-9.646      c-1.007-3.591-2.244-7.503-3.754-11.534c-1.533-4.024-3.192-7.777-4.811-11.138c-1.649-3.346-3.24-6.308-4.673-8.739      c-0.688-1.233-1.38-2.306-1.96-3.266c-0.576-0.963-1.1-1.774-1.533-2.435c-0.4-0.629-0.723-1.138-0.976-1.536      c-0.218-0.354-0.326-0.546-0.311-0.556c0.015-0.01,0.151,0.161,0.398,0.496c0.274,0.384,0.624,0.875,1.058,1.483      c0.46,0.644,1.01,1.441,1.61,2.391c0.605,0.947,1.32,2.01,2.031,3.234c1.478,2.415,3.109,5.368,4.787,8.716      c1.649,3.362,3.328,7.125,4.867,11.166c1.516,4.047,2.744,7.98,3.73,11.592c0.954,3.621,1.683,6.914,2.171,9.703      c0.276,1.388,0.443,2.659,0.615,3.769c0.178,1.11,0.292,2.072,0.373,2.859c0.077,0.742,0.138,1.343,0.187,1.812      C390.47,353.867,390.481,354.085,390.463,354.087z"/>
				</g>
			</g>
			<g>
				<rect x="364.524" y="346.126" style="fill:#E0E0E0;" width="65.32" height="13.318"/>
			</g>
			<g>
				<polygon style="fill:#E0E0E0;" points="370.749,359.444 377.814,404.239 417.284,404.239 423.87,359.444    "/>
			</g>
			<g>
				<g>
					<path style="fill:#EBEBEB;" d="M425.837,359.444c0,0.144-12.357,0.26-27.596,0.26c-15.245,0-27.599-0.117-27.599-0.26      s12.354-0.26,27.599-0.26C413.481,359.183,425.837,359.3,425.837,359.444z"/>
				</g>
			</g>
		</g>
		<g>
			<g>
				<g>
					<g>
						<g>
							<path style="fill:#F5F5F5;" d="M323.358,103.158c-1.375,5.412-4.359,9.321-4.359,9.321l4.29,4.009l0.004-0.005l18.298,16.511        l-0.429,0.199c0,0,15.836-11.063,20.214-14.673c3.612-2.978,13.277-9.122,14.063-15.084c0.283-2.148-0.883-4.289-2.836-5.228        c-1.119-0.538-2.577-0.734-4.177,0.333c0,0,4.26-4.994,0.892-8.278c-3.368-3.284-5.999-0.711-5.999-0.711        s4.167-6.35,0.299-9.875c0,0-2.454-2.092-5.649-0.295l1.57-1.679l8.096-8.662c1.97-2.108,2.074-5.46,0.039-7.505        c-2.108-2.119-5.527-2.072-7.577,0.066l-22.8,23.776l1.159-12.958c0.292-3.367-4.256-5.807-6.277-4.57        c0,0-3.106,1.211-3.957,6.483C327.586,78.274,323.358,103.158,323.358,103.158z"/>
						</g>
					</g>
					<g>
						<g>
							<g>
								<path style="fill:#E0E0E0;" d="M323.358,103.158c0,0,0.017-0.221,0.08-0.647c0.069-0.446,0.165-1.074,0.29-1.89         c0.271-1.681,0.665-4.125,1.172-7.268c0.521-3.164,1.156-7.03,1.895-11.522c0.373-2.249,0.771-4.654,1.194-7.207         c0.21-1.28,0.511-2.624,1.169-3.861c0.635-1.237,1.562-2.414,2.947-3.099l-0.032,0.016c0.804-0.453,1.758-0.418,2.598-0.185         c0.849,0.245,1.646,0.682,2.331,1.276c0.68,0.593,1.254,1.366,1.526,2.281c0.073,0.225,0.093,0.467,0.14,0.702         c0.009,0.238,0.008,0.483,0.003,0.72c-0.04,0.454-0.08,0.911-0.12,1.37c-0.323,3.678-0.662,7.539-1.015,11.554l-0.413-0.188         c6.357-6.643,13.321-13.92,20.729-21.662c0.463-0.484,0.928-0.969,1.395-1.457c0.463-0.471,0.92-1.015,1.523-1.422         c1.179-0.814,2.689-1.145,4.118-0.889c1.432,0.245,2.757,1.086,3.593,2.301c0.844,1.214,1.133,2.781,0.845,4.235         c-0.14,0.728-0.423,1.43-0.824,2.059c-0.404,0.646-0.945,1.143-1.416,1.664c-0.975,1.044-1.955,2.093-2.941,3.148         c-1.971,2.109-3.961,4.24-5.969,6.389l-0.348-0.443c1.097-0.616,2.54-0.976,3.911-0.635c0.561,0.126,1.096,0.344,1.59,0.634         c0.236,0.137,0.505,0.329,0.681,0.551c0.184,0.219,0.411,0.406,0.557,0.653c0.678,0.93,0.978,2.09,0.979,3.204         c-0.023,2.253-0.883,4.316-1.991,6.166l-0.435-0.358c1.108-0.992,2.713-1.293,4.069-0.797         c0.683,0.221,1.271,0.623,1.808,1.053c0.256,0.232,0.529,0.438,0.747,0.722l0.343,0.401l0.267,0.459         c0.728,1.25,0.613,2.781,0.212,4.045c-0.424,1.291-1.094,2.445-1.93,3.488l-0.365-0.411c1.158-0.826,2.781-1.068,4.099-0.501         c1.32,0.518,2.384,1.581,2.934,2.856c0.272,0.638,0.432,1.325,0.444,2.016c0.028,0.699-0.168,1.359-0.323,2.012         c-0.419,1.284-1.124,2.412-1.881,3.465c-3.201,4.117-7.377,6.96-11.127,9.856c-3.707,2.999-7.457,5.643-10.992,8.194         c-3.564,2.514-6.952,4.904-10.145,7.157l-0.208-0.362c0.155-0.071,0.292-0.135,0.429-0.198l-0.052,0.344         c-7.337-6.658-13.468-12.223-18.251-16.563l0.194-0.008l-0.004,0.005l-0.095,0.102l-0.101-0.095         c-1.673-1.578-3.042-2.868-4.272-4.028l-0.072-0.068l0.059-0.083c1.94-2.7,2.972-5.106,3.598-6.728         c0.312-0.816,0.514-1.452,0.641-1.88C323.277,103.374,323.358,103.158,323.358,103.158s-0.162,0.908-0.741,2.565         c-0.596,1.645-1.592,4.068-3.528,6.824l-0.013-0.15c1.24,1.149,2.62,2.427,4.307,3.99l-0.195,0.007l0.004-0.005l0.093-0.099         l0.101,0.091c4.807,4.313,10.97,9.842,18.345,16.458l0.235,0.211l-0.287,0.134c-0.137,0.064-0.274,0.128-0.429,0.2         l-0.208-0.362c3.183-2.263,6.561-4.665,10.114-7.191c3.528-2.564,7.257-5.207,10.954-8.214         c3.757-2.91,7.897-5.759,11.008-9.777c0.732-1.021,1.405-2.109,1.794-3.309c0.14-0.607,0.323-1.218,0.295-1.838         c-0.011-0.619-0.157-1.236-0.402-1.81c-0.497-1.148-1.456-2.101-2.635-2.561c-1.173-0.491-2.529-0.293-3.59,0.451         l-1.583,1.11l1.217-1.521c0.775-0.968,1.432-2.1,1.82-3.297c0.372-1.185,0.46-2.533-0.174-3.609         c-0.611-1.045-1.686-1.948-2.854-2.369c-1.172-0.439-2.567-0.15-3.49,0.668l-1.39,1.232l0.955-1.59         c1.05-1.748,1.885-3.782,1.896-5.851c0.037-2.051-1.249-4.127-3.363-4.49c-1.221-0.304-2.496,0.013-3.506,0.576l-1.587,0.884         l1.24-1.326c2.008-2.148,4-4.278,5.971-6.387c0.986-1.054,1.967-2.103,2.942-3.146c0.486-0.535,1.004-1.014,1.354-1.581         c0.363-0.568,0.62-1.204,0.747-1.863c0.261-1.317-0.001-2.726-0.754-3.811c-0.746-1.087-1.942-1.852-3.229-2.071         c-1.287-0.232-2.649,0.065-3.711,0.796c-0.532,0.355-0.959,0.858-1.439,1.347c-0.467,0.487-0.933,0.972-1.397,1.455         c-7.425,7.726-14.404,14.989-20.775,21.619l-0.475,0.495l0.062-0.683c0.366-4.014,0.717-7.874,1.052-11.551         c0.057-0.93,0.275-1.831,0.003-2.634c-0.238-0.816-0.758-1.528-1.388-2.082c-0.633-0.555-1.381-0.969-2.163-1.198         c-0.777-0.222-1.626-0.233-2.277,0.13l-0.003,0.002l-0.029,0.014c-1.214,0.593-2.155,1.723-2.754,2.901         c-0.638,1.186-0.937,2.479-1.152,3.743c-0.438,2.551-0.852,4.956-1.238,7.203c-0.776,4.487-1.444,8.349-1.991,11.509         c-0.552,3.135-0.982,5.573-1.277,7.249c-0.149,0.811-0.264,1.435-0.346,1.879         C323.413,102.945,323.358,103.158,323.358,103.158z"/>
							</g>
						</g>
					</g>
				</g>
				<g>
					<g>
						<g>
							<path style="fill:#F5F5F5;" d="M335.78,139.689l-22.542-21.069c-1.713-1.601-1.804-4.287-0.203-6l0.204-0.218        c1.601-1.713,4.287-1.804,6-0.203l22.542,21.069c1.713,1.601,1.804,4.287,0.203,6l-0.204,0.218        C340.179,141.199,337.493,141.29,335.78,139.689z"/>
						</g>
					</g>
					<g>
						<g>
							<g>
								<path style="fill:#E0E0E0;" d="M335.78,139.689c0.021-0.024,0.244,0.199,0.751,0.492c0.505,0.277,1.343,0.618,2.445,0.525         c0.545-0.047,1.144-0.211,1.721-0.539c0.565-0.329,1.107-0.859,1.547-1.485c0.883-1.237,1.042-3.335-0.215-4.844         c-5.919-5.518-14.027-13.078-22.984-21.429c-1.049-0.99-2.623-1.317-3.952-0.869c-0.661,0.229-1.255,0.608-1.723,1.133         c-0.503,0.507-0.853,1.093-1.043,1.749c-0.388,1.305-0.038,2.755,0.833,3.729c0.952,0.946,1.992,1.885,2.948,2.795         c3.864,3.643,7.348,6.927,10.29,9.701c2.884,2.747,5.232,4.984,6.903,6.576c0.777,0.757,1.395,1.359,1.857,1.809         C335.579,139.448,335.793,139.675,335.78,139.689c-0.013,0.014-0.254-0.184-0.699-0.575c-0.48-0.43-1.123-1.007-1.93-1.731         c-1.701-1.56-4.091-3.752-7.027-6.444c-2.966-2.748-6.477-6.002-10.373-9.611c-0.976-0.921-1.97-1.802-2.996-2.817         c-0.996-1.104-1.401-2.754-0.962-4.243c0.206-0.74,0.633-1.44,1.168-1.979c0.512-0.577,1.205-1.03,1.957-1.287         c1.516-0.515,3.32-0.142,4.518,0.991c8.967,8.411,17.091,15.951,22.909,21.592c1.361,1.681,1.141,3.963,0.164,5.278         c-0.492,0.668-1.051,1.191-1.676,1.541c-0.623,0.336-1.264,0.491-1.839,0.524c-1.164,0.063-2.021-0.332-2.52-0.648         C335.971,139.946,335.78,139.689,335.78,139.689z"/>
							</g>
						</g>
					</g>
				</g>
				<g>
					<g>
						<g>
							<path style="fill:#E0E0E0;" d="M349.525,88.03c-0.115-0.107,1.741-2.28,4.145-4.851c2.404-2.573,4.446-4.57,4.561-4.463        c0.115,0.107-1.741,2.279-4.145,4.852C351.682,86.139,349.639,88.137,349.525,88.03z"/>
						</g>
					</g>
				</g>
				<g>
					<g>
						<g>
							<path style="fill:#E0E0E0;" d="M358.137,94.893c-0.115-0.107,0.951-1.434,2.38-2.963c1.43-1.53,2.681-2.682,2.796-2.575        c0.115,0.107-0.951,1.434-2.38,2.964C359.504,93.848,358.252,95,358.137,94.893z"/>
						</g>
					</g>
				</g>
				<g>
					<g>
						<g>
							<path style="fill:#E0E0E0;" d="M363.273,104.058c-0.115-0.107,0.951-1.434,2.38-2.964c1.43-1.53,2.682-2.682,2.796-2.575        s-0.951,1.434-2.38,2.964C364.64,103.013,363.388,104.165,363.273,104.058z"/>
						</g>
					</g>
				</g>
			</g>
			<g>
				<g>
					<g>
						<path style="fill:#E0E0E0;" d="M362.348,55.882c-0.148,0.054-1.275-2.687-2.517-6.121c-1.243-3.435-2.13-6.262-1.982-6.316       c0.148-0.053,1.275,2.687,2.518,6.122C361.609,53.001,362.496,55.829,362.348,55.882z"/>
					</g>
				</g>
			</g>
			<g>
				<g>
					<g>
						<path style="fill:#E0E0E0;" d="M368.302,57.331c-0.13-0.088,1.899-3.304,4.531-7.182c2.633-3.879,4.873-6.951,5.003-6.863       c0.13,0.088-1.898,3.304-4.532,7.183C370.672,54.347,368.432,57.42,368.302,57.331z"/>
					</g>
				</g>
			</g>
			<g>
				<g>
					<g>
						<path style="fill:#E0E0E0;" d="M372.632,62.424c-0.033-0.154,2.957-0.917,6.677-1.704c3.721-0.788,6.763-1.301,6.795-1.147       c0.033,0.154-2.956,0.917-6.677,1.705C375.707,62.064,372.665,62.578,372.632,62.424z"/>
					</g>
				</g>
			</g>
		</g>
		<g>
			<g>
				<g>
					<g>
						<g>
							<polygon style="fill:#F5F5F5;" points="85.931,274.4 53.824,404.225 62.275,404.225 95.175,274.4       "/>
						</g>
					</g>
				</g>
				<g>
					<g>
						<g>
							<polygon style="fill:#F5F5F5;" points="146.408,274.4 176.45,404.225 167.998,404.225 137.165,274.4       "/>
						</g>
					</g>
				</g>
				<g>
					<g>
						<g>
							<polygon style="fill:#F5F5F5;" points="121.306,402.317 111.467,402.317 110.002,253.313 119.84,253.313       "/>
						</g>
					</g>
				</g>
			</g>
			<g>
				<g>
					<g>
						<rect x="45.508" y="165.804" style="fill:#EBEBEB;" width="138.828" height="88.943"/>
					</g>
				</g>
			</g>
			<g>
				<g>
					<g>
						<rect x="80.12" y="273.036" style="fill:#F5F5F5;" width="69.681" height="8.59"/>
					</g>
				</g>
			</g>
			<g>
				<g>
					<g>
						<g>
							<path style="fill:#F5F5F5;" d="M54.733,243.144c0.033,0,0.065,0.511,0.095,1.627h-0.19c-0.143-4.35-0.247-18.761-0.247-35.839        c0.039-10.306,0.074-19.632,0.1-26.496c0.045-3.32,0.082-6.04,0.109-8.029c0.026-0.887,0.047-1.609,0.064-2.183        c0.022-0.499,0.045-0.761,0.069-0.761c0.024,0,0.047,0.262,0.069,0.761c0.017,0.574,0.038,1.297,0.064,2.183        c0.027,1.989,0.064,4.709,0.109,8.029c0.026,6.865,0.061,16.19,0.1,26.496c0,17.078-0.104,31.49-0.247,35.839h-0.19        C54.669,243.656,54.7,243.144,54.733,243.144z"/>
						</g>
					</g>
				</g>
			</g>
			<g>
				<g>
					<g>
						<g>
							<path style="fill:#F5F5F5;" d="M65.066,243.144c0.033,0,0.065,0.511,0.095,1.627h-0.19c-0.143-4.35-0.247-18.761-0.247-35.839        c0.039-10.306,0.074-19.632,0.1-26.496c0.045-3.32,0.082-6.04,0.109-8.029c0.026-0.887,0.047-1.609,0.064-2.183        c0.022-0.499,0.045-0.761,0.069-0.761c0.024,0,0.047,0.262,0.069,0.761c0.017,0.574,0.038,1.297,0.064,2.183        c0.027,1.989,0.064,4.709,0.109,8.029c0.026,6.865,0.061,16.19,0.1,26.496c0,17.078-0.104,31.49-0.247,35.839h-0.19        C65.001,243.656,65.033,243.144,65.066,243.144z"/>
						</g>
					</g>
				</g>
			</g>
			<g>
				<g>
					<g>
						<g>
							<path style="fill:#F5F5F5;" d="M75.398,243.144c0.033,0,0.065,0.511,0.095,1.627h-0.19c-0.143-4.35-0.247-18.761-0.247-35.839        c0.039-10.306,0.074-19.632,0.1-26.496c0.045-3.32,0.082-6.04,0.109-8.029c0.026-0.887,0.047-1.609,0.064-2.183        c0.022-0.499,0.045-0.761,0.069-0.761c0.024,0,0.047,0.262,0.069,0.761c0.017,0.574,0.038,1.297,0.064,2.183        c0.027,1.989,0.064,4.709,0.109,8.029c0.026,6.865,0.061,16.19,0.1,26.496c0,17.078-0.104,31.49-0.247,35.839h-0.19        C75.334,243.656,75.366,243.144,75.398,243.144z"/>
						</g>
					</g>
				</g>
			</g>
			<g>
				<g>
					<g>
						<g>
							<path style="fill:#F5F5F5;" d="M85.731,243.144c0.033,0,0.065,0.511,0.095,1.627h-0.19c-0.143-4.35-0.247-18.761-0.247-35.839        c0.039-10.306,0.074-19.632,0.1-26.496c0.045-3.32,0.082-6.04,0.109-8.029c0.026-0.887,0.047-1.609,0.064-2.183        c0.022-0.499,0.045-0.761,0.069-0.761c0.024,0,0.047,0.262,0.069,0.761c0.017,0.574,0.038,1.297,0.064,2.183        c0.027,1.989,0.064,4.709,0.109,8.029c0.026,6.865,0.061,16.19,0.1,26.496c0,17.078-0.104,31.49-0.247,35.839h-0.19        C85.666,243.656,85.698,243.144,85.731,243.144z"/>
						</g>
					</g>
				</g>
			</g>
			<g>
				<g>
					<g>
						<g>
							<path style="fill:#F5F5F5;" d="M96.063,243.144c0.033,0,0.065,0.511,0.095,1.627h-0.19c-0.143-4.35-0.247-18.761-0.247-35.839        c0.039-10.306,0.074-19.632,0.1-26.496c0.045-3.32,0.082-6.04,0.109-8.029c0.026-0.887,0.047-1.609,0.064-2.183        c0.022-0.499,0.045-0.761,0.069-0.761c0.024,0,0.047,0.262,0.069,0.761c0.017,0.574,0.038,1.297,0.064,2.183        c0.027,1.989,0.064,4.709,0.109,8.029c0.026,6.865,0.061,16.19,0.1,26.496c0,17.078-0.104,31.49-0.247,35.839h-0.19        C95.999,243.656,96.031,243.144,96.063,243.144z"/>
						</g>
					</g>
				</g>
			</g>
			<g>
				<g>
					<g>
						<g>
							<path style="fill:#F5F5F5;" d="M106.396,243.144c0.033,0,0.065,0.511,0.095,1.627h-0.19        c-0.143-4.35-0.247-18.761-0.247-35.839c0.039-10.306,0.074-19.632,0.1-26.496c0.045-3.32,0.082-6.04,0.109-8.029        c0.026-0.887,0.047-1.609,0.064-2.183c0.022-0.499,0.045-0.761,0.069-0.761c0.024,0,0.047,0.262,0.069,0.761        c0.017,0.574,0.038,1.297,0.064,2.183c0.027,1.989,0.064,4.709,0.109,8.029c0.026,6.865,0.061,16.19,0.1,26.496        c0,17.078-0.104,31.49-0.247,35.839h-0.19C106.331,243.656,106.363,243.144,106.396,243.144z"/>
						</g>
					</g>
				</g>
			</g>
			<g>
				<g>
					<g>
						<g>
							<path style="fill:#F5F5F5;" d="M116.729,243.144c0.033,0,0.065,0.511,0.095,1.627h-0.19        c-0.143-4.35-0.247-18.761-0.247-35.839c0.039-10.306,0.074-19.632,0.1-26.496c0.045-3.32,0.082-6.04,0.109-8.029        c0.026-0.887,0.047-1.609,0.064-2.183c0.022-0.499,0.045-0.761,0.069-0.761c0.023,0,0.047,0.262,0.069,0.761        c0.017,0.574,0.038,1.297,0.064,2.183c0.027,1.989,0.064,4.709,0.109,8.029c0.026,6.865,0.061,16.19,0.1,26.496        c0,17.078-0.104,31.49-0.247,35.839h-0.19C116.664,243.656,116.696,243.144,116.729,243.144z"/>
						</g>
					</g>
				</g>
			</g>
			<g>
				<g>
					<g>
						<g>
							<path style="fill:#F5F5F5;" d="M127.061,243.144c0.033,0,0.065,0.511,0.095,1.627h-0.19        c-0.143-4.35-0.247-18.761-0.247-35.839c0.039-10.306,0.074-19.632,0.1-26.496c0.045-3.32,0.082-6.04,0.109-8.029        c0.026-0.887,0.047-1.609,0.064-2.183c0.022-0.499,0.045-0.761,0.069-0.761c0.023,0,0.047,0.262,0.069,0.761        c0.017,0.574,0.038,1.297,0.064,2.183c0.027,1.989,0.064,4.709,0.109,8.029c0.026,6.865,0.061,16.19,0.1,26.496        c0,17.078-0.104,31.49-0.247,35.839h-0.19C126.996,243.656,127.028,243.144,127.061,243.144z"/>
						</g>
					</g>
				</g>
			</g>
			<g>
				<g>
					<g>
						<g>
							<path style="fill:#F5F5F5;" d="M137.394,243.144c0.033,0,0.065,0.511,0.095,1.627h-0.19        c-0.143-4.35-0.247-18.761-0.247-35.839c0.039-10.306,0.074-19.632,0.1-26.496c0.045-3.32,0.082-6.04,0.109-8.029        c0.026-0.887,0.047-1.609,0.064-2.183c0.022-0.499,0.046-0.761,0.069-0.761c0.024,0,0.047,0.262,0.069,0.761        c0.017,0.574,0.038,1.297,0.064,2.183c0.027,1.989,0.064,4.709,0.109,8.029c0.026,6.865,0.061,16.19,0.1,26.496        c0,17.078-0.104,31.49-0.247,35.839h-0.19C137.329,243.656,137.361,243.144,137.394,243.144z"/>
						</g>
					</g>
				</g>
			</g>
			<g>
				<g>
					<g>
						<g>
							<path style="fill:#F5F5F5;" d="M147.726,243.144c0.033,0,0.065,0.511,0.095,1.627h-0.19        c-0.143-4.35-0.247-18.761-0.247-35.839c0.039-10.306,0.074-19.632,0.1-26.496c0.045-3.32,0.082-6.04,0.109-8.029        c0.026-0.887,0.047-1.609,0.064-2.183c0.022-0.499,0.045-0.761,0.069-0.761c0.024,0,0.047,0.262,0.069,0.761        c0.017,0.574,0.038,1.297,0.064,2.183c0.027,1.989,0.064,4.709,0.109,8.029c0.026,6.865,0.061,16.19,0.1,26.496        c0,17.078-0.104,31.49-0.247,35.839h-0.19C147.661,243.656,147.693,243.144,147.726,243.144z"/>
						</g>
					</g>
				</g>
			</g>
			<g>
				<g>
					<g>
						<g>
							<path style="fill:#F5F5F5;" d="M158.059,243.144c0.033,0,0.065,0.511,0.095,1.627h-0.19        c-0.143-4.35-0.247-18.761-0.247-35.839c0.039-10.306,0.074-19.632,0.1-26.496c0.045-3.32,0.082-6.04,0.109-8.029        c0.026-0.887,0.047-1.609,0.064-2.183c0.022-0.499,0.045-0.761,0.069-0.761c0.024,0,0.047,0.262,0.069,0.761        c0.017,0.574,0.038,1.297,0.064,2.183c0.027,1.989,0.064,4.709,0.109,8.029c0.026,6.865,0.061,16.19,0.1,26.496        c0,17.078-0.104,31.49-0.247,35.839h-0.19C157.994,243.656,158.026,243.144,158.059,243.144z"/>
						</g>
					</g>
				</g>
			</g>
			<g>
				<g>
					<g>
						<g>
							<path style="fill:#F5F5F5;" d="M168.391,243.144c0.033,0,0.065,0.511,0.095,1.627h-0.19        c-0.143-4.35-0.247-18.761-0.247-35.839c0.039-10.306,0.074-19.632,0.1-26.496c0.045-3.32,0.082-6.04,0.109-8.029        c0.026-0.887,0.047-1.609,0.064-2.183c0.022-0.499,0.045-0.761,0.069-0.761c0.024,0,0.047,0.262,0.069,0.761        c0.017,0.574,0.038,1.297,0.064,2.183c0.027,1.989,0.064,4.709,0.109,8.029c0.026,6.865,0.061,16.19,0.1,26.496        c0,17.078-0.104,31.49-0.247,35.839h-0.19C168.326,243.656,168.358,243.144,168.391,243.144z"/>
						</g>
					</g>
				</g>
			</g>
			<g>
				<g>
					<g>
						<g>
							<path style="fill:#F5F5F5;" d="M178.724,243.144c0.033,0,0.065,0.511,0.095,1.627h-0.19        c-0.143-4.35-0.247-18.761-0.247-35.839c0.039-10.306,0.074-19.632,0.1-26.496c0.045-3.32,0.082-6.04,0.109-8.029        c0.026-0.887,0.047-1.609,0.064-2.183c0.022-0.499,0.045-0.761,0.069-0.761c0.023,0,0.047,0.262,0.069,0.761        c0.017,0.574,0.038,1.297,0.064,2.183c0.027,1.989,0.064,4.709,0.109,8.029c0.026,6.865,0.061,16.19,0.1,26.496        c0,17.078-0.104,31.49-0.247,35.839h-0.19C178.659,243.656,178.691,243.144,178.724,243.144z"/>
						</g>
					</g>
				</g>
			</g>
		</g>
	</g>
	<g id="Background_Simple" style="display:none;">
		<g style="display:inline;">
			<path style="fill:#F5F5F5;" d="M446.806,222.804c-16.535-31.399-50.042-53.172-85.451-55.526    c-14.447-0.96-28.926,1.089-43.405,0.968c-14.479-0.122-29.633-2.725-41.012-11.677c-15.332-12.062-20.522-32.637-30.805-49.214    c-17.509-28.226-51.24-44.6-84.453-44.185c-33.213,0.415-65.263,16.454-88.151,40.526    c-43.913,46.185-52.394,120.788-24.181,177.933c28.213,57.144,89.423,95.107,152.962,100.03l153.8-5.818    c35.482-0.571,70.041-20.632,88.134-51.16C462.336,294.15,463.341,254.203,446.806,222.804z"/>
		</g>
	</g>
	<g id="Character">
		<g>
			<g>
				<g>
					<g>
						<g>
							<g>
								<g>
									<g>
										<g>
											<g>
												<g>
													<g>
														<g>
															<g>
																<g>
																	<g>
																		<g>
																			<g>
																				<g>
																					<g>
																						<g>
																							<g>
																								<path style="fill:#e4897b;" d="M283.69,102.27l-7.795,70.193c-1.326,11.937-5.712,29.201-24.489,26.244l0,0                         c-16.098-3.794-18.517-19.776-17.269-30.914c0.592-5.283,1.075-9.691,1.1-10.237                         c0,0-17.682-3.665-17.009-21.495c0.326-8.616,2.441-26.308,4.541-42.291                         c2.254-17.166,17.333-29.711,34.624-28.844l1.719,0.086C277.597,67.025,286.214,83.848,283.69,102.27z"/>
																							</g>
																						</g>
																					</g>
																				</g>
																			</g>
																		</g>
																	</g>
																</g>
															</g>
														</g>
													</g>
												</g>
											</g>
										</g>
									</g>
								</g>
								<g>
									<g>
										<g>
											<g>
												<g>
													<g>
														<g>
															<g>
																<g>
																	<g>
																		<g>
																			<g>
																				<g>
																					<g>
																						<g>
																							<g>
																								<path style="fill:#b66e62;" d="M235.238,157.556c0,0,11.198,1.222,23.544-5.695                         c0,0-6.312,12.731-24.012,10.234L235.238,157.556z"/>
																							</g>
																						</g>
																					</g>
																				</g>
																			</g>
																		</g>
																	</g>
																</g>
															</g>
														</g>
													</g>
												</g>
											</g>
										</g>
									</g>
								</g>
							</g>
						</g>
					</g>
					<g>
						<g>
							<g>
								<g>
									<g>
										<g>
											<g>
												<g>
													<g>
														<g>
															<g>
																<g>
																	<g>
																		<g>
																			<g>
																				<g>
																					<g>
																						<g>
																							<g>
																								<g>
																									<g>
																										<g>
																											<g>
																												<path style="fill:#263238;" d="M252.04,104.73c0.307,0.4,2.546-0.988,5.513-0.702                             c2.967,0.242,4.993,2.009,5.351,1.667c0.174-0.15-0.11-0.848-0.99-1.644                             c-0.866-0.792-2.392-1.625-4.241-1.79c-1.849-0.162-3.47,0.388-4.431,1.019                             C252.26,103.912,251.887,104.549,252.04,104.73z"/>
																											</g>
																										</g>
																									</g>
																								</g>
																							</g>
																						</g>
																					</g>
																				</g>
																			</g>
																		</g>
																	</g>
																</g>
															</g>
														</g>
													</g>
												</g>
											</g>
										</g>
										<g>
											<g>
												<g>
													<g>
														<g>
															<g>
																<g>
																	<g>
																		<g>
																			<g>
																				<g>
																					<g>
																						<g>
																							<g>
																								<g>
																									<g>
																										<g>
																											<path style="fill:#263238;" d="M251.372,110.855c-0.108,1.269,0.876,2.407,2.199,2.545                            c1.32,0.137,2.481-0.777,2.59-2.046c0.109-1.268-0.876-2.408-2.197-2.546                            C252.642,108.67,251.481,109.586,251.372,110.855z"/>
																										</g>
																									</g>
																								</g>
																							</g>
																						</g>
																					</g>
																				</g>
																			</g>
																		</g>
																	</g>
																</g>
															</g>
														</g>
													</g>
												</g>
											</g>
										</g>
										<g>
											<g>
												<g>
													<g>
														<g>
															<g>
																<g>
																	<g>
																		<g>
																			<g>
																				<g>
																					<g>
																						<g>
																							<g>
																								<g>
																									<g>
																										<g>
																											<path style="fill:#263238;" d="M242.093,124.376c0.021-0.155-1.667-0.535-4.407-1.025                            c-0.696-0.107-1.35-0.279-1.444-0.762c-0.14-0.514,0.191-1.253,0.571-2.049                            c0.742-1.659,1.519-3.398,2.335-5.221c3.252-7.437,5.643-13.565,5.343-13.694                            c-0.301-0.128-3.181,5.795-6.432,13.231c-0.785,1.835-1.536,3.583-2.25,5.257                            c-0.304,0.781-0.804,1.66-0.5,2.726c0.162,0.532,0.656,0.937,1.098,1.079                            c0.442,0.16,0.835,0.187,1.18,0.225C240.354,124.432,242.075,124.531,242.093,124.376z"/>
																										</g>
																									</g>
																								</g>
																							</g>
																						</g>
																					</g>
																				</g>
																			</g>
																		</g>
																	</g>
																</g>
															</g>
														</g>
													</g>
												</g>
											</g>
										</g>
									</g>
								</g>
							</g>
							<g>
								<g>
									<g>
										<g>
											<g>
												<g>
													<g>
														<g>
															<g>
																<g>
																	<g>
																		<g>
																			<g>
																				<g>
																					<g>
																						<g>
																							<path style="fill:#263238;" d="M254.671,93.772c0.204,0.691,2.632,0.49,5.447,0.986                        c2.826,0.436,5.068,1.409,5.474,0.819c0.182-0.283-0.184-0.942-1.075-1.646                        c-0.883-0.702-2.313-1.399-4.004-1.68c-1.691-0.277-3.263-0.076-4.316,0.306                        C255.135,92.937,254.585,93.444,254.671,93.772z"/>
																						</g>
																					</g>
																				</g>
																			</g>
																		</g>
																	</g>
																</g>
															</g>
														</g>
													</g>
												</g>
											</g>
										</g>
									</g>
								</g>
							</g>
							<g>
								<g>
									<g>
										<g>
											<g>
												<g>
													<g>
														<g>
															<g>
																<g>
																	<g>
																		<g>
																			<g>
																				<g>
																					<g>
																						<g>
																							<path style="fill:#263238;" d="M226.885,93.767c0.244,0.573,2.624,0.265,5.43,0.524                        c2.812,0.209,5.082,0.904,5.446,0.382c0.162-0.25-0.239-0.786-1.161-1.332                        c-0.913-0.544-2.366-1.053-4.05-1.194c-1.684-0.138-3.22,0.121-4.236,0.504                        C227.29,93.034,226.779,93.495,226.885,93.767z"/>
																						</g>
																					</g>
																				</g>
																			</g>
																		</g>
																	</g>
																</g>
															</g>
														</g>
													</g>
												</g>
											</g>
										</g>
									</g>
								</g>
							</g>
						</g>
					</g>
					<g>
						<g>
							<g>
								<g>
									<g>
										<g>
											<g>
												<g>
													<g>
														<g>
															<g>
																<g>
																	<g>
																		<g>
																			<path style="fill:#e4897b;" d="M281.573,115.39c0.311-0.116,12.425-3.007,11.424,9.155                    c-1,12.162-13.004,8.649-12.997,8.299C280.009,132.494,281.573,115.39,281.573,115.39z"/>
																		</g>
																	</g>
																</g>
															</g>
														</g>
													</g>
												</g>
											</g>
										</g>
									</g>
								</g>
							</g>
						</g>
					</g>
					<g>
						<g>
							<g>
								<g>
									<g>
										<g>
											<g>
												<g>
													<g>
														<g>
															<g>
																<g>
																	<g>
																		<g>
																			<g>
																				<path style="fill:#b66e62;" d="M284.095,128.542c0.057-0.034,0.2,0.166,0.544,0.359                     c0.336,0.188,0.928,0.348,1.581,0.163c1.323-0.366,2.573-2.317,2.813-4.504c0.122-1.104-0.023-2.177-0.344-3.082                     c-0.298-0.92-0.822-1.589-1.46-1.757c-0.631-0.202-1.121,0.148-1.298,0.478c-0.191,0.326-0.134,0.576-0.2,0.591                     c-0.037,0.027-0.244-0.225-0.105-0.72c0.07-0.237,0.236-0.513,0.541-0.723c0.312-0.213,0.751-0.299,1.197-0.213                     c0.933,0.142,1.706,1.074,2.058,2.068c0.404,1.002,0.593,2.21,0.456,3.45c-0.28,2.445-1.723,4.634-3.523,4.998                     c-0.874,0.153-1.566-0.164-1.911-0.481C284.093,128.838,284.051,128.56,284.095,128.542z"/>
																			</g>
																		</g>
																	</g>
																</g>
															</g>
														</g>
													</g>
												</g>
											</g>
										</g>
									</g>
								</g>
							</g>
						</g>
					</g>
					<g>
						<g>
							<path style="fill:#263238;" d="M243.912,133.108c-0.094-0.322,2.364-0.739,4.306-2.757c0.969-0.992,1.596-2.126,2.065-2.953        c0.462-0.835,0.797-1.353,0.923-1.297c0.118,0.054,0.015,0.645-0.298,1.576c-0.319,0.92-0.898,2.22-1.995,3.347        c-1.085,1.141-2.424,1.737-3.384,1.984C244.559,133.269,243.931,133.215,243.912,133.108z"/>
						</g>
					</g>
					<g>
						<g>
							<g>
								<g>
									<g>
										<g>
											<g>
												<g>
													<g>
														<g>
															<path style="fill:#263238;" d="M226.011,100.898c0.307,0.4,2.546-0.988,5.513-0.702                c2.967,0.242,4.993,2.009,5.351,1.667c0.174-0.151-0.11-0.848-0.99-1.643c-0.866-0.792-2.392-1.625-4.241-1.79                c-1.849-0.162-3.47,0.388-4.431,1.019C226.231,100.08,225.858,100.718,226.011,100.898z"/>
														</g>
													</g>
												</g>
											</g>
										</g>
									</g>
								</g>
							</g>
						</g>
					</g>
					<g>
						<g>
							<g>
								<g>
									<g>
										<g>
											<g>
												<g>
													<g>
														<path style="fill:#263238;" d="M225.803,107.693c-0.108,1.269,0.876,2.407,2.199,2.545               c1.32,0.138,2.481-0.777,2.59-2.046c0.109-1.268-0.876-2.408-2.197-2.546               C227.072,105.508,225.912,106.425,225.803,107.693z"/>
													</g>
												</g>
											</g>
										</g>
									</g>
								</g>
							</g>
						</g>
					</g>
				</g>
				<g>
					<path style="fill:#263238;" d="M291.182,104.507c-0.895,3.393-3.013,11.127-6.047,10.437c-6.014-1.369-5.643,8.258-8.541,7.124      c-2.857-1.118-3.58-8.78-3.257-11.831c1.007-9.525,4.662-16.372,0.636-27.249c-2.628-4.34-7.199-7.231-12.273-7.231      c-5.074-0.001-9.915,2.68-12.544,7.02c-0.615-3.328-2.357-8.328-5.37-9.868c-3.013-1.541-6.981-1.259-9.493,1.009      c-2.512,2.268-3.116,6.501-1.035,9.17c-1.353,0.475-2.993-0.073-3.79-1.265c-0.089,1.56,0.503,3.148,1.593,4.268      c-1.228-0.28-2.346-1.021-3.083-2.044c0.329,1.376,0.658,2.751,0.987,4.127c-5.038,0.25-10.084-4.517-11.584-8.828      c-2.274-6.535-0.79-13.213,2.753-19.155c3.544-5.942,10.037-10.222,16.955-10.319c6.918-0.097,12.786,3.047,15.602,9.367      c4.416-3.281,13.484-4.591,18.543-2.432c5.059,2.16,8.807,7.13,9.493,12.588c3.1-1.397,6.883-0.454,9.571,1.629      c0.224,0.174,0.442,0.354,0.653,0.54c3.695,3.257,5.293,8.305,4.481,13.163c-0.322,1.927-0.939,3.927-1.294,5.475      C293.082,94.8,291.182,104.507,291.182,104.507z"/>
				</g>
				<g>
					<g>
						<path style="fill:#455A64;" d="M228.675,81.532c-0.012,0.014-0.152-0.092-0.409-0.309c-0.257-0.215-0.619-0.561-1.016-1.065       c-0.805-0.983-1.768-2.664-2.09-4.961c-0.335-2.249,0.122-5.247,2.174-7.597c1.961-2.329,5.33-4.032,8.913-3.604       c1.769,0.207,3.409,0.877,4.813,1.76c1.408,0.886,2.606,1.973,3.587,3.132c1.987,2.312,3.153,4.855,3.773,7.051       c0.63,2.206,0.733,4.077,0.711,5.348c-0.029,0.638-0.058,1.131-0.112,1.463c-0.044,0.332-0.075,0.505-0.093,0.503       c-0.144,0.017,0.439-2.868-0.859-7.21c-0.653-2.142-1.829-4.609-3.783-6.841c-1.914-2.207-4.713-4.274-8.099-4.688       c-3.377-0.408-6.599,1.195-8.488,3.399c-1.971,2.218-2.448,5.054-2.173,7.239c0.265,2.223,1.146,3.885,1.886,4.884       C228.157,81.049,228.714,81.491,228.675,81.532z"/>
					</g>
				</g>
				<g>
					<g>
						<path style="fill:#455A64;" d="M226.488,86.853c-0.016,0.009-0.143-0.186-0.37-0.566c-0.226-0.38-0.555-0.943-0.961-1.679       c-0.797-1.475-1.99-3.618-2.92-6.502c-0.451-1.441-0.814-3.079-0.886-4.868c-0.067-1.781,0.136-3.731,0.893-5.618       c0.742-1.887,2.112-3.642,3.927-4.899c1.816-1.25,4.022-2.07,6.35-2.266c2.331-0.21,4.62,0.195,6.683,0.911       c2.065,0.731,3.92,1.781,5.526,2.98c3.223,2.398,5.377,5.546,6.157,8.497c0.804,2.958,0.394,5.51-0.184,7.084       c-0.28,0.802-0.619,1.371-0.841,1.754c-0.249,0.369-0.387,0.556-0.402,0.546c-0.054-0.03,0.532-0.779,1.051-2.365       c0.509-1.563,0.848-4.059,0.022-6.919c-0.802-2.851-2.923-5.888-6.089-8.212c-3.126-2.304-7.349-4.135-11.877-3.757       c-2.238,0.188-4.362,0.975-6.105,2.166c-1.743,1.201-3.049,2.857-3.773,4.66c-0.737,1.802-0.952,3.688-0.906,5.423       c0.052,1.744,0.385,3.348,0.807,4.775c0.87,2.854,2.007,5.015,2.747,6.515c0.36,0.71,0.65,1.282,0.874,1.723       C226.408,86.632,226.504,86.844,226.488,86.853z"/>
					</g>
				</g>
				<g>
					<g>
						<path style="fill:#455A64;" d="M286.851,96.986c-0.064-0.075,1.065-0.908,2.457-2.642c1.39-1.713,2.969-4.441,3.581-7.77       c0.611-3.331,0.103-6.442-0.589-8.537c-0.686-2.116-1.445-3.295-1.359-3.342c0.027-0.017,0.242,0.26,0.568,0.8       c0.328,0.54,0.745,1.359,1.139,2.422c0.797,2.107,1.384,5.31,0.753,8.75c-0.632,3.439-2.317,6.224-3.81,7.912       c-0.746,0.854-1.427,1.472-1.925,1.86C287.169,96.829,286.87,97.011,286.851,96.986z"/>
					</g>
				</g>
				<g>
					<g>
						<path style="fill:#455A64;" d="M276.118,96.895c-0.023-0.05,0.583-0.275,1.5-0.933c0.9-0.654,2.131-1.814,2.887-3.646       l0.47-1.137l-0.082,1.23c-0.111,1.66-0.238,3.574-0.377,5.648l-0.389-0.221c1.368-0.975,2.69-2.281,3.761-3.856       c1.366-1.99,2.173-4.201,2.488-6.263c0.312-2.07,0.165-3.982-0.161-5.532c-0.672-3.123-1.886-4.782-1.777-4.83       c0.015-0.01,0.094,0.088,0.229,0.283c0.141,0.192,0.322,0.492,0.545,0.887c0.436,0.791,0.978,1.999,1.362,3.58       c0.38,1.577,0.572,3.54,0.276,5.682c-0.299,2.135-1.121,4.429-2.533,6.487c-1.107,1.628-2.482,2.974-3.907,3.968l-0.432,0.302       l0.043-0.523c0.172-2.072,0.33-3.983,0.468-5.641l0.387,0.093c-0.842,1.908-2.169,3.061-3.132,3.677       c-0.488,0.312-0.898,0.5-1.18,0.614C276.28,96.871,276.125,96.913,276.118,96.895z"/>
					</g>
				</g>
				<g>
					<g>
						<path style="fill:#455A64;" d="M272.278,72.174c-0.102,0.075-0.644-1.664-2.805-3.336c-1.069-0.812-2.533-1.567-4.282-1.873       c-1.742-0.316-3.75-0.108-5.657,0.644c-1.907,0.763-3.512,1.969-4.673,3.318c-1.175,1.345-1.948,2.785-2.464,4.036       c-1.009,2.532-1.08,4.267-1.186,4.247c-0.029-0.002-0.039-0.431,0.057-1.199c0.096-0.766,0.312-1.873,0.786-3.181       c0.484-1.299,1.245-2.803,2.444-4.216c1.186-1.418,2.853-2.692,4.845-3.489c1.992-0.786,4.105-0.991,5.934-0.632       c1.834,0.349,3.343,1.176,4.424,2.056c1.08,0.895,1.753,1.828,2.121,2.511c0.182,0.344,0.309,0.617,0.373,0.812       C272.266,72.064,272.294,72.167,272.278,72.174z"/>
					</g>
				</g>
				<g>
					<g>
						<path style="fill:#455A64;" d="M269.316,63.25c-0.051,0.099-1.164-0.743-3.276-1.177c-2.072-0.451-5.212-0.302-8.059,1.328       c-2.844,1.645-4.63,4.179-5.589,6.084c-0.977,1.927-1.274,3.257-1.368,3.23c-0.031-0.007,0.012-0.345,0.16-0.941       c0.146-0.596,0.42-1.446,0.877-2.45c0.893-1.986,2.689-4.656,5.66-6.375c2.983-1.709,6.273-1.798,8.399-1.236       c1.076,0.272,1.899,0.649,2.425,0.971C269.074,63.002,269.333,63.226,269.316,63.25z"/>
					</g>
				</g>
			</g>
			<g>
				<g>
					<path style="fill:#263238;" d="M197.263,340.228l111.758,1.523c0,0,31.254-13.078,39.84-13.43      c8.586-0.352,25.63,0.74,33.514,13.43c8.149,13.116,9.288,36.256-15.826,53.073C342.094,411.2,230.261,426.332,214.93,424.94      l-28.259-37.932c0,0-0.296-31.087,0-32.568c0.296-1.48,5.033-14.803,5.033-14.803L197.263,340.228z"/>
				</g>
				<g>
					<g>
						<g>
							<g>
								<g>
									<g>
										<g>
											<g>
												<g>
													<g>
														<g>
															<g>
																<g>
																	<g>
																		<path style="fill:#407bff;" d="M264.164,392.707l57.904,21.508l-26.391,72.177                   c-6.74-2.943-6.93-45.345-6.93-45.345l-37.665-12.258L264.164,392.707z"/>
																	</g>
																</g>
															</g>
														</g>
													</g>
												</g>
											</g>
										</g>
									</g>
								</g>
							</g>
						</g>
						<g style="opacity:0.6;">
							<g>
								<g>
									<g>
										<g>
											<g>
												<g>
													<g>
														<g>
															<g>
																<g>
																	<g>
																		<g>
																			<path style="fill:#FFFFFF;" d="M293.78,417.586c0.893-1.257,2.817-1.648,4.11-0.808                    c1.293,0.84,1.707,2.792,0.837,4.065c-0.871,1.273-3.166,1.813-4.356,0.833c-1.191-0.98-1.552-3.299-0.401-4.326"/>
																		</g>
																	</g>
																</g>
															</g>
														</g>
													</g>
												</g>
											</g>
										</g>
									</g>
								</g>
							</g>
						</g>
						<g>
							<g>
								<g>
									<g>
										<g>
											<g>
												<g>
													<g>
														<g>
															<g>
																<g>
																	<g>
																		<path style="fill:#263238;" d="M322.068,414.215l-5.845-2.171l-23.166,70.159c0,0,0.223,3.725,2.619,4.189                   L322.068,414.215z"/>
																	</g>
																</g>
															</g>
														</g>
													</g>
												</g>
											</g>
										</g>
									</g>
								</g>
							</g>
						</g>
						<g>
							<g>
								<g>
									<g>
										<g>
											<g>
												<g>
													<g>
														<g>
															<g>
																<g>
																	<g>
																		<g>
																			<path style="fill:#263238;" d="M287.953,442.083c0.356,0.117,1.16-1.587,2.928-2.906                    c1.733-1.366,3.586-1.702,3.565-2.077c0.05-0.35-2.249-0.595-4.36,1.041                    C287.96,439.757,287.601,442.041,287.953,442.083z"/>
																		</g>
																	</g>
																</g>
															</g>
														</g>
													</g>
												</g>
											</g>
										</g>
									</g>
								</g>
							</g>
						</g>
						<g>
							<g>
								<g>
									<g>
										<g>
											<g>
												<g>
													<g>
														<g>
															<g>
																<g>
																	<g>
																		<g>
																			<path style="fill:#263238;" d="M288.316,450.798c0.312,0.206,1.469-1.102,3.398-1.753                    c1.909-0.709,3.632-0.422,3.744-0.778c0.176-0.311-1.799-1.31-4.181-0.453                    C288.888,448.649,287.982,450.668,288.316,450.798z"/>
																		</g>
																	</g>
																</g>
															</g>
														</g>
													</g>
												</g>
											</g>
										</g>
									</g>
								</g>
							</g>
						</g>
						<g>
							<g>
								<g>
									<g>
										<g>
											<g>
												<g>
													<g>
														<g>
															<g>
																<g>
																	<g>
																		<g>
																			<path style="fill:#263238;" d="M295.804,458.411c0.192-0.293-1.39-1.427-3.65-1.228                    c-2.263,0.183-3.632,1.567-3.393,1.823c0.217,0.305,1.644-0.386,3.503-0.522                    C294.118,458.306,295.641,458.748,295.804,458.411z"/>
																		</g>
																	</g>
																</g>
															</g>
														</g>
													</g>
												</g>
											</g>
										</g>
									</g>
								</g>
							</g>
						</g>
						<g>
							<g>
								<g>
									<g>
										<g>
											<g>
												<g>
													<g>
														<g>
															<g>
																<g>
																	<g>
																		<g>
																			<path style="fill:#263238;" d="M279.678,438.337c0.375-0.03,0.48-1.825,1.344-3.767                    c0.824-1.96,2.06-3.266,1.825-3.56c-0.18-0.297-2.038,0.74-3.024,3.042                    C278.821,436.345,279.338,438.409,279.678,438.337z"/>
																		</g>
																	</g>
																</g>
															</g>
														</g>
													</g>
												</g>
											</g>
										</g>
									</g>
								</g>
							</g>
						</g>
						<g>
							<g>
								<g>
									<g>
										<g>
											<g>
												<g>
													<g>
														<g>
															<g>
																<g>
																	<g>
																		<g>
																			<path style="fill:#263238;" d="M271.743,433.487c0.144,0.057,0.871-1.256,1.303-3.622                    c0.213-1.177,0.328-2.615,0.221-4.206c-0.054-0.795-0.164-1.628-0.342-2.479c-0.092-0.41-0.164-0.884-0.451-1.402                    c-0.225-0.525-1.078-1.089-1.816-0.847c-0.69,0.167-1.168,0.733-1.37,1.249c-0.212,0.526-0.263,0.996-0.308,1.424                    c-0.099,0.875-0.108,1.726-0.051,2.53c0.123,1.608,0.507,3.019,0.969,4.133c0.938,2.242,2.046,3.295,2.158,3.199                    c0.175-0.117-0.631-1.336-1.288-3.508c-0.326-1.083-0.588-2.409-0.638-3.888c-0.02-0.74,0.012-1.516,0.119-2.31                    c0.078-0.838,0.311-1.49,0.723-1.562c0.156-0.024,0.21-0.014,0.375,0.227c0.146,0.24,0.235,0.624,0.327,1.029                    c0.183,0.791,0.31,1.566,0.393,2.309c0.164,1.488,0.151,2.847,0.061,3.984                    C271.951,432.027,271.55,433.423,271.743,433.487z"/>
																		</g>
																	</g>
																</g>
															</g>
														</g>
													</g>
												</g>
											</g>
										</g>
									</g>
								</g>
							</g>
						</g>
						<g>
							<g>
								<g>
									<g>
										<g>
											<g>
												<g>
													<g>
														<g>
															<g>
																<g>
																	<g>
																		<g>
																			<path style="fill:#263238;" d="M272.416,433.213c0.1-0.105-0.907-1.266-3.143-2.23                    c-1.11-0.474-2.525-0.858-4.138-0.954c-0.806-0.043-1.658-0.012-2.531,0.118                    c-0.868,0.162-2.011,0.329-2.668,1.639c-0.288,0.704,0.053,1.501,0.456,1.878c0.401,0.417,0.803,0.618,1.19,0.856                    c0.795,0.441,1.627,0.727,2.434,0.892c1.619,0.335,3.127,0.173,4.299-0.178c2.386-0.726,3.345-2.043,3.236-2.117                    c-0.134-0.182-1.263,0.798-3.455,1.22c-1.081,0.208-2.423,0.254-3.815-0.099c-0.695-0.174-1.4-0.443-2.065-0.83                    c-0.726-0.393-1.24-0.907-1.056-1.166c0.125-0.361,0.926-0.76,1.646-0.831c0.783-0.134,1.553-0.187,2.287-0.179                    c1.47,0.025,2.791,0.284,3.863,0.619C271.11,432.526,272.292,433.385,272.416,433.213z"/>
																		</g>
																	</g>
																</g>
															</g>
														</g>
													</g>
												</g>
											</g>
										</g>
									</g>
								</g>
							</g>
						</g>
					</g>
				</g>
				<g>
					<g>
						<g>
							<g>
								<g>
									<g>
										<g>
											<g>
												<g>
													<g>
														<g>
															<g>
																<g>
																	<g>
																		<path style="fill:#407bff;" d="M216.4,383.788l-56.035,25.991l31.98,69.881c6.488-3.464,3.346-45.749,3.346-45.749                   l36.586-15.18L216.4,383.788z"/>
																	</g>
																</g>
															</g>
														</g>
													</g>
												</g>
											</g>
										</g>
									</g>
								</g>
							</g>
						</g>
						<g style="opacity:0.6;">
							<g>
								<g>
									<g>
										<g>
											<g>
												<g>
													<g>
														<g>
															<g>
																<g>
																	<g>
																		<g>
																			<path style="fill:#FFFFFF;" d="M188.831,410.917c-0.989-1.183-2.937-1.421-4.16-0.482                    c-1.223,0.939-1.482,2.918-0.515,4.119c0.968,1.2,3.298,1.558,4.408,0.488c1.11-1.07,1.288-3.411,0.06-4.344"/>
																		</g>
																	</g>
																</g>
															</g>
														</g>
													</g>
												</g>
											</g>
										</g>
									</g>
								</g>
							</g>
						</g>
						<g>
							<g>
								<g>
									<g>
										<g>
											<g>
												<g>
													<g>
														<g>
															<g>
																<g>
																	<g>
																		<path style="fill:#263238;" d="M160.365,409.78l5.656-2.623l28.607,68.122c0,0,0.07,3.731-2.282,4.382                   L160.365,409.78z"/>
																	</g>
																</g>
															</g>
														</g>
													</g>
												</g>
											</g>
										</g>
									</g>
								</g>
							</g>
						</g>
						<g>
							<g>
								<g>
									<g>
										<g>
											<g>
												<g>
													<g>
														<g>
															<g>
																<g>
																	<g>
																		<g>
																			<path style="fill:#263238;" d="M196.565,434.881c-0.346,0.145-1.282-1.491-3.148-2.667                    c-1.835-1.226-3.709-1.415-3.717-1.791c-0.078-0.345,2.195-0.769,4.429,0.695                    C196.376,432.562,196.912,434.811,196.565,434.881z"/>
																		</g>
																	</g>
																</g>
															</g>
														</g>
													</g>
												</g>
											</g>
										</g>
									</g>
								</g>
							</g>
						</g>
						<g>
							<g>
								<g>
									<g>
										<g>
											<g>
												<g>
													<g>
														<g>
															<g>
																<g>
																	<g>
																		<g>
																			<path style="fill:#263238;" d="M196.888,443.598c-0.295,0.23-1.551-0.983-3.525-1.481                    c-1.959-0.557-3.653-0.135-3.794-0.481c-0.2-0.296,1.69-1.447,4.132-0.78                    C196.149,441.5,197.211,443.442,196.888,443.598z"/>
																		</g>
																	</g>
																</g>
															</g>
														</g>
													</g>
												</g>
											</g>
										</g>
									</g>
								</g>
							</g>
						</g>
						<g>
							<g>
								<g>
									<g>
										<g>
											<g>
												<g>
													<g>
														<g>
															<g>
																<g>
																	<g>
																		<g>
																			<path style="fill:#263238;" d="M190.021,451.775c-0.215-0.277,1.273-1.532,3.543-1.511                    c2.271,0.005,3.744,1.277,3.526,1.551c-0.192,0.321-1.669-0.256-3.533-0.245                    C191.694,451.538,190.21,452.099,190.021,451.775z"/>
																		</g>
																	</g>
																</g>
															</g>
														</g>
													</g>
												</g>
											</g>
										</g>
									</g>
								</g>
							</g>
						</g>
						<g>
							<g>
								<g>
									<g>
										<g>
											<g>
												<g>
													<g>
														<g>
															<g>
																<g>
																	<g>
																		<g>
																			<path style="fill:#263238;" d="M204.52,430.496c-0.376-0.001-0.622-1.782-1.636-3.65                    c-0.976-1.889-2.31-3.094-2.099-3.406c0.156-0.31,2.09,0.577,3.253,2.795                    C205.218,428.443,204.864,430.542,204.52,430.496z"/>
																		</g>
																	</g>
																</g>
															</g>
														</g>
													</g>
												</g>
											</g>
										</g>
									</g>
								</g>
							</g>
						</g>
						<g>
							<g>
								<g>
									<g>
										<g>
											<g>
												<g>
													<g>
														<g>
															<g>
																<g>
																	<g>
																		<g>
																			<path style="fill:#263238;" d="M212.049,425.038c-0.139,0.069-0.967-1.184-1.584-3.508                    c-0.305-1.157-0.533-2.581-0.551-4.176c-0.008-0.797,0.035-1.635,0.146-2.498c0.06-0.416,0.094-0.894,0.34-1.433                    c0.183-0.541,0.989-1.17,1.743-0.987c0.701,0.112,1.222,0.639,1.464,1.138c0.253,0.508,0.34,0.973,0.419,1.396                    c0.168,0.865,0.243,1.712,0.25,2.518c0.003,1.613-0.268,3.049-0.642,4.196c-0.759,2.308-1.781,3.445-1.9,3.359                    c-0.184-0.103,0.524-1.381,1.008-3.598c0.24-1.105,0.397-2.448,0.33-3.926c-0.038-0.739-0.131-1.51-0.301-2.293                    c-0.144-0.829-0.427-1.461-0.843-1.5c-0.157-0.012-0.211,0.002-0.356,0.256c-0.127,0.251-0.185,0.641-0.245,1.052                    c-0.12,0.803-0.186,1.585-0.211,2.332c-0.047,1.496,0.074,2.85,0.252,3.977                    C211.728,423.599,212.237,424.959,212.049,425.038z"/>
																		</g>
																	</g>
																</g>
															</g>
														</g>
													</g>
												</g>
											</g>
										</g>
									</g>
								</g>
							</g>
						</g>
						<g>
							<g>
								<g>
									<g>
										<g>
											<g>
												<g>
													<g>
														<g>
															<g>
																<g>
																	<g>
																		<g>
																			<path style="fill:#263238;" d="M211.357,424.817c-0.108-0.097,0.805-1.333,2.958-2.47                    c1.07-0.559,2.45-1.054,4.05-1.276c0.8-0.106,1.652-0.143,2.533-0.081c0.878,0.094,2.031,0.17,2.789,1.424                    c0.342,0.68,0.065,1.501-0.307,1.908c-0.367,0.448-0.752,0.679-1.119,0.947c-0.758,0.502-1.565,0.853-2.356,1.081                    c-1.588,0.461-3.104,0.418-4.299,0.16c-2.436-0.537-3.495-1.774-3.392-1.856c0.119-0.192,1.322,0.696,3.54,0.944                    c1.094,0.122,2.435,0.063,3.795-0.398c0.679-0.228,1.361-0.552,1.993-0.99c0.693-0.449,1.164-1.002,0.961-1.245                    c-0.153-0.35-0.983-0.685-1.706-0.699c-0.791-0.072-1.563-0.064-2.294,0.001c-1.463,0.14-2.76,0.502-3.803,0.921                    C212.605,424.03,211.494,424.979,211.357,424.817z"/>
																		</g>
																	</g>
																</g>
															</g>
														</g>
													</g>
												</g>
											</g>
										</g>
									</g>
								</g>
							</g>
						</g>
					</g>
				</g>
				<g>
					<path style="fill:#263238;" d="M191.705,339.636c0,0-48.26-18.024-66.024-15.692c-9.933,1.304-25.462,8.882-26.646,21.613      c-1.184,12.731,1.923,29.761,19.095,38.051s85.709,39.046,101.993,43.784c16.284,4.737,56.884,15.83,56.884,15.83l15.426-43.956      c0,0-84.148-29.135-88.589-32.392c-4.441-3.257-15.692-7.698-15.692-7.698L191.705,339.636z"/>
				</g>
				<g>
					<g>
						<path style="fill:#455A64;" d="M359.468,345.613c-0.003,0.008-0.116-0.021-0.335-0.087c-0.244-0.074-0.564-0.171-0.969-0.294       c-0.852-0.256-2.112-0.625-3.754-1.016c-1.642-0.385-3.668-0.822-6.049-1.052c-2.381-0.236-5.119-0.248-8.12,0.01       c-2.998,0.264-6.274,0.806-9.658,1.84c-1.689,0.519-3.411,1.151-5.094,1.988c-1.704,0.831-3.457,1.687-5.254,2.564       c-7.22,3.451-15.282,6.984-23.87,10.376c-17.197,6.89-33.705,10.16-45.473,12.834c-5.905,1.306-10.678,2.381-13.968,3.164       c-1.621,0.384-2.891,0.685-3.789,0.897c-0.413,0.093-0.739,0.167-0.988,0.223c-0.223,0.048-0.339,0.068-0.341,0.059       c-0.002-0.009,0.109-0.046,0.328-0.11c0.246-0.069,0.568-0.159,0.976-0.273c0.86-0.23,2.126-0.583,3.767-0.993       c3.277-0.843,8.04-1.974,13.936-3.326c11.754-2.767,28.218-6.089,45.363-12.959c8.577-3.388,16.634-6.903,23.855-10.325       c1.798-0.869,3.553-1.717,5.257-2.541c1.715-0.843,3.461-1.474,5.172-1.991c3.425-1.028,6.73-1.552,9.752-1.794       c3.026-0.237,5.783-0.199,8.18,0.067c2.401,0.261,4.428,0.728,6.068,1.145c1.641,0.422,2.895,0.823,3.738,1.112       c0.398,0.143,0.714,0.257,0.954,0.344C359.364,345.559,359.471,345.605,359.468,345.613z"/>
					</g>
				</g>
				<g>
					<g>
						<path style="fill:#455A64;" d="M356.93,339.251c-0.017,0.084-1.469-0.179-3.832-0.434c-2.362-0.257-5.645-0.45-9.263-0.268       c-3.619,0.19-6.865,0.719-9.188,1.217c-2.325,0.496-3.742,0.906-3.768,0.824c-0.011-0.034,0.333-0.171,0.965-0.389       c0.631-0.224,1.56-0.498,2.719-0.794c2.317-0.593,5.589-1.186,9.245-1.378c3.655-0.184,6.97,0.07,9.336,0.423       c1.184,0.175,2.136,0.353,2.786,0.51C356.582,339.115,356.938,339.216,356.93,339.251z"/>
					</g>
				</g>
				<g>
					<g>
						<path style="fill:#455A64;" d="M171.403,352.401c-0.056,0.073-1.393-0.964-3.706-2.396c-2.308-1.435-5.643-3.195-9.552-4.581       c-3.914-1.375-7.616-2.097-10.313-2.429c-2.699-0.336-4.39-0.368-4.388-0.461c0-0.036,0.423-0.056,1.189-0.062       c0.766-0.015,1.875,0.034,3.24,0.157c2.729,0.24,6.488,0.913,10.446,2.304c3.953,1.401,7.302,3.236,9.577,4.762       c1.14,0.761,2.034,1.419,2.621,1.911C171.109,352.092,171.426,352.373,171.403,352.401z"/>
					</g>
				</g>
				<g>
					<g>
						<path style="fill:#455A64;" d="M195.621,417.96c0,0,0.13,0.043,0.377,0.144c0.26,0.109,0.622,0.261,1.096,0.46       c0.972,0.392,2.376,1.059,4.264,1.783c3.758,1.492,9.314,3.536,16.438,5.879c14.255,4.658,34.748,10.593,59.268,16.769       l-0.277,0.148c4.57-12.686,9.614-26.685,14.919-41.412l0.145,0.326c-5.918-2.429-12.147-4.987-18.476-7.585       c-40.727-16.762-77.329-31.826-102.236-42.076l-0.035-0.014l-0.025-0.027c-4.161-4.406-7.99-8.286-11.579-11.42       c-3.59-3.131-6.89-5.549-9.707-7.314c-2.802-1.794-5.115-2.924-6.66-3.715c-0.777-0.363-1.372-0.64-1.789-0.835       c-0.401-0.19-0.601-0.299-0.601-0.299s0.213,0.078,0.621,0.253c0.421,0.184,1.024,0.447,1.811,0.791       c1.561,0.763,3.893,1.869,6.719,3.643c2.84,1.745,6.168,4.149,9.785,7.269c3.617,3.122,7.474,6.995,11.652,11.386l-0.06-0.041       c24.923,10.212,61.548,25.219,102.301,41.917c6.328,2.6,12.557,5.158,18.474,7.589l0.229,0.094l-0.084,0.232       c-5.321,14.722-10.379,28.715-14.962,41.397l-0.073,0.201l-0.205-0.052c-24.523-6.22-45.003-12.22-59.243-16.958       c-7.116-2.383-12.662-4.47-16.405-6.008c-1.881-0.746-3.277-1.437-4.239-1.852c-0.467-0.214-0.825-0.377-1.081-0.494       C195.74,418.026,195.621,417.96,195.621,417.96z"/>
					</g>
				</g>
			</g>
			<g>
				<g>
					<path style="fill:#407bff;" d="M314.904,185.833c0,0,13.895,8.005,16.711,17.41c1.71,5.71,14.672,78.764,16.723,93.169      c2.07,14.544-2.276,25.077-8.419,29.855c-6.143,4.778-24.765,11.145-24.765,11.145l-26.198,8.486l-7.508-19.111l24.939-35.825      l-2.413-24.133L314.904,185.833z"/>
				</g>
				<g>
					<path style="fill:#407bff;" d="M287.591,173.21l-10.445-5.96c0,0-9.509,11.124-22.478,9.758      c-12.969-1.365-20.649-11.291-20.649-11.291l-38.674,7.875v0c-2.595,0.52-7.328,2.16-11.853,8.625      c-5.049,7.214-28.979,39.201-28.979,39.201h-16.761c-4.619,0-8.862,2.554-11.011,6.643c-2.861,5.447-6.296,12.732-5.961,15.75      c0.567,5.102-0.417,19.113,6.427,23.487c2.171,1.387,9.936,5.549,15.962,5.265c8.891-0.419,19.218-5.049,25.168-9.209      c5.038-3.523,16.756-15.701,21.263-20.454l-0.006,0.074l2.894,101.458l101.402-2.888l21.014-155.713      C314.904,185.833,288.615,173.21,287.591,173.21z"/>
				</g>
				<g>
					<g>
						<path style="fill:#263238;" d="M189.24,200.396c0.144-0.002,0.409,12.574,0.592,28.085c0.183,15.516,0.215,28.092,0.071,28.094       c-0.144,0.002-0.409-12.571-0.592-28.087C189.128,212.976,189.096,200.397,189.24,200.396z"/>
					</g>
				</g>
				<g>
					<g>
						<path style="fill:#263238;" d="M327.182,282.412c0.005,0.052-0.86,0.138-2.392,0.43c-1.534,0.28-3.724,0.887-6.279,1.999       c-2.56,1.102-5.428,2.814-8.361,5.05c-2.93,2.242-5.898,5.028-8.807,8.145c-2.902,3.13-5.547,6.229-8.037,8.979       c-2.485,2.753-4.816,5.158-6.907,7.036c-2.086,1.883-3.89,3.276-5.192,4.155c-0.637,0.459-1.171,0.759-1.518,0.982       c-0.353,0.215-0.542,0.321-0.552,0.306c-0.01-0.015,0.161-0.15,0.494-0.394c0.328-0.251,0.841-0.577,1.457-1.059       c1.26-0.925,3.018-2.354,5.06-4.261c2.048-1.902,4.34-4.321,6.8-7.086c2.465-2.761,5.099-5.871,8.013-9.014       c2.924-3.133,5.925-5.93,8.898-8.172c2.975-2.235,5.897-3.935,8.505-5.006c2.603-1.082,4.832-1.639,6.388-1.86       c0.772-0.153,1.388-0.157,1.798-0.207C326.964,282.403,327.18,282.394,327.182,282.412z"/>
					</g>
				</g>
				<g>
					<g>
						<path style="fill:#263238;" d="M329.476,275.54c0.014,0.094-1.535,0.307-3.951,0.977c-2.414,0.664-5.679,1.883-8.966,3.833       c-3.282,1.963-5.908,4.253-7.642,6.06c-1.74,1.806-2.664,3.066-2.74,3.009c-0.029-0.021,0.181-0.35,0.588-0.93       c0.398-0.585,1.039-1.387,1.883-2.331c1.682-1.891,4.313-4.264,7.644-6.256c3.337-1.981,6.676-3.164,9.14-3.742       c1.232-0.293,2.242-0.475,2.946-0.546C329.082,275.532,329.471,275.504,329.476,275.54z"/>
					</g>
				</g>
				<g style="opacity:0.3;">
					<g>
						<path d="M140.75,257.731c5.367,1.463,11.814-6.261,16.689-11.093c2.536-2.514,5.173-5.196,6.107-8.643       c0.772-2.847,0.268-5.92-0.843-8.653c-1.111-2.733-1.897-4.504-3.569-6.934c0.45,4.167,1.475,10.552,0.073,15.79       c-1.169,4.368-3.938,7.844-6.873,11.141C149.226,252.829,145.552,256.491,140.75,257.731"/>
					</g>
				</g>
				<g>
					<g>
						<path style="fill:#263238;" d="M163.698,253.313c-0.101-0.032,0.521-1.769,1.024-4.68c0.262-1.453,0.434-3.205,0.492-5.152       c0.024-1.948-0.086-4.092-0.425-6.316c-0.363-2.22-0.919-4.294-1.542-6.141c-0.656-1.835-1.359-3.449-2.056-4.75       c-1.375-2.614-2.502-4.074-2.416-4.136c0.029-0.022,0.32,0.333,0.825,0.997c0.258,0.328,0.56,0.739,0.87,1.244       c0.315,0.501,0.703,1.056,1.045,1.72c0.746,1.293,1.495,2.913,2.185,4.765c0.657,1.863,1.236,3.966,1.604,6.22       c0.344,2.257,0.441,4.435,0.39,6.41c-0.085,1.974-0.299,3.745-0.61,5.206c-0.121,0.737-0.319,1.385-0.464,1.958       c-0.14,0.576-0.3,1.06-0.444,1.452C163.9,252.897,163.732,253.324,163.698,253.313z"/>
					</g>
				</g>
				<g>
					<g>
						<path style="fill:#263238;" d="M238.242,169.637c0.069,0.136-1.119,0.827-2.362,1.943c-1.253,1.106-2.077,2.206-2.204,2.122       c-0.118-0.066,0.543-1.348,1.858-2.51C236.841,170.021,238.191,169.512,238.242,169.637z"/>
					</g>
				</g>
				<g>
					<g>
						<path style="fill:#263238;" d="M248.794,175.768c0.11,0.11-0.911,1.206-1.732,2.823c-0.838,1.609-1.134,3.077-1.287,3.052       c-0.133-0.005-0.059-1.588,0.824-3.29C247.469,176.645,248.713,175.663,248.794,175.768z"/>
					</g>
				</g>
				<g>
					<g>
						<path style="fill:#263238;" d="M266.861,182.129c-0.145,0.032-0.557-1.356-1.161-3.025c-0.599-1.671-1.167-3.003-1.035-3.071       c0.122-0.066,0.912,1.185,1.525,2.894C266.808,180.635,266.997,182.102,266.861,182.129z"/>
					</g>
				</g>
				<g>
					<g>
						<path style="fill:#263238;" d="M278.486,176.634c-0.154,0.035-0.55-1.735-1.695-3.603c-1.124-1.882-2.508-3.053-2.405-3.174       c0.065-0.113,1.666,0.927,2.851,2.904C278.438,174.728,278.617,176.629,278.486,176.634z"/>
					</g>
				</g>
				<g>
					<g>
						<path style="fill:#263238;" d="M311.874,209.489c0.143,0.019-1.574,13.877-3.834,30.95       c-2.261,17.078-4.208,30.903-4.351,30.884c-0.142-0.019,1.574-13.874,3.834-30.952       C309.783,223.298,311.731,209.471,311.874,209.489z"/>
					</g>
				</g>
			</g>
			<g>
				<g>
					<path style="fill:#263238;" d="M159.917,231.929c0.036,0.001,0.023,0.509-0.031,1.432c-0.008,0.464-0.09,1.023-0.207,1.669      c-0.056,0.329-0.114,0.674-0.176,1.038c-0.077,0.364-0.188,0.742-0.29,1.143c-0.374,1.614-1.099,3.454-1.998,5.446      c-0.979,1.954-2.184,4.046-3.725,6.05c-1.561,1.986-3.245,3.724-4.953,5.101c-1.741,1.326-3.419,2.402-4.973,2.999      c-0.383,0.158-0.742,0.324-1.093,0.451c-0.356,0.099-0.695,0.193-1.017,0.283c-0.312,0.085-0.606,0.165-0.884,0.241      c-0.274,0.06-0.535,0.073-0.763,0.106c-0.92,0.108-1.425,0.15-1.428,0.114c-0.026-0.141,2.065-0.18,5.038-1.531      c1.503-0.626,3.127-1.715,4.819-3.035c1.66-1.373,3.305-3.09,4.842-5.046c1.518-1.974,2.717-4.027,3.707-5.943      c0.91-1.952,1.661-3.754,2.074-5.333C159.771,233.972,159.799,231.918,159.917,231.929z"/>
				</g>
			</g>
			<g>
				<g>
					<g style="opacity:0.3;">
						<g>
							<path d="M308.611,347.904c4.299-2.079,5.277-7.656,5.716-12.412c1.285-13.937,2.571-27.874,3.856-41.811        c0.604-6.553,0.899-14.033-3.723-18.718c-4.221-4.278-10.926-4.535-16.936-4.518c-37.106,0.107-69.875,1.191-106.981,1.298        l1.891,64.909L308.611,347.904z"/>
						</g>
					</g>
					<g>
						<g>
							<path style="fill:#E0E0E0;" d="M174.551,281.799l3.951,75.283c0.152,2.902,2.577,5.177,5.518,5.175l119.92,0.209        c2.946-0.001,5.374-2.288,5.518-5.196l4.576-74.004c0.152-3.073-2.035-7.162-5.148-7.223l-128.706,0.012        C176.972,275.992,174.385,278.633,174.551,281.799z"/>
						</g>
						<g>
							<g>
								<path style="fill:#263238;" d="M174.551,281.799c0,0-0.009-0.094-0.013-0.282c-0.014-0.188,0.002-0.468,0.045-0.838         c0.107-0.721,0.418-1.857,1.421-2.933c0.498-0.528,1.163-1.039,2.006-1.365c0.834-0.354,1.849-0.432,2.898-0.404         c2.113-0.007,4.549-0.015,7.291-0.025c10.982-0.021,26.854-0.05,46.464-0.087c19.62-0.018,42.977-0.039,68.911-0.062         c1.621-0.001,3.252-0.002,4.893-0.003c0.819-0.037,1.755,0.164,2.478,0.633c0.742,0.455,1.346,1.093,1.83,1.797         c0.953,1.419,1.517,3.108,1.506,4.855c-0.099,1.678-0.199,3.366-0.3,5.063c-0.417,6.775-0.842,13.693-1.276,20.736         c-0.869,14.085-1.769,28.668-2.691,43.605l-0.173,2.797c-0.079,0.939-0.065,1.839-0.231,2.819         c-0.356,1.93-1.801,3.573-3.616,4.244c-0.896,0.358-1.919,0.407-2.815,0.376l-2.758-0.005         c-1.836-0.003-3.664-0.007-5.487-0.01c-7.289-0.014-14.472-0.028-21.53-0.042c-14.115-0.03-27.73-0.059-40.7-0.086         c-12.97-0.031-25.294-0.061-36.829-0.088c-2.883-0.008-5.718-0.015-8.5-0.022c-0.696-0.002-1.388-0.004-2.077-0.005         c-0.688-0.012-1.371,0.029-2.083-0.066c-1.404-0.19-2.707-0.922-3.596-1.987c-0.906-1.052-1.351-2.465-1.338-3.789         c-0.067-1.31-0.134-2.605-0.2-3.887c-0.132-2.563-0.26-5.071-0.386-7.52c-0.993-19.585-1.797-35.435-2.353-46.401         c-0.266-5.471-0.473-9.721-0.613-12.617c-0.064-1.435-0.113-2.531-0.146-3.282         C174.553,282.178,174.551,281.799,174.551,281.799s0.038,0.378,0.085,1.116c0.045,0.75,0.111,1.845,0.198,3.279         c0.163,2.894,0.403,7.143,0.711,12.612c0.595,10.965,1.455,26.811,2.518,46.393c0.131,2.449,0.266,4.956,0.403,7.519         c0.069,1.282,0.138,2.577,0.208,3.886c-0.005,1.298,0.408,2.56,1.252,3.551c0.828,0.988,2.041,1.666,3.345,1.84         c0.642,0.087,1.338,0.048,2.026,0.058c0.689,0.001,1.382,0.001,2.077,0.002c2.783,0.003,5.617,0.005,8.5,0.008         c11.535,0.013,23.86,0.026,36.829,0.04c12.97,0.018,26.585,0.036,40.7,0.056c7.058,0.011,14.24,0.022,21.53,0.034         c1.822,0.003,3.651,0.006,5.487,0.009l2.758,0.005c0.939,0.029,1.795-0.017,2.632-0.343c1.652-0.611,2.968-2.107,3.289-3.858         c0.149-0.854,0.146-1.828,0.222-2.747l0.173-2.797c0.925-14.936,1.829-29.519,2.702-43.604         c0.438-7.042,0.868-13.96,1.289-20.735c0.102-1.691,0.203-3.374,0.303-5.047c0.014-1.613-0.521-3.238-1.416-4.566         c-0.888-1.331-2.295-2.343-3.91-2.221c-1.641-0.001-3.272-0.001-4.893-0.002c-25.934-0.019-49.29-0.035-68.91-0.049         c-19.609-0.033-35.481-0.06-46.462-0.078c-2.741-0.009-5.177-0.017-7.29-0.023c-1.058-0.036-2.023,0.032-2.849,0.37         c-0.827,0.311-1.482,0.803-1.977,1.316c-0.997,1.043-1.322,2.157-1.445,2.868         C174.523,281.416,174.579,281.799,174.551,281.799z"/>
							</g>
						</g>
					</g>
				</g>
				<g>
					<g>
						<circle style="fill:#FFFFFF;" cx="245.181" cy="318.517" r="7.063"/>
					</g>
					<g>
						<g>
							<path style="fill:#263238;" d="M252.244,318.517c-0.058,0.003-0.031-0.63-0.319-1.7c-0.285-1.05-1-2.587-2.582-3.768        c-0.784-0.577-1.767-1.065-2.898-1.258c-1.123-0.185-2.388-0.145-3.588,0.318c-1.201,0.435-2.346,1.253-3.158,2.384        c-0.836,1.116-1.306,2.547-1.32,4.023c0.014,1.476,0.484,2.908,1.32,4.024c0.813,1.131,1.958,1.951,3.159,2.385        c1.201,0.462,2.465,0.503,3.589,0.318c1.131-0.193,2.114-0.681,2.898-1.258c1.582-1.182,2.297-2.718,2.582-3.768        C252.213,319.146,252.186,318.513,252.244,318.517c0.018,0,0.028,0.155,0.03,0.453c0.008,0.297-0.029,0.741-0.152,1.296        c-0.232,1.095-0.918,2.727-2.555,4.012c-0.811,0.627-1.843,1.165-3.042,1.39c-1.191,0.217-2.54,0.19-3.832-0.291        c-1.291-0.453-2.526-1.323-3.406-2.534c-0.904-1.195-1.417-2.739-1.43-4.327c0.014-1.588,0.526-3.131,1.43-4.325        c0.88-1.211,2.115-2.08,3.406-2.533c1.292-0.481,2.641-0.508,3.831-0.291c1.199,0.224,2.231,0.762,3.042,1.389        c1.637,1.284,2.323,2.917,2.556,4.012c0.124,0.555,0.16,0.998,0.152,1.296C252.272,318.361,252.262,318.517,252.244,318.517z"/>
						</g>
					</g>
				</g>
				<g>
					<g>
						<path style="fill:#263238;" d="M178.59,290.132c0.144-0.005,0.735,12.646,1.32,28.253c0.585,15.613,0.943,28.27,0.8,28.275       c-0.144,0.005-0.735-12.643-1.32-28.256C178.805,302.797,178.447,290.137,178.59,290.132z"/>
					</g>
				</g>
			</g>
			<g>
				<g>
					<path style="fill:#e4897b;" d="M142.546,191.908c-0.701-0.594,2.371-12.417,2.371-12.417s-8.135-13.273-8.35-17.555      c-0.214-4.282,3.211-13.059,3.211-13.059l23.336-5.994c0,0,7.496,13.916,8.993,18.84c1.497,4.924-2.571,21.623-2.571,21.623      l-3.953,8.564C165.584,191.908,153.663,201.328,142.546,191.908z"/>
				</g>
				<g>
					<g>
						<path style="fill:#e4897b;" d="M136.612,164.496c0,0-1.012-1.754-2.458-5.182c-1.477-3.504-3.292-6.94,0-8.899       c1.937-1.153,3.516-0.555,3.516-0.555s-0.505-2.949,1.257-4.056c1.762-1.107,3.46-0.301,3.46-0.301s-0.556-4.16,1.981-5.924       c3.182-2.213,6.463-0.184,6.463-0.184s-2.008-18.21-2.183-19.175c-0.639-3.541,0.671-6.673,4.194-5.8       c1.291,0.32,2.008,1.681,3.522,7.611c1.514,5.93,3.947,16.051,3.947,16.051s4.098,7.122,6.034,10.984       c1.936,3.863,5.763,12.657,6.081,14.986c0.824,6.025-2.704,14.001-2.704,14.001l-24.806,1.439       C144.917,179.491,137.557,166.224,136.612,164.496z"/>
					</g>
					<g>
						<g>
							<path style="fill:#b66e62;" d="M138.16,150.645c0.061-0.039,0.79,0.988,1.92,2.679c0.586,0.892,1.245,1.895,1.962,2.985        c0.363,0.563,0.764,1.163,1.066,1.865c0.302,0.689,0.489,1.535,0.292,2.366c-0.165,0.815-0.749,1.607-1.567,1.837        c-0.81,0.252-1.598,0.011-2.222-0.274c-0.636-0.293-1.174-0.677-1.657-1.025c-0.488-0.35-0.934-0.687-1.336-1.001        c-0.804-0.629-1.43-1.167-1.85-1.553c-0.42-0.386-0.636-0.618-0.613-0.645c0.05-0.059,1.033,0.727,2.683,1.903        c0.835,0.558,1.804,1.338,2.97,1.883c0.582,0.255,1.26,0.429,1.87,0.226c0.619-0.18,1.066-0.773,1.214-1.465        c0.165-0.696,0.017-1.408-0.255-2.053c-0.271-0.647-0.647-1.234-1.001-1.806c-0.682-1.112-1.31-2.135-1.868-3.045        C138.718,151.78,138.099,150.683,138.16,150.645z"/>
						</g>
					</g>
					<g>
						<g>
							<path style="fill:#b66e62;" d="M158.504,152.807c-0.134,0.006-0.258-1.777,0.26-3.898c0.507-2.125,1.43-3.654,1.547-3.588        c0.138,0.067-0.552,1.654-1.041,3.71C158.768,151.084,158.657,152.811,158.504,152.807z"/>
						</g>
					</g>
					<g>
						<g>
							<path style="fill:#e4897b;" d="M168.337,158.131c-2.216-2.259-5.205-3.66-8.298-4.331c-3.093-0.671-6.298-0.65-9.449-0.363        c-2.523,0.23-5.405,0.882-6.554,3.14c-1.183,2.324,0.24,5.32,2.479,6.657c2.239,1.337,5.007,1.39,7.604,1.154        c2.597-0.236,5.216-0.72,7.793-0.319"/>
						</g>
						<g>
							<g>
								<path style="fill:#b66e62;" d="M161.911,164.069c-0.006,0.044-0.699-0.066-1.958-0.051c-1.26,0.001-3.066,0.231-5.316,0.505         c-1.127,0.125-2.376,0.229-3.724,0.157c-1.339-0.077-2.808-0.327-4.179-1.05c-1.378-0.71-2.558-1.995-3.105-3.61         c-0.282-0.802-0.355-1.705-0.176-2.582c0.206-0.87,0.681-1.695,1.368-2.294c1.384-1.223,3.158-1.615,4.769-1.851         c1.636-0.198,3.205-0.279,4.713-0.284c3.011-0.011,5.732,0.434,7.886,1.194c2.161,0.75,3.746,1.755,4.733,2.554         c0.498,0.398,0.854,0.742,1.086,0.982c0.228,0.245,0.34,0.38,0.328,0.392c-0.035,0.036-0.518-0.476-1.536-1.213         c-1.011-0.739-2.593-1.675-4.727-2.366c-2.127-0.7-4.797-1.1-7.767-1.063c-1.481,0.018-3.053,0.11-4.646,0.31         c-1.567,0.232-3.255,0.633-4.488,1.732c-0.616,0.536-1.028,1.262-1.212,2.02c-0.156,0.769-0.101,1.575,0.155,2.309         c0.493,1.479,1.576,2.681,2.845,3.347c1.279,0.69,2.68,0.95,3.981,1.042c1.309,0.088,2.539,0.008,3.66-0.092         c2.242-0.226,4.081-0.403,5.355-0.341c0.636,0.022,1.128,0.085,1.458,0.135C161.744,164.009,161.914,164.051,161.911,164.069         z"/>
							</g>
						</g>
					</g>
					<g>
						<g>
							<path style="fill:#e4897b;" d="M138.34,150.929c2.61,3.964,4.914,8.32,7.114,12.525c0.64,1.223,1.317,2.517,2.492,3.241        c0.941,0.58,3.276-0.472,4.321-0.831l-7.166-16.307"/>
						</g>
						<g>
							<g>
								<path style="fill:#b66e62;" d="M145.1,149.557c0.03-0.013,0.254,0.417,0.637,1.215c0.41,0.883,0.942,2.029,1.587,3.415         c1.328,2.907,3.148,6.971,5.179,11.573l0.112,0.254l-0.265,0.094c-0.774,0.276-1.605,0.625-2.501,0.85         c-0.354,0.086-0.715,0.155-1.096,0.164c-0.189,0.003-0.386-0.004-0.587-0.062c-0.204-0.044-0.405-0.172-0.54-0.266         c-0.604-0.419-1.066-0.975-1.443-1.544c-0.737-1.156-1.257-2.317-1.839-3.394c-1.126-2.169-2.158-4.11-3.053-5.725         c-0.892-1.617-1.646-2.907-2.169-3.797c-0.523-0.891-0.815-1.383-0.782-1.405c0.027-0.018,0.377,0.437,0.954,1.297         c0.578,0.859,1.382,2.125,2.318,3.723c0.938,1.596,2.007,3.525,3.157,5.684c0.591,1.066,1.138,2.251,1.839,3.335         c0.359,0.535,0.783,1.036,1.313,1.401c0.45,0.368,1.147,0.233,1.803,0.085c0.848-0.212,1.654-0.548,2.459-0.833l-0.153,0.348         c-2.016-4.609-3.779-8.698-5.023-11.642c-0.586-1.412-1.07-2.579-1.443-3.478C145.236,150.027,145.07,149.57,145.1,149.557z"/>
							</g>
						</g>
					</g>
					<g>
						<g>
							<path style="fill:#e4897b;" d="M143.169,144.712c2.303,5.777,4.607,11.554,6.911,17.331c0.489,1.226,0.993,2.478,1.858,3.476        c0.865,0.998,2.173,1.711,3.479,1.516c1.8-0.269,2.978-2.179,3.069-3.997c0.091-1.818-0.628-3.565-1.293-5.26        c-2.067-5.267-3.726-10.695-4.956-16.218"/>
						</g>
						<g>
							<g>
								<path style="fill:#b66e62;" d="M152.236,141.56c0.018-0.004,0.077,0.178,0.174,0.528c0.109,0.406,0.244,0.913,0.41,1.532         c0.357,1.329,0.877,3.252,1.608,5.6c0.729,2.348,1.671,5.122,2.861,8.145c0.577,1.506,1.324,3.109,1.447,4.958         c0.067,0.912-0.093,1.892-0.522,2.753c-0.421,0.857-1.114,1.657-2.077,2.035c-0.964,0.386-2.056,0.221-2.903-0.235         c-0.864-0.446-1.548-1.154-2.04-1.922c-0.98-1.561-1.456-3.212-2.091-4.709c-1.18-3.016-2.247-5.743-3.153-8.058         c-0.86-2.249-1.565-4.093-2.084-5.449c-0.219-0.603-0.398-1.096-0.542-1.491c-0.118-0.343-0.173-0.526-0.156-0.533         c0.017-0.007,0.104,0.164,0.254,0.494c0.168,0.386,0.377,0.867,0.633,1.455c0.557,1.34,1.314,3.164,2.237,5.388         c0.936,2.303,2.038,5.015,3.257,8.016c0.643,1.49,1.15,3.161,2.071,4.607c0.465,0.718,1.082,1.345,1.852,1.742         c0.757,0.403,1.673,0.53,2.475,0.21c0.805-0.313,1.422-1.006,1.802-1.778c0.388-0.782,0.535-1.641,0.478-2.495         c-0.104-1.717-0.813-3.293-1.385-4.813c-1.171-3.047-2.08-5.844-2.766-8.213c-0.688-2.37-1.155-4.311-1.452-5.658         c-0.145-0.674-0.253-1.199-0.315-1.556C152.244,141.754,152.219,141.564,152.236,141.56z"/>
							</g>
						</g>
					</g>
				</g>
				<g>
					<g>
						<path style="fill:#e4897b;" d="M143.725,185.344c0,0-15.825,46.643-16.45,48.933c-0.625,2.29,3.123,18.949,9.995,22.905       c6.872,3.956,20.198-12.494,21.864-18.532c1.666-6.039,0-16.242,0-16.242l10.668-40.191"/>
					</g>
				</g>
				<g>
					<g>
						<path style="fill:#b66e62;" d="M159.134,178.094c-0.007,0.059-0.59,0.066-1.489-0.195c-0.896-0.257-2.086-0.84-3.148-1.81       c-1.058-0.974-1.742-2.11-2.076-2.98c-0.339-0.873-0.381-1.455-0.324-1.467c0.151-0.062,0.7,2.219,2.751,4.063       C156.862,177.589,159.183,177.939,159.134,178.094z"/>
					</g>
				</g>
			</g>
		</g>
	</g>
	<g id="Floor">
		<g>
			<g>
				<path style="fill:#263238;" d="M443.32,404.225c0,0.144-88.113,0.26-196.78,0.26c-108.705,0-196.799-0.117-196.799-0.26     c0-0.144,88.094-0.26,196.799-0.26C355.208,403.964,443.32,404.081,443.32,404.225z"/>
			</g>
		</g>
	</g>
	<g id="Button">
		<g>
			<g>
				<g>
					<path style="fill:#407bff;" d="M185.44,111.439H73.204c-2.919,0-5.286-2.367-5.286-5.286V75.022      c0-2.919,2.366-5.286,5.286-5.286H185.44c2.919,0,5.286,2.367,5.286,5.286v31.131      C190.725,109.073,188.359,111.439,185.44,111.439z"/>
				</g>
				<g>
					<path style="fill:#407bff;" d="M191.52,111.432H83.593c-3.11,0-5.641-2.53-5.641-5.641V75.234c0-3.11,2.53-5.641,5.641-5.641      H191.52c3.11,0,5.641,2.531,5.641,5.641v30.557C197.16,108.902,194.63,111.432,191.52,111.432z M83.593,70.593      c-2.559,0-4.641,2.082-4.641,4.641v30.557c0,2.559,2.081,4.641,4.641,4.641H191.52c2.559,0,4.641-2.082,4.641-4.641V75.234      c0-2.559-2.081-4.641-4.641-4.641H83.593z"/>
				</g>
				<g xmlns="http://www.w3.org/2000/svg">
		<text x="70" y="100" font-size="your_font_size" fill="white" style="cursor:pointer; font-family: sans-serif; font-size: 30px" >
			Visualize
		</text>
		
	</g>
				<g>
					<g>
						<path style="fill:#407bff;" d="M192.613,110.506c-0.119,0.081-1.062-1.09-2.106-2.616c-1.044-1.526-1.795-2.829-1.676-2.91       c0.119-0.081,1.061,1.09,2.106,2.616C191.981,109.122,192.732,110.425,192.613,110.506z"/>
					</g>
				</g>
				<g>
					<g>
						<path style="fill:#407bff;" d="M196.66,78.283c-0.116,0.084-1.598-1.76-3.309-4.12c-1.711-2.36-3.004-4.342-2.887-4.426       c0.116-0.084,1.598,1.76,3.309,4.12C195.484,76.217,196.777,78.199,196.66,78.283z"/>
					</g>
				</g>
				<g>
					<g>
						<path style="fill:#407bff;" d="M196.23,104.984c-0.146,0.101-1.645-2.059-3.291-4.824c-0.83-1.38-1.557-2.643-2.073-3.562       c-0.511-0.923-0.83-1.487-0.772-1.53c0.146-0.101,1.645,2.058,3.292,4.824c0.83,1.38,1.557,2.642,2.073,3.562       C195.968,104.377,196.287,104.941,196.23,104.984z"/>
					</g>
				</g>
				<g>
					<g>
						<path style="fill:#407bff;" d="M196.691,96.264c-0.147,0.102-1.747-2.226-3.522-5.197c-0.894-1.483-1.679-2.839-2.236-3.827       c-0.553-0.991-0.897-1.597-0.84-1.64c0.147-0.102,1.747,2.226,3.522,5.197c0.894,1.483,1.679,2.839,2.236,3.826       C196.404,95.616,196.748,96.221,196.691,96.264z"/>
					</g>
				</g>
				<g>
					<g>
						<path style="fill:#407bff;" d="M196.678,87.634c-0.148,0.102-1.755-2.239-3.54-5.226c-0.899-1.491-1.689-2.854-2.249-3.847       c-0.556-0.997-0.902-1.605-0.845-1.648c0.147-0.102,1.755,2.239,3.54,5.226c0.899,1.491,1.688,2.854,2.249,3.846       C196.389,86.982,196.735,87.591,196.678,87.634z"/>
					</g>
				</g>
			</g>
			<g>
				<g>
					<g>
						<path style="fill:#263238;" d="M64.89,76.2c-0.036,0.139-2.88-0.485-6.35-1.394c-3.471-0.909-6.255-1.758-6.218-1.898       c0.036-0.139,2.879,0.485,6.35,1.394C62.142,75.212,64.926,76.061,64.89,76.2z"/>
					</g>
				</g>
				<g>
					<g>
						<path style="fill:#263238;" d="M66.1,68.692c-0.111,0.091-3.087-3.356-6.646-7.698c-3.56-4.344-6.355-7.938-6.243-8.029       c0.111-0.091,3.086,3.355,6.646,7.699C63.416,65.006,66.211,68.601,66.1,68.692z"/>
					</g>
				</g>
				<g>
					<g>
						<path style="fill:#263238;" d="M75.374,65.073c-0.129,0.041-0.943-2.28-1.386-5.269c-0.454-2.989-0.356-5.446-0.221-5.444       c0.152-0.003,0.288,2.419,0.736,5.367C74.94,62.675,75.52,65.031,75.374,65.073z"/>
					</g>
				</g>
			</g>
		</g>
	</g>
	</svg>